<svg xmlns="http://www.w3.org/2000/svg" xmlns:xlink="http://www.w3.org/1999/xlink" width="200" zoomAndPan="magnify" viewBox="0 0 150 74.999997" height="100" preserveAspectRatio="xMidYMid meet" version="1.0"><defs><g/><clipPath id="ad0d41ad72"><path d="M 5 12 L 49 12 L 49 63 L 5 63 Z M 5 12 " clip-rule="nonzero"/></clipPath><clipPath id="463d0ebf80"><path d="M 10.234375 24.988281 C 10.234375 20.59375 13.800781 17.03125 18.195312 17.03125 L 36.390625 17.03125 C 40.785156 17.03125 44.351562 20.59375 44.351562 24.988281 L 44.351562 43.183594 C 44.351562 46.972656 41.707031 50.144531 38.160156 50.949219 C 37.125 51.183594 36.390625 52.105469 36.390625 53.167969 L 36.390625 55.695312 L 30.933594 51.601562 C 30.539062 51.304688 30.058594 51.144531 29.566406 51.144531 L 18.195312 51.144531 C 13.800781 51.144531 10.234375 47.582031 10.234375 43.183594 Z M 18.195312 12.480469 C 11.285156 12.480469 5.6875 18.082031 5.6875 24.988281 L 5.6875 43.183594 C 5.6875 50.09375 11.285156 55.695312 18.195312 55.695312 L 28.808594 55.695312 L 37.300781 62.0625 C 37.988281 62.578125 38.910156 62.664062 39.683594 62.277344 C 40.453125 61.890625 40.9375 61.105469 40.9375 60.242188 L 40.9375 54.839844 C 45.597656 53.019531 48.898438 48.492188 48.898438 43.183594 L 48.898438 24.988281 C 48.898438 18.082031 43.300781 12.480469 36.390625 12.480469 Z M 20.46875 18.167969 C 17.328125 18.167969 14.785156 20.710938 14.785156 23.851562 C 14.785156 26.992188 17.328125 29.539062 20.46875 29.539062 C 17.328125 29.539062 14.785156 32.085938 14.785156 35.226562 L 14.785156 44.324219 C 14.785156 47.460938 17.328125 50.007812 20.46875 50.007812 C 23.609375 50.007812 26.15625 47.460938 26.15625 44.324219 L 26.15625 35.226562 C 26.15625 32.085938 23.609375 29.539062 20.46875 29.539062 C 23.609375 29.539062 26.15625 26.992188 26.15625 23.851562 C 26.15625 20.710938 23.609375 18.167969 20.46875 18.167969 Z M 19.332031 23.851562 C 19.332031 23.226562 19.839844 22.714844 20.46875 22.714844 C 21.097656 22.714844 21.605469 23.226562 21.605469 23.851562 C 21.605469 24.480469 21.097656 24.988281 20.46875 24.988281 C 19.839844 24.988281 19.332031 24.480469 19.332031 23.851562 Z M 20.46875 34.085938 C 19.839844 34.085938 19.332031 34.597656 19.332031 35.226562 L 19.332031 44.324219 C 19.332031 44.949219 19.839844 45.460938 20.46875 45.460938 C 21.097656 45.460938 21.605469 44.949219 21.605469 44.324219 L 21.605469 35.226562 C 21.605469 34.597656 21.097656 34.085938 20.46875 34.085938 Z M 28.429688 35.226562 C 28.429688 32.085938 30.976562 29.539062 34.117188 29.539062 C 37.257812 29.539062 39.800781 32.085938 39.800781 35.226562 L 39.800781 44.324219 C 39.800781 47.460938 37.257812 50.007812 34.117188 50.007812 C 30.976562 50.007812 28.429688 47.460938 28.429688 44.324219 Z M 34.117188 34.085938 C 33.488281 34.085938 32.980469 34.597656 32.980469 35.226562 L 32.980469 44.324219 C 32.980469 44.949219 33.488281 45.460938 34.117188 45.460938 C 34.746094 45.460938 35.253906 44.949219 35.253906 44.324219 L 35.253906 35.226562 C 35.253906 34.597656 34.746094 34.085938 34.117188 34.085938 Z M 28.429688 23.851562 C 28.429688 20.710938 30.976562 18.167969 34.117188 18.167969 C 37.257812 18.167969 39.800781 20.710938 39.800781 23.851562 C 39.800781 26.992188 37.257812 29.539062 34.117188 29.539062 C 30.976562 29.539062 28.429688 26.992188 28.429688 23.851562 Z M 34.117188 22.714844 C 33.488281 22.714844 32.980469 23.226562 32.980469 23.851562 C 32.980469 24.480469 33.488281 24.988281 34.117188 24.988281 C 34.746094 24.988281 35.253906 24.480469 35.253906 23.851562 C 35.253906 23.226562 34.746094 22.714844 34.117188 22.714844 Z M 34.117188 22.714844 " clip-rule="evenodd"/></clipPath><linearGradient x1="12" gradientTransform="matrix(2.274414, 0, 0, 2.274414, 0.000003, 10.206359)" y1="0.999999" x2="12" gradientUnits="userSpaceOnUse" y2="23.0638" id="53ba495e2c"><stop stop-opacity="1" stop-color="rgb(36.898804%, 16.899109%, 100%)" offset="0"/><stop stop-opacity="1" stop-color="rgb(36.827087%, 17.045593%, 99.928284%)" offset="0.015625"/><stop stop-opacity="1" stop-color="rgb(36.685181%, 17.340088%, 99.787903%)" offset="0.03125"/><stop stop-opacity="1" stop-color="rgb(36.541748%, 17.634583%, 99.645996%)" offset="0.046875"/><stop stop-opacity="1" stop-color="rgb(36.399841%, 17.929077%, 99.505615%)" offset="0.0625"/><stop stop-opacity="1" stop-color="rgb(36.256409%, 18.223572%, 99.363708%)" offset="0.078125"/><stop stop-opacity="1" stop-color="rgb(36.114502%, 18.519592%, 99.223328%)" offset="0.09375"/><stop stop-opacity="1" stop-color="rgb(35.972595%, 18.814087%, 99.082947%)" offset="0.109375"/><stop stop-opacity="1" stop-color="rgb(35.829163%, 19.108582%, 98.94104%)" offset="0.125"/><stop stop-opacity="1" stop-color="rgb(35.687256%, 19.403076%, 98.800659%)" offset="0.140625"/><stop stop-opacity="1" stop-color="rgb(35.543823%, 19.697571%, 98.658752%)" offset="0.15625"/><stop stop-opacity="1" stop-color="rgb(35.401917%, 19.992065%, 98.518372%)" offset="0.171875"/><stop stop-opacity="1" stop-color="rgb(35.258484%, 20.28656%, 98.376465%)" offset="0.1875"/><stop stop-opacity="1" stop-color="rgb(35.116577%, 20.581055%, 98.236084%)" offset="0.203125"/><stop stop-opacity="1" stop-color="rgb(34.973145%, 20.875549%, 98.095703%)" offset="0.21875"/><stop stop-opacity="1" stop-color="rgb(34.831238%, 21.170044%, 97.953796%)" offset="0.234375"/><stop stop-opacity="1" stop-color="rgb(34.687805%, 21.464539%, 97.813416%)" offset="0.25"/><stop stop-opacity="1" stop-color="rgb(34.545898%, 21.759033%, 97.671509%)" offset="0.265625"/><stop stop-opacity="1" stop-color="rgb(34.403992%, 22.053528%, 97.531128%)" offset="0.28125"/><stop stop-opacity="1" stop-color="rgb(34.260559%, 22.348022%, 97.389221%)" offset="0.296875"/><stop stop-opacity="1" stop-color="rgb(34.118652%, 22.642517%, 97.24884%)" offset="0.3125"/><stop stop-opacity="1" stop-color="rgb(33.97522%, 22.938538%, 97.108459%)" offset="0.328125"/><stop stop-opacity="1" stop-color="rgb(33.833313%, 23.233032%, 96.966553%)" offset="0.34375"/><stop stop-opacity="1" stop-color="rgb(33.68988%, 23.527527%, 96.826172%)" offset="0.359375"/><stop stop-opacity="1" stop-color="rgb(33.547974%, 23.822021%, 96.684265%)" offset="0.375"/><stop stop-opacity="1" stop-color="rgb(33.404541%, 24.116516%, 96.543884%)" offset="0.390625"/><stop stop-opacity="1" stop-color="rgb(33.262634%, 24.411011%, 96.401978%)" offset="0.40625"/><stop stop-opacity="1" stop-color="rgb(33.119202%, 24.705505%, 96.261597%)" offset="0.421875"/><stop stop-opacity="1" stop-color="rgb(32.977295%, 25%, 96.121216%)" offset="0.4375"/><stop stop-opacity="1" stop-color="rgb(32.835388%, 25.294495%, 95.979309%)" offset="0.453125"/><stop stop-opacity="1" stop-color="rgb(32.691956%, 25.588989%, 95.838928%)" offset="0.46875"/><stop stop-opacity="1" stop-color="rgb(32.550049%, 25.883484%, 95.697021%)" offset="0.484375"/><stop stop-opacity="1" stop-color="rgb(32.406616%, 26.177979%, 95.556641%)" offset="0.5"/><stop stop-opacity="1" stop-color="rgb(32.264709%, 26.472473%, 95.414734%)" offset="0.515625"/><stop stop-opacity="1" stop-color="rgb(32.121277%, 26.766968%, 95.274353%)" offset="0.53125"/><stop stop-opacity="1" stop-color="rgb(31.97937%, 27.062988%, 95.133972%)" offset="0.546875"/><stop stop-opacity="1" stop-color="rgb(31.835938%, 27.357483%, 94.992065%)" offset="0.5625"/><stop stop-opacity="1" stop-color="rgb(31.694031%, 27.651978%, 94.851685%)" offset="0.578125"/><stop stop-opacity="1" stop-color="rgb(31.550598%, 27.946472%, 94.709778%)" offset="0.59375"/><stop stop-opacity="1" stop-color="rgb(31.408691%, 28.240967%, 94.569397%)" offset="0.609375"/><stop stop-opacity="1" stop-color="rgb(31.266785%, 28.535461%, 94.42749%)" offset="0.625"/><stop stop-opacity="1" stop-color="rgb(31.123352%, 28.829956%, 94.287109%)" offset="0.640625"/><stop stop-opacity="1" stop-color="rgb(30.981445%, 29.124451%, 94.146729%)" offset="0.65625"/><stop stop-opacity="1" stop-color="rgb(30.838013%, 29.418945%, 94.004822%)" offset="0.671875"/><stop stop-opacity="1" stop-color="rgb(30.696106%, 29.71344%, 93.864441%)" offset="0.6875"/><stop stop-opacity="1" stop-color="rgb(30.552673%, 30.007935%, 93.722534%)" offset="0.703125"/><stop stop-opacity="1" stop-color="rgb(30.410767%, 30.302429%, 93.582153%)" offset="0.71875"/><stop stop-opacity="1" stop-color="rgb(30.267334%, 30.596924%, 93.440247%)" offset="0.734375"/><stop stop-opacity="1" stop-color="rgb(30.125427%, 30.891418%, 93.299866%)" offset="0.75"/><stop stop-opacity="1" stop-color="rgb(29.981995%, 31.187439%, 93.159485%)" offset="0.765625"/><stop stop-opacity="1" stop-color="rgb(29.840088%, 31.481934%, 93.017578%)" offset="0.78125"/><stop stop-opacity="1" stop-color="rgb(29.698181%, 31.776428%, 92.877197%)" offset="0.796875"/><stop stop-opacity="1" stop-color="rgb(29.554749%, 32.070923%, 92.735291%)" offset="0.8125"/><stop stop-opacity="1" stop-color="rgb(29.412842%, 32.365417%, 92.59491%)" offset="0.828125"/><stop stop-opacity="1" stop-color="rgb(29.269409%, 32.659912%, 92.453003%)" offset="0.84375"/><stop stop-opacity="1" stop-color="rgb(29.127502%, 32.954407%, 92.312622%)" offset="0.859375"/><stop stop-opacity="1" stop-color="rgb(28.98407%, 33.248901%, 92.172241%)" offset="0.875"/><stop stop-opacity="1" stop-color="rgb(28.842163%, 33.543396%, 92.030334%)" offset="0.890625"/><stop stop-opacity="1" stop-color="rgb(28.69873%, 33.837891%, 91.889954%)" offset="0.90625"/><stop stop-opacity="1" stop-color="rgb(28.556824%, 34.132385%, 91.748047%)" offset="0.921875"/><stop stop-opacity="1" stop-color="rgb(28.413391%, 34.42688%, 91.607666%)" offset="0.9375"/><stop stop-opacity="1" stop-color="rgb(28.271484%, 34.721375%, 91.465759%)" offset="0.953125"/><stop stop-opacity="1" stop-color="rgb(28.129578%, 35.015869%, 91.325378%)" offset="0.96875"/><stop stop-opacity="1" stop-color="rgb(27.986145%, 35.31189%, 91.184998%)" offset="0.984375"/><stop stop-opacity="1" stop-color="rgb(27.857971%, 35.578918%, 91.056824%)" offset="1"/></linearGradient></defs><g fill="#000000" fill-opacity="1"><g transform="translate(54.587281, 45.981466)"><g><path d="M 1.859375 0 L 1.859375 -17.765625 L 13.796875 -17.765625 L 13.796875 -14.75 L 5.3125 -14.75 L 5.3125 -10.15625 L 12.359375 -10.15625 L 12.359375 -7.359375 L 5.3125 -7.359375 L 5.3125 0 Z M 1.859375 0 "/></g></g></g><g fill="#000000" fill-opacity="1"><g transform="translate(67.648742, 45.981466)"><g><path d="M 1.53125 0 L 1.53125 -13.109375 L 4.875 -13.109375 L 4.875 0 Z M 1.53125 -14.9375 L 1.53125 -18.265625 L 4.875 -18.265625 L 4.875 -14.9375 Z M 1.53125 -14.9375 "/></g></g></g><g fill="#000000" fill-opacity="1"><g transform="translate(72.727768, 45.981466)"><g><path d="M 13.71875 0 L 10.359375 0 L 10.359375 -7.359375 C 10.359375 -8.410156 10.175781 -9.175781 9.8125 -9.65625 C 9.445312 -10.144531 8.9375 -10.390625 8.28125 -10.390625 C 7.832031 -10.390625 7.378906 -10.269531 6.921875 -10.03125 C 6.460938 -9.800781 6.046875 -9.476562 5.671875 -9.0625 C 5.304688 -8.65625 5.039062 -8.1875 4.875 -7.65625 L 4.875 0 L 1.53125 0 L 1.53125 -13.109375 L 4.5625 -13.109375 L 4.5625 -10.6875 C 4.894531 -11.257812 5.316406 -11.738281 5.828125 -12.125 C 6.347656 -12.519531 6.945312 -12.820312 7.625 -13.03125 C 8.300781 -13.238281 9.015625 -13.34375 9.765625 -13.34375 C 10.578125 -13.34375 11.242188 -13.195312 11.765625 -12.90625 C 12.296875 -12.613281 12.695312 -12.21875 12.96875 -11.71875 C 13.25 -11.226562 13.441406 -10.675781 13.546875 -10.0625 C 13.660156 -9.445312 13.71875 -8.820312 13.71875 -8.1875 Z M 13.71875 0 "/></g></g></g><g fill="#000000" fill-opacity="1"><g transform="translate(86.539932, 45.981466)"><g><path d="M 7.578125 0.25 C 6.515625 0.25 5.554688 0.0703125 4.703125 -0.28125 C 3.847656 -0.644531 3.125 -1.144531 2.53125 -1.78125 C 1.945312 -2.414062 1.492188 -3.140625 1.171875 -3.953125 C 0.859375 -4.773438 0.703125 -5.632812 0.703125 -6.53125 C 0.703125 -7.445312 0.859375 -8.3125 1.171875 -9.125 C 1.492188 -9.945312 1.945312 -10.675781 2.53125 -11.3125 C 3.125 -11.945312 3.847656 -12.441406 4.703125 -12.796875 C 5.554688 -13.160156 6.515625 -13.34375 7.578125 -13.34375 C 8.648438 -13.34375 9.609375 -13.160156 10.453125 -12.796875 C 11.296875 -12.441406 12.015625 -11.945312 12.609375 -11.3125 C 13.210938 -10.675781 13.664062 -9.945312 13.96875 -9.125 C 14.28125 -8.3125 14.4375 -7.445312 14.4375 -6.53125 C 14.4375 -5.632812 14.28125 -4.773438 13.96875 -3.953125 C 13.664062 -3.140625 13.21875 -2.414062 12.625 -1.78125 C 12.03125 -1.144531 11.304688 -0.644531 10.453125 -0.28125 C 9.609375 0.0703125 8.648438 0.25 7.578125 0.25 Z M 4.15625 -6.53125 C 4.15625 -5.757812 4.304688 -5.078125 4.609375 -4.484375 C 4.910156 -3.898438 5.316406 -3.441406 5.828125 -3.109375 C 6.347656 -2.773438 6.929688 -2.609375 7.578125 -2.609375 C 8.210938 -2.609375 8.789062 -2.773438 9.3125 -3.109375 C 9.832031 -3.453125 10.242188 -3.921875 10.546875 -4.515625 C 10.859375 -5.109375 11.015625 -5.789062 11.015625 -6.5625 C 11.015625 -7.3125 10.859375 -7.984375 10.546875 -8.578125 C 10.242188 -9.179688 9.832031 -9.648438 9.3125 -9.984375 C 8.789062 -10.316406 8.210938 -10.484375 7.578125 -10.484375 C 6.929688 -10.484375 6.347656 -10.3125 5.828125 -9.96875 C 5.316406 -9.632812 4.910156 -9.171875 4.609375 -8.578125 C 4.304688 -7.984375 4.15625 -7.300781 4.15625 -6.53125 Z M 4.15625 -6.53125 "/></g></g></g><g clip-path="url(#ad0d41ad72)"><g clip-path="url(#463d0ebf80)"><path fill="url(#53ba495e2c)" d="M 5.6875 12.480469 L 5.6875 62.664062 L 48.898438 62.664062 L 48.898438 12.480469 Z M 5.6875 12.480469 " fill-rule="nonzero"/></g></g><g fill="#475be8" fill-opacity="1"><g transform="translate(99.860678, 45.488848)"><g><path d="M 5.0625 0 L 0.21875 -13.109375 L 3.703125 -13.109375 L 7.015625 -3.046875 L 10.34375 -13.109375 L 13.515625 -13.109375 L 8.703125 0 Z M 5.0625 0 "/></g></g></g><g fill="#475be8" fill-opacity="1"><g transform="translate(112.325957, 45.488848)"><g><path d="M 0.625 -3.875 C 0.625 -4.726562 0.859375 -5.472656 1.328125 -6.109375 C 1.804688 -6.753906 2.472656 -7.253906 3.328125 -7.609375 C 4.179688 -7.960938 5.160156 -8.140625 6.265625 -8.140625 C 6.804688 -8.140625 7.359375 -8.097656 7.921875 -8.015625 C 8.492188 -7.929688 8.988281 -7.796875 9.40625 -7.609375 L 9.40625 -8.3125 C 9.40625 -9.144531 9.160156 -9.785156 8.671875 -10.234375 C 8.179688 -10.679688 7.453125 -10.90625 6.484375 -10.90625 C 5.765625 -10.90625 5.078125 -10.78125 4.421875 -10.53125 C 3.773438 -10.28125 3.09375 -9.914062 2.375 -9.4375 L 1.296875 -11.640625 C 2.171875 -12.203125 3.0625 -12.625 3.96875 -12.90625 C 4.875 -13.195312 5.828125 -13.34375 6.828125 -13.34375 C 8.703125 -13.34375 10.160156 -12.875 11.203125 -11.9375 C 12.242188 -11 12.765625 -9.664062 12.765625 -7.9375 L 12.765625 -3.75 C 12.765625 -3.40625 12.828125 -3.15625 12.953125 -3 C 13.078125 -2.851562 13.28125 -2.765625 13.5625 -2.734375 L 13.5625 0 C 13.257812 0.0507812 12.988281 0.09375 12.75 0.125 C 12.507812 0.15625 12.304688 0.171875 12.140625 0.171875 C 11.472656 0.171875 10.96875 0.0234375 10.625 -0.265625 C 10.28125 -0.566406 10.066406 -0.9375 9.984375 -1.375 L 9.90625 -2.046875 C 9.34375 -1.316406 8.632812 -0.75 7.78125 -0.34375 C 6.9375 0.0507812 6.070312 0.25 5.1875 0.25 C 4.3125 0.25 3.523438 0.0703125 2.828125 -0.28125 C 2.140625 -0.644531 1.597656 -1.140625 1.203125 -1.765625 C 0.816406 -2.390625 0.625 -3.09375 0.625 -3.875 Z M 8.78125 -3.203125 C 8.96875 -3.398438 9.117188 -3.597656 9.234375 -3.796875 C 9.347656 -4.003906 9.40625 -4.191406 9.40625 -4.359375 L 9.40625 -5.6875 C 9.007812 -5.851562 8.578125 -5.976562 8.109375 -6.0625 C 7.640625 -6.15625 7.195312 -6.203125 6.78125 -6.203125 C 5.914062 -6.203125 5.203125 -6.015625 4.640625 -5.640625 C 4.085938 -5.265625 3.8125 -4.769531 3.8125 -4.15625 C 3.8125 -3.820312 3.898438 -3.503906 4.078125 -3.203125 C 4.265625 -2.898438 4.53125 -2.65625 4.875 -2.46875 C 5.226562 -2.289062 5.644531 -2.203125 6.125 -2.203125 C 6.632812 -2.203125 7.128906 -2.296875 7.609375 -2.484375 C 8.085938 -2.679688 8.476562 -2.921875 8.78125 -3.203125 Z M 8.78125 -3.203125 "/></g></g></g><g fill="#475be8" fill-opacity="1"><g transform="translate(125.391982, 45.488848)"><g><path d="M 9.390625 -0.671875 C 9.109375 -0.554688 8.765625 -0.421875 8.359375 -0.265625 C 7.960938 -0.117188 7.535156 -0.00390625 7.078125 0.078125 C 6.617188 0.171875 6.15625 0.21875 5.6875 0.21875 C 5.0625 0.21875 4.488281 0.113281 3.96875 -0.09375 C 3.457031 -0.3125 3.046875 -0.660156 2.734375 -1.140625 C 2.429688 -1.617188 2.28125 -2.238281 2.28125 -3 L 2.28125 -10.53125 L 0.546875 -10.53125 L 0.546875 -13.109375 L 2.28125 -13.109375 L 2.28125 -17.375 L 5.625 -17.375 L 5.625 -13.109375 L 8.390625 -13.109375 L 8.390625 -10.53125 L 5.625 -10.53125 L 5.625 -4.125 C 5.644531 -3.675781 5.769531 -3.351562 6 -3.15625 C 6.238281 -2.957031 6.535156 -2.859375 6.890625 -2.859375 C 7.234375 -2.859375 7.570312 -2.914062 7.90625 -3.03125 C 8.238281 -3.144531 8.503906 -3.242188 8.703125 -3.328125 Z M 9.390625 -0.671875 "/></g></g></g><g fill="#475be8" fill-opacity="1"><g transform="translate(133.702071, 45.488848)"><g><path d="M 7.609375 0.25 C 6.554688 0.25 5.601562 0.0703125 4.75 -0.28125 C 3.90625 -0.644531 3.179688 -1.140625 2.578125 -1.765625 C 1.972656 -2.390625 1.507812 -3.101562 1.1875 -3.90625 C 0.863281 -4.71875 0.703125 -5.578125 0.703125 -6.484375 C 0.703125 -7.734375 0.976562 -8.875 1.53125 -9.90625 C 2.09375 -10.945312 2.894531 -11.78125 3.9375 -12.40625 C 4.976562 -13.03125 6.210938 -13.34375 7.640625 -13.34375 C 9.066406 -13.34375 10.289062 -13.03125 11.3125 -12.40625 C 12.332031 -11.78125 13.113281 -10.953125 13.65625 -9.921875 C 14.195312 -8.898438 14.46875 -7.796875 14.46875 -6.609375 C 14.46875 -6.410156 14.457031 -6.207031 14.4375 -6 C 14.425781 -5.789062 14.410156 -5.617188 14.390625 -5.484375 L 4.25 -5.484375 C 4.320312 -4.816406 4.519531 -4.234375 4.84375 -3.734375 C 5.164062 -3.234375 5.582031 -2.851562 6.09375 -2.59375 C 6.601562 -2.332031 7.148438 -2.203125 7.734375 -2.203125 C 8.398438 -2.203125 9.03125 -2.363281 9.625 -2.6875 C 10.21875 -3.007812 10.625 -3.441406 10.84375 -3.984375 L 13.71875 -3.171875 C 13.394531 -2.503906 12.9375 -1.910156 12.34375 -1.390625 C 11.757812 -0.878906 11.066406 -0.476562 10.265625 -0.1875 C 9.460938 0.101562 8.578125 0.25 7.609375 0.25 Z M 4.1875 -7.609375 L 11.03125 -7.609375 C 10.96875 -8.273438 10.78125 -8.851562 10.46875 -9.34375 C 10.164062 -9.84375 9.765625 -10.226562 9.265625 -10.5 C 8.765625 -10.769531 8.203125 -10.90625 7.578125 -10.90625 C 6.984375 -10.90625 6.4375 -10.769531 5.9375 -10.5 C 5.445312 -10.226562 5.046875 -9.84375 4.734375 -9.34375 C 4.429688 -8.851562 4.25 -8.273438 4.1875 -7.609375 Z M 4.1875 -7.609375 "/></g></g></g></svg>