<svg xmlns="http://www.w3.org/2000/svg" xmlns:xlink="http://www.w3.org/1999/xlink" width="500" zoomAndPan="magnify" viewBox="0 0 375 374.999991" height="500" preserveAspectRatio="xMidYMid meet" version="1.0"><defs><clipPath id="a31bccc41d"><path d="M 120 181 L 372.324219 181 L 372.324219 310.601562 L 120 310.601562 Z M 120 181 " clip-rule="nonzero"/></clipPath><clipPath id="a29539be06"><path d="M 6 196 L 191 196 L 191 310.601562 L 6 310.601562 Z M 6 196 " clip-rule="nonzero"/></clipPath><clipPath id="cbc4389557"><path d="M 31 283 L 79 283 L 79 310.601562 L 31 310.601562 Z M 31 283 " clip-rule="nonzero"/></clipPath></defs><g clip-path="url(#a31bccc41d)"><path fill="#ffffff" d="M 120.511719 181.800781 L 372.125 181.800781 L 372.125 310.097656 L 120.511719 310.097656 Z M 120.511719 181.800781 " fill-opacity="1" fill-rule="nonzero"/><path fill="#000000" d="M 372.125 310.390625 L 120.511719 310.390625 C 120.351562 310.390625 120.214844 310.257812 120.214844 310.097656 L 120.214844 181.800781 C 120.214844 181.640625 120.351562 181.507812 120.511719 181.507812 L 372.125 181.507812 C 372.285156 181.507812 372.417969 181.640625 372.417969 181.800781 L 372.417969 310.097656 C 372.417969 310.257812 372.285156 310.390625 372.125 310.390625 Z M 120.804688 309.800781 L 371.832031 309.800781 L 371.832031 182.097656 L 120.804688 182.097656 Z M 120.804688 309.800781 " fill-opacity="1" fill-rule="nonzero"/></g><path fill="#ffffff" d="M 320.449219 255.171875 L 320.449219 213.535156 C 297.59375 213.535156 279.066406 232.183594 279.066406 255.171875 C 279.066406 278.164062 297.59375 296.808594 320.449219 296.808594 C 343.304688 296.808594 361.832031 278.164062 361.832031 255.171875 C 361.832031 248.222656 360.136719 241.671875 357.140625 235.910156 Z M 320.449219 255.171875 " fill-opacity="1" fill-rule="nonzero"/><path fill="#e2eaff" d="M 357.140625 235.910156 L 320.449219 213.535156 C 297.59375 213.535156 279.066406 232.183594 279.066406 255.171875 C 279.066406 278.164062 297.59375 296.808594 320.449219 296.808594 C 343.304688 296.808594 361.832031 278.164062 361.832031 255.171875 C 361.832031 248.222656 360.136719 241.671875 357.140625 235.910156 Z M 357.140625 235.910156 " fill-opacity="1" fill-rule="nonzero"/><path fill="#475be8" d="M 357.140625 235.910156 C 350.230469 222.609375 336.394531 213.535156 320.449219 213.535156 L 320.449219 255.171875 Z M 357.140625 235.910156 " fill-opacity="1" fill-rule="nonzero"/><path fill="#ffffff" d="M 340.324219 255.171875 C 340.324219 255.824219 340.292969 256.472656 340.230469 257.121094 C 340.167969 257.769531 340.070312 258.410156 339.945312 259.050781 C 339.816406 259.6875 339.660156 260.320312 339.46875 260.941406 C 339.28125 261.566406 339.0625 262.175781 338.8125 262.777344 C 338.5625 263.378906 338.285156 263.96875 337.980469 264.542969 C 337.671875 265.117188 337.335938 265.675781 336.976562 266.214844 C 336.613281 266.757812 336.226562 267.277344 335.8125 267.78125 C 335.402344 268.285156 334.964844 268.765625 334.503906 269.226562 C 334.042969 269.6875 333.5625 270.125 333.058594 270.535156 C 332.554688 270.949219 332.035156 271.335938 331.492188 271.699219 C 330.949219 272.0625 330.394531 272.394531 329.820312 272.703125 C 329.246094 273.007812 328.65625 273.285156 328.054688 273.535156 C 327.453125 273.785156 326.84375 274.003906 326.21875 274.191406 C 325.597656 274.382812 324.964844 274.539062 324.328125 274.667969 C 323.6875 274.792969 323.046875 274.890625 322.398438 274.953125 C 321.75 275.015625 321.101562 275.046875 320.449219 275.046875 C 319.796875 275.046875 319.148438 275.015625 318.5 274.953125 C 317.851562 274.890625 317.210938 274.792969 316.570312 274.667969 C 315.933594 274.539062 315.300781 274.382812 314.679688 274.191406 C 314.058594 274.003906 313.445312 273.785156 312.84375 273.535156 C 312.242188 273.285156 311.652344 273.007812 311.078125 272.703125 C 310.503906 272.394531 309.949219 272.0625 309.40625 271.699219 C 308.867188 271.335938 308.34375 270.949219 307.839844 270.535156 C 307.335938 270.125 306.855469 269.6875 306.394531 269.226562 C 305.933594 268.765625 305.496094 268.285156 305.085938 267.78125 C 304.671875 267.277344 304.285156 266.757812 303.921875 266.214844 C 303.5625 265.675781 303.226562 265.117188 302.921875 264.542969 C 302.613281 263.96875 302.335938 263.378906 302.085938 262.777344 C 301.835938 262.175781 301.617188 261.566406 301.429688 260.941406 C 301.238281 260.320312 301.082031 259.6875 300.953125 259.050781 C 300.828125 258.410156 300.734375 257.769531 300.667969 257.121094 C 300.605469 256.472656 300.574219 255.824219 300.574219 255.171875 C 300.574219 254.519531 300.605469 253.871094 300.667969 253.222656 C 300.734375 252.578125 300.828125 251.933594 300.953125 251.292969 C 301.082031 250.65625 301.238281 250.027344 301.429688 249.402344 C 301.617188 248.78125 301.835938 248.167969 302.085938 247.566406 C 302.335938 246.964844 302.613281 246.375 302.921875 245.804688 C 303.226562 245.230469 303.5625 244.671875 303.921875 244.128906 C 304.285156 243.589844 304.671875 243.066406 305.085938 242.5625 C 305.496094 242.058594 305.933594 241.578125 306.394531 241.117188 C 306.855469 240.65625 307.335938 240.222656 307.839844 239.808594 C 308.34375 239.394531 308.867188 239.007812 309.40625 238.644531 C 309.949219 238.285156 310.503906 237.949219 311.078125 237.644531 C 311.652344 237.335938 312.242188 237.058594 312.84375 236.808594 C 313.445312 236.558594 314.058594 236.339844 314.679688 236.152344 C 315.300781 235.964844 315.933594 235.804688 316.570312 235.679688 C 317.210938 235.550781 317.851562 235.457031 318.5 235.390625 C 319.148438 235.328125 319.796875 235.296875 320.449219 235.296875 C 321.101562 235.296875 321.75 235.328125 322.398438 235.390625 C 323.046875 235.457031 323.6875 235.550781 324.328125 235.679688 C 324.964844 235.804688 325.597656 235.964844 326.21875 236.152344 C 326.84375 236.339844 327.453125 236.558594 328.054688 236.808594 C 328.65625 237.058594 329.246094 237.335938 329.820312 237.644531 C 330.394531 237.949219 330.949219 238.285156 331.492188 238.644531 C 332.035156 239.007812 332.554688 239.394531 333.058594 239.808594 C 333.5625 240.222656 334.042969 240.65625 334.503906 241.117188 C 334.964844 241.578125 335.402344 242.058594 335.8125 242.5625 C 336.226562 243.066406 336.613281 243.589844 336.976562 244.128906 C 337.335938 244.671875 337.671875 245.230469 337.980469 245.804688 C 338.285156 246.375 338.5625 246.964844 338.8125 247.566406 C 339.0625 248.167969 339.28125 248.78125 339.46875 249.402344 C 339.660156 250.027344 339.816406 250.65625 339.945312 251.292969 C 340.070312 251.933594 340.167969 252.578125 340.230469 253.222656 C 340.292969 253.871094 340.324219 254.519531 340.324219 255.171875 Z M 340.324219 255.171875 " fill-opacity="1" fill-rule="nonzero"/><path fill="#000000" d="M 360.015625 202.988281 L 279.066406 202.988281 C 278.90625 202.988281 278.773438 202.855469 278.773438 202.695312 L 278.773438 189.554688 C 278.773438 189.394531 278.90625 189.261719 279.066406 189.261719 L 360.015625 189.261719 C 360.175781 189.261719 360.308594 189.394531 360.308594 189.554688 L 360.308594 202.695312 C 360.308594 202.867188 360.175781 202.988281 360.015625 202.988281 Z M 279.359375 202.402344 L 359.722656 202.402344 L 359.722656 189.847656 L 279.359375 189.847656 Z M 279.359375 202.402344 " fill-opacity="1" fill-rule="nonzero"/><path fill="#e2eaff" d="M 208.488281 250.640625 L 218.007812 250.640625 L 218.007812 285.714844 L 208.488281 285.714844 Z M 208.488281 250.640625 " fill-opacity="1" fill-rule="nonzero"/><path fill="#e2eaff" d="M 224.449219 239.988281 L 233.964844 239.988281 L 233.964844 285.714844 L 224.449219 285.714844 Z M 224.449219 239.988281 " fill-opacity="1" fill-rule="nonzero"/><path fill="#e2eaff" d="M 240.410156 224.1875 L 249.925781 224.1875 L 249.925781 285.714844 L 240.410156 285.714844 Z M 240.410156 224.1875 " fill-opacity="1" fill-rule="nonzero"/><path fill="#e2eaff" d="M 256.371094 250.640625 L 265.886719 250.640625 L 265.886719 285.714844 L 256.371094 285.714844 Z M 256.371094 250.640625 " fill-opacity="1" fill-rule="nonzero"/><path fill="#000000" d="M 218.007812 297.105469 L 208.488281 297.105469 C 208.328125 297.105469 208.195312 296.96875 208.195312 296.808594 L 208.195312 213.082031 C 208.195312 212.921875 208.328125 212.785156 208.488281 212.785156 L 218.007812 212.785156 C 218.167969 212.785156 218.300781 212.921875 218.300781 213.082031 L 218.300781 296.824219 C 218.300781 296.984375 218.167969 297.105469 218.007812 297.105469 Z M 208.785156 296.527344 L 217.710938 296.527344 L 217.710938 213.375 L 208.785156 213.375 Z M 208.785156 296.527344 " fill-opacity="1" fill-rule="nonzero"/><path fill="#000000" d="M 233.964844 297.105469 L 224.449219 297.105469 C 224.289062 297.105469 224.15625 296.96875 224.15625 296.808594 L 224.15625 213.082031 C 224.15625 212.921875 224.289062 212.785156 224.449219 212.785156 L 233.964844 212.785156 C 234.128906 212.785156 234.261719 212.921875 234.261719 213.082031 L 234.261719 296.824219 C 234.261719 296.984375 234.128906 297.105469 233.964844 297.105469 Z M 224.742188 296.527344 L 233.671875 296.527344 L 233.671875 213.375 L 224.742188 213.375 Z M 224.742188 296.527344 " fill-opacity="1" fill-rule="nonzero"/><path fill="#000000" d="M 249.925781 297.105469 L 240.410156 297.105469 C 240.25 297.105469 240.117188 296.96875 240.117188 296.808594 L 240.117188 213.082031 C 240.117188 212.921875 240.25 212.785156 240.410156 212.785156 L 249.925781 212.785156 C 250.085938 212.785156 250.21875 212.921875 250.21875 213.082031 L 250.21875 296.824219 C 250.21875 296.984375 250.085938 297.105469 249.925781 297.105469 Z M 240.703125 296.527344 L 249.632812 296.527344 L 249.632812 213.375 L 240.703125 213.375 Z M 240.703125 296.527344 " fill-opacity="1" fill-rule="nonzero"/><path fill="#000000" d="M 265.886719 297.105469 L 256.371094 297.105469 C 256.207031 297.105469 256.074219 296.96875 256.074219 296.808594 L 256.074219 213.082031 C 256.074219 212.921875 256.207031 212.785156 256.371094 212.785156 L 265.886719 212.785156 C 266.046875 212.785156 266.179688 212.921875 266.179688 213.082031 L 266.179688 296.824219 C 266.179688 296.984375 266.046875 297.105469 265.886719 297.105469 Z M 256.664062 296.527344 L 265.59375 296.527344 L 265.59375 213.375 L 256.664062 213.375 Z M 256.664062 296.527344 " fill-opacity="1" fill-rule="nonzero"/><path fill="#ffffff" d="M 143.824219 203.15625 L 143.824219 128.960938 L 265.59375 128.960938 L 265.59375 203.15625 Z M 143.824219 203.15625 " fill-opacity="1" fill-rule="nonzero"/><path fill="#000000" d="M 265.605469 203.457031 L 143.820312 203.457031 C 143.660156 203.457031 143.527344 203.324219 143.527344 203.164062 L 143.527344 128.964844 C 143.527344 128.804688 143.660156 128.667969 143.820312 128.667969 L 265.605469 128.667969 C 265.765625 128.667969 265.898438 128.804688 265.898438 128.964844 L 265.898438 203.164062 C 265.898438 203.324219 265.765625 203.457031 265.605469 203.457031 Z M 144.117188 202.867188 L 265.3125 202.867188 L 265.3125 129.257812 L 144.117188 129.257812 Z M 144.117188 202.867188 " fill-opacity="1" fill-rule="nonzero"/><path fill="#000000" d="M 256.195312 144.253906 L 153.230469 144.253906 C 153.070312 144.253906 152.9375 144.121094 152.9375 143.960938 C 152.9375 143.800781 153.070312 143.667969 153.230469 143.667969 L 256.195312 143.667969 C 256.355469 143.667969 256.488281 143.800781 256.488281 143.960938 C 256.488281 144.121094 256.355469 144.253906 256.195312 144.253906 Z M 256.195312 144.253906 " fill-opacity="1" fill-rule="nonzero"/><path fill="#ffffff" d="M 182.296875 140.933594 C 182.707031 141.105469 183.074219 141.347656 183.386719 141.664062 C 183.703125 141.980469 183.949219 142.34375 184.117188 142.757812 C 184.289062 143.167969 184.375 143.597656 184.375 144.046875 C 184.375 144.492188 184.289062 144.921875 184.117188 145.335938 C 183.949219 145.746094 183.703125 146.109375 183.386719 146.425781 C 183.074219 146.742188 182.707031 146.984375 182.296875 147.15625 C 181.882812 147.328125 181.453125 147.414062 181.007812 147.414062 C 180.558594 147.414062 180.128906 147.328125 179.71875 147.15625 C 179.304688 146.984375 178.941406 146.742188 178.625 146.425781 C 178.308594 146.109375 178.066406 145.746094 177.894531 145.335938 C 177.722656 144.921875 177.636719 144.492188 177.636719 144.046875 C 177.636719 143.597656 177.722656 143.167969 177.894531 142.757812 C 178.066406 142.34375 178.308594 141.980469 178.625 141.664062 C 178.941406 141.347656 179.304688 141.105469 179.71875 140.933594 C 180.128906 140.761719 180.558594 140.675781 181.007812 140.675781 C 181.453125 140.675781 181.882812 140.761719 182.296875 140.933594 Z M 182.296875 140.933594 " fill-opacity="1" fill-rule="nonzero"/><path fill="#000000" d="M 181.007812 147.71875 C 178.988281 147.71875 177.34375 146.074219 177.34375 144.054688 C 177.34375 142.035156 178.988281 140.390625 181.007812 140.390625 C 183.027344 140.390625 184.671875 142.035156 184.671875 144.054688 C 184.683594 146.074219 183.039062 147.71875 181.007812 147.71875 Z M 181.007812 140.96875 C 179.308594 140.96875 177.933594 142.34375 177.933594 144.042969 C 177.933594 145.738281 179.308594 147.117188 181.007812 147.117188 C 182.707031 147.117188 184.082031 145.738281 184.082031 144.042969 C 184.09375 142.34375 182.707031 140.96875 181.007812 140.96875 Z M 181.007812 140.96875 " fill-opacity="1" fill-rule="nonzero"/><path fill="#000000" d="M 256.195312 158.8125 L 153.230469 158.8125 C 153.070312 158.8125 152.9375 158.679688 152.9375 158.519531 C 152.9375 158.355469 153.070312 158.222656 153.230469 158.222656 L 256.195312 158.222656 C 256.355469 158.222656 256.488281 158.355469 256.488281 158.519531 C 256.488281 158.679688 256.355469 158.8125 256.195312 158.8125 Z M 256.195312 158.8125 " fill-opacity="1" fill-rule="nonzero"/><path fill="#ffffff" d="M 231.867188 155.136719 C 230.011719 155.136719 228.5 156.644531 228.5 158.503906 C 228.5 160.363281 230.011719 161.871094 231.867188 161.871094 C 233.726562 161.871094 235.238281 160.363281 235.238281 158.503906 C 235.25 156.644531 233.738281 155.136719 231.867188 155.136719 Z M 231.867188 155.136719 " fill-opacity="1" fill-rule="nonzero"/><path fill="#000000" d="M 231.867188 162.179688 C 229.851562 162.179688 228.207031 160.535156 228.207031 158.519531 C 228.207031 156.5 229.851562 154.855469 231.867188 154.855469 C 233.886719 154.855469 235.53125 156.5 235.53125 158.519531 C 235.542969 160.535156 233.898438 162.179688 231.867188 162.179688 Z M 231.867188 155.441406 C 230.171875 155.441406 228.792969 156.820312 228.792969 158.519531 C 228.792969 160.214844 230.171875 161.59375 231.867188 161.59375 C 233.566406 161.59375 234.941406 160.214844 234.941406 158.519531 C 234.957031 156.820312 233.566406 155.441406 231.867188 155.441406 Z M 231.867188 155.441406 " fill-opacity="1" fill-rule="nonzero"/><path fill="#000000" d="M 256.195312 173.367188 L 153.230469 173.367188 C 153.070312 173.367188 152.9375 173.234375 152.9375 173.074219 C 152.9375 172.914062 153.070312 172.78125 153.230469 172.78125 L 256.195312 172.78125 C 256.355469 172.78125 256.488281 172.914062 256.488281 173.074219 C 256.488281 173.234375 256.355469 173.367188 256.195312 173.367188 Z M 256.195312 173.367188 " fill-opacity="1" fill-rule="nonzero"/><path fill="#ffffff" d="M 204.800781 169.785156 C 202.941406 169.785156 201.433594 171.296875 201.433594 173.152344 C 201.433594 175.011719 202.941406 176.523438 204.800781 176.523438 C 206.660156 176.523438 208.167969 175.011719 208.167969 173.152344 C 208.167969 171.296875 206.660156 169.785156 204.800781 169.785156 Z M 204.800781 169.785156 " fill-opacity="1" fill-rule="nonzero"/><path fill="#000000" d="M 204.800781 176.832031 C 202.78125 176.832031 201.136719 175.1875 201.136719 173.167969 C 201.136719 171.148438 202.78125 169.503906 204.800781 169.503906 C 206.820312 169.503906 208.464844 171.148438 208.464844 173.167969 C 208.464844 175.1875 206.820312 176.832031 204.800781 176.832031 Z M 204.800781 170.078125 C 203.101562 170.078125 201.726562 171.457031 201.726562 173.152344 C 201.726562 174.851562 203.101562 176.230469 204.800781 176.230469 C 206.5 176.230469 207.875 174.851562 207.875 173.152344 C 207.875 171.457031 206.5 170.078125 204.800781 170.078125 Z M 204.800781 170.078125 " fill-opacity="1" fill-rule="nonzero"/><path fill="#000000" d="M 256.195312 187.925781 L 153.230469 187.925781 C 153.070312 187.925781 152.9375 187.789062 152.9375 187.628906 C 152.9375 187.46875 153.070312 187.335938 153.230469 187.335938 L 256.195312 187.335938 C 256.355469 187.335938 256.488281 187.46875 256.488281 187.628906 C 256.488281 187.789062 256.355469 187.925781 256.195312 187.925781 Z M 256.195312 187.925781 " fill-opacity="1" fill-rule="nonzero"/><path fill="#ffffff" d="M 238.523438 184.34375 C 236.667969 184.34375 235.15625 185.851562 235.15625 187.710938 C 235.15625 189.570312 236.667969 191.078125 238.523438 191.078125 C 240.382812 191.078125 241.894531 189.570312 241.894531 187.710938 C 241.90625 185.851562 240.394531 184.34375 238.523438 184.34375 Z M 238.523438 184.34375 " fill-opacity="1" fill-rule="nonzero"/><path fill="#000000" d="M 238.523438 191.386719 C 236.507812 191.386719 234.863281 189.742188 234.863281 187.722656 C 234.863281 185.707031 236.507812 184.0625 238.523438 184.0625 C 240.542969 184.0625 242.1875 185.707031 242.1875 187.722656 C 242.199219 189.742188 240.554688 191.386719 238.523438 191.386719 Z M 238.523438 184.636719 C 236.828125 184.636719 235.449219 186.011719 235.449219 187.710938 C 235.449219 189.40625 236.828125 190.785156 238.523438 190.785156 C 240.222656 190.785156 241.597656 189.40625 241.597656 187.710938 C 241.613281 186.011719 240.222656 184.636719 238.523438 184.636719 Z M 238.523438 184.636719 " fill-opacity="1" fill-rule="nonzero"/><path fill="#ffffff" d="M 365.214844 109.6875 C 365.214844 111.117188 365.144531 112.542969 365.003906 113.964844 C 364.863281 115.386719 364.65625 116.796875 364.375 118.199219 C 364.097656 119.597656 363.75 120.984375 363.335938 122.351562 C 362.921875 123.71875 362.4375 125.058594 361.890625 126.378906 C 361.34375 127.699219 360.734375 128.988281 360.0625 130.25 C 359.386719 131.507812 358.652344 132.734375 357.859375 133.921875 C 357.066406 135.109375 356.214844 136.253906 355.308594 137.359375 C 354.402344 138.460938 353.441406 139.519531 352.433594 140.53125 C 351.421875 141.539062 350.363281 142.5 349.257812 143.40625 C 348.152344 144.3125 347.007812 145.160156 345.820312 145.953125 C 344.628906 146.746094 343.40625 147.480469 342.144531 148.15625 C 340.882812 148.828125 339.59375 149.4375 338.273438 149.984375 C 336.953125 150.53125 335.609375 151.011719 334.242188 151.425781 C 332.875 151.839844 331.488281 152.1875 330.085938 152.464844 C 328.683594 152.746094 327.273438 152.953125 325.851562 153.09375 C 324.425781 153.234375 323 153.304688 321.570312 153.304688 C 320.144531 153.304688 318.71875 153.234375 317.292969 153.09375 C 315.871094 152.953125 314.460938 152.746094 313.058594 152.464844 C 311.65625 152.1875 310.269531 151.839844 308.902344 151.425781 C 307.535156 151.011719 306.191406 150.53125 304.871094 149.984375 C 303.550781 149.4375 302.261719 148.828125 301 148.15625 C 299.738281 147.480469 298.515625 146.746094 297.324219 145.953125 C 296.136719 145.160156 294.992188 144.3125 293.886719 143.40625 C 292.78125 142.5 291.722656 141.539062 290.710938 140.53125 C 289.703125 139.519531 288.742188 138.460938 287.835938 137.359375 C 286.929688 136.253906 286.078125 135.109375 285.285156 133.921875 C 284.492188 132.734375 283.757812 131.507812 283.082031 130.25 C 282.410156 128.988281 281.800781 127.699219 281.25 126.378906 C 280.703125 125.058594 280.222656 123.71875 279.808594 122.351562 C 279.394531 120.984375 279.046875 119.597656 278.769531 118.199219 C 278.488281 116.796875 278.28125 115.386719 278.140625 113.964844 C 278 112.542969 277.929688 111.117188 277.929688 109.6875 C 277.929688 108.261719 278 106.835938 278.140625 105.414062 C 278.28125 103.992188 278.488281 102.582031 278.769531 101.179688 C 279.046875 99.777344 279.394531 98.394531 279.808594 97.027344 C 280.222656 95.660156 280.703125 94.316406 281.25 93 C 281.800781 91.679688 282.410156 90.386719 283.082031 89.128906 C 283.757812 87.867188 284.492188 86.644531 285.285156 85.457031 C 286.078125 84.269531 286.929688 83.125 287.835938 82.019531 C 288.742188 80.914062 289.703125 79.859375 290.710938 78.847656 C 291.722656 77.839844 292.78125 76.878906 293.886719 75.972656 C 294.992188 75.066406 296.136719 74.21875 297.324219 73.425781 C 298.515625 72.628906 299.738281 71.898438 301 71.222656 C 302.261719 70.550781 303.550781 69.941406 304.871094 69.394531 C 306.191406 68.847656 307.535156 68.367188 308.902344 67.953125 C 310.269531 67.535156 311.65625 67.191406 313.058594 66.910156 C 314.460938 66.632812 315.871094 66.421875 317.292969 66.285156 C 318.71875 66.144531 320.144531 66.074219 321.570312 66.074219 C 323 66.074219 324.425781 66.144531 325.851562 66.285156 C 327.273438 66.421875 328.683594 66.632812 330.085938 66.910156 C 331.488281 67.191406 332.875 67.535156 334.242188 67.953125 C 335.609375 68.367188 336.953125 68.847656 338.273438 69.394531 C 339.59375 69.941406 340.882812 70.550781 342.144531 71.222656 C 343.40625 71.898438 344.628906 72.628906 345.820312 73.425781 C 347.007812 74.21875 348.152344 75.066406 349.257812 75.972656 C 350.363281 76.878906 351.421875 77.839844 352.433594 78.847656 C 353.441406 79.859375 354.402344 80.914062 355.308594 82.019531 C 356.214844 83.125 357.066406 84.269531 357.859375 85.457031 C 358.652344 86.644531 359.386719 87.867188 360.0625 89.128906 C 360.734375 90.386719 361.34375 91.679688 361.890625 93 C 362.4375 94.316406 362.921875 95.660156 363.335938 97.027344 C 363.75 98.394531 364.097656 99.777344 364.375 101.179688 C 364.65625 102.582031 364.863281 103.992188 365.003906 105.414062 C 365.144531 106.835938 365.214844 108.261719 365.214844 109.6875 Z M 365.214844 109.6875 " fill-opacity="1" fill-rule="nonzero"/><path fill="#475be8" d="M 321.570312 153.613281 C 297.351562 153.613281 277.636719 133.910156 277.636719 109.703125 C 277.636719 85.496094 297.351562 65.78125 321.570312 65.78125 C 345.792969 65.78125 365.507812 85.480469 365.507812 109.6875 C 365.507812 133.894531 345.804688 153.613281 321.570312 153.613281 Z M 321.570312 66.367188 C 297.671875 66.367188 278.222656 85.804688 278.222656 109.6875 C 278.222656 133.574219 297.671875 153.011719 321.570312 153.011719 C 345.472656 153.011719 364.921875 133.574219 364.921875 109.6875 C 364.921875 85.804688 345.472656 66.367188 321.570312 66.367188 Z M 321.570312 66.367188 " fill-opacity="1" fill-rule="nonzero"/><path fill="#ffffff" d="M 355.882812 109.6875 C 355.882812 110.8125 355.828125 111.933594 355.71875 113.050781 C 355.609375 114.167969 355.445312 115.277344 355.226562 116.378906 C 355.007812 117.480469 354.734375 118.570312 354.40625 119.644531 C 354.082031 120.71875 353.703125 121.777344 353.273438 122.816406 C 352.84375 123.851562 352.363281 124.867188 351.832031 125.859375 C 351.304688 126.847656 350.726562 127.8125 350.101562 128.746094 C 349.476562 129.679688 348.808594 130.578125 348.097656 131.449219 C 347.382812 132.316406 346.628906 133.148438 345.835938 133.941406 C 345.039062 134.738281 344.207031 135.488281 343.339844 136.203125 C 342.472656 136.914062 341.570312 137.582031 340.636719 138.207031 C 339.699219 138.832031 338.738281 139.410156 337.746094 139.9375 C 336.753906 140.46875 335.742188 140.949219 334.703125 141.378906 C 333.664062 141.808594 332.609375 142.183594 331.53125 142.511719 C 330.457031 142.835938 329.367188 143.109375 328.265625 143.328125 C 327.164062 143.546875 326.054688 143.710938 324.933594 143.824219 C 323.816406 143.933594 322.695312 143.988281 321.570312 143.988281 C 320.449219 143.988281 319.328125 143.933594 318.210938 143.824219 C 317.089844 143.710938 315.980469 143.546875 314.878906 143.328125 C 313.777344 143.109375 312.6875 142.835938 311.613281 142.511719 C 310.535156 142.183594 309.480469 141.808594 308.441406 141.378906 C 307.402344 140.949219 306.386719 140.46875 305.398438 139.9375 C 304.40625 139.410156 303.445312 138.832031 302.507812 138.207031 C 301.574219 137.582031 300.671875 136.914062 299.804688 136.203125 C 298.9375 135.488281 298.105469 134.738281 297.308594 133.941406 C 296.515625 133.148438 295.761719 132.316406 295.046875 131.449219 C 294.335938 130.578125 293.667969 129.679688 293.042969 128.746094 C 292.417969 127.8125 291.839844 126.847656 291.3125 125.859375 C 290.78125 124.867188 290.300781 123.851562 289.871094 122.816406 C 289.441406 121.777344 289.0625 120.71875 288.738281 119.644531 C 288.410156 118.570312 288.136719 117.480469 287.917969 116.378906 C 287.699219 115.277344 287.535156 114.167969 287.425781 113.050781 C 287.316406 111.933594 287.261719 110.8125 287.261719 109.6875 C 287.261719 108.566406 287.316406 107.445312 287.425781 106.328125 C 287.535156 105.210938 287.699219 104.097656 287.917969 102.996094 C 288.136719 101.894531 288.410156 100.808594 288.738281 99.734375 C 289.0625 98.65625 289.441406 97.601562 289.871094 96.5625 C 290.300781 95.527344 290.78125 94.511719 291.3125 93.519531 C 291.839844 92.53125 292.417969 91.566406 293.042969 90.632812 C 293.667969 89.699219 294.335938 88.796875 295.046875 87.929688 C 295.761719 87.0625 296.515625 86.230469 297.308594 85.4375 C 298.105469 84.640625 298.9375 83.886719 299.804688 83.175781 C 300.671875 82.464844 301.574219 81.792969 302.507812 81.171875 C 303.445312 80.546875 304.40625 79.96875 305.398438 79.441406 C 306.386719 78.910156 307.402344 78.429688 308.441406 78 C 309.480469 77.570312 310.535156 77.191406 311.613281 76.867188 C 312.6875 76.539062 313.777344 76.269531 314.878906 76.050781 C 315.980469 75.828125 317.089844 75.664062 318.210938 75.554688 C 319.328125 75.445312 320.449219 75.390625 321.570312 75.390625 C 322.695312 75.390625 323.816406 75.445312 324.933594 75.554688 C 326.054688 75.664062 327.164062 75.828125 328.265625 76.050781 C 329.367188 76.269531 330.457031 76.539062 331.53125 76.867188 C 332.609375 77.191406 333.664062 77.570312 334.703125 78 C 335.742188 78.429688 336.753906 78.910156 337.746094 79.441406 C 338.738281 79.96875 339.699219 80.546875 340.636719 81.171875 C 341.570312 81.792969 342.472656 82.464844 343.339844 83.175781 C 344.207031 83.886719 345.039062 84.640625 345.835938 85.4375 C 346.628906 86.230469 347.382812 87.0625 348.097656 87.929688 C 348.808594 88.796875 349.476562 89.699219 350.101562 90.632812 C 350.726562 91.566406 351.304688 92.53125 351.832031 93.519531 C 352.363281 94.511719 352.84375 95.527344 353.273438 96.5625 C 353.703125 97.601562 354.082031 98.65625 354.40625 99.734375 C 354.734375 100.808594 355.007812 101.894531 355.226562 102.996094 C 355.445312 104.097656 355.609375 105.210938 355.71875 106.328125 C 355.828125 107.445312 355.882812 108.566406 355.882812 109.6875 Z M 355.882812 109.6875 " fill-opacity="1" fill-rule="nonzero"/><path fill="#475be8" d="M 321.570312 144.28125 C 302.496094 144.28125 286.964844 128.761719 286.964844 109.6875 C 286.964844 90.613281 302.484375 75.097656 321.570312 75.097656 C 340.648438 75.097656 356.179688 90.613281 356.179688 109.6875 C 356.179688 128.761719 340.660156 144.28125 321.570312 144.28125 Z M 321.570312 75.699219 C 302.820312 75.699219 287.554688 90.949219 287.554688 109.703125 C 287.554688 128.457031 302.820312 143.707031 321.570312 143.707031 C 340.324219 143.707031 355.589844 128.457031 355.589844 109.703125 C 355.589844 90.949219 340.339844 75.699219 321.570312 75.699219 Z M 321.570312 75.699219 " fill-opacity="1" fill-rule="nonzero"/><path fill="#ffffff" d="M 338.921875 109.6875 C 338.921875 111.117188 338.851562 112.542969 338.710938 113.964844 C 338.570312 115.386719 338.363281 116.796875 338.082031 118.199219 C 337.804688 119.597656 337.457031 120.984375 337.042969 122.351562 C 336.628906 123.71875 336.148438 125.058594 335.601562 126.378906 C 335.054688 127.699219 334.441406 128.988281 333.769531 130.25 C 333.09375 131.507812 332.359375 132.734375 331.566406 133.921875 C 330.773438 135.109375 329.921875 136.253906 329.015625 137.359375 C 328.109375 138.460938 327.148438 139.519531 326.140625 140.53125 C 325.128906 141.539062 324.070312 142.5 322.964844 143.40625 C 321.863281 144.3125 320.714844 145.160156 319.527344 145.953125 C 318.335938 146.746094 317.113281 147.480469 315.851562 148.15625 C 314.59375 148.828125 313.300781 149.4375 311.980469 149.984375 C 310.660156 150.53125 309.316406 151.011719 307.949219 151.425781 C 306.582031 151.839844 305.195312 152.1875 303.792969 152.464844 C 302.390625 152.746094 300.980469 152.953125 299.558594 153.09375 C 298.136719 153.234375 296.710938 153.304688 295.28125 153.304688 C 293.851562 153.304688 292.425781 153.234375 291.003906 153.09375 C 289.578125 152.953125 288.167969 152.746094 286.765625 152.464844 C 285.363281 152.1875 283.980469 151.839844 282.609375 151.425781 C 281.242188 151.011719 279.898438 150.53125 278.578125 149.984375 C 277.257812 149.4375 275.96875 148.828125 274.707031 148.15625 C 273.445312 147.480469 272.222656 146.746094 271.035156 145.953125 C 269.84375 145.160156 268.699219 144.3125 267.59375 143.40625 C 266.488281 142.5 265.429688 141.539062 264.421875 140.53125 C 263.410156 139.519531 262.449219 138.460938 261.542969 137.359375 C 260.636719 136.253906 259.785156 135.109375 258.992188 133.921875 C 258.199219 132.734375 257.464844 131.507812 256.789062 130.25 C 256.117188 128.988281 255.507812 127.699219 254.960938 126.378906 C 254.414062 125.058594 253.933594 123.71875 253.515625 122.351562 C 253.101562 120.984375 252.753906 119.597656 252.476562 118.199219 C 252.199219 116.796875 251.988281 115.386719 251.847656 113.964844 C 251.707031 112.542969 251.636719 111.117188 251.636719 109.6875 C 251.636719 108.261719 251.707031 106.835938 251.847656 105.414062 C 251.988281 103.992188 252.199219 102.582031 252.476562 101.179688 C 252.753906 99.777344 253.101562 98.394531 253.515625 97.027344 C 253.933594 95.660156 254.414062 94.316406 254.960938 93 C 255.507812 91.679688 256.117188 90.386719 256.789062 89.128906 C 257.464844 87.867188 258.199219 86.644531 258.992188 85.457031 C 259.785156 84.269531 260.636719 83.125 261.542969 82.019531 C 262.449219 80.914062 263.410156 79.859375 264.421875 78.847656 C 265.429688 77.839844 266.488281 76.878906 267.59375 75.972656 C 268.699219 75.066406 269.84375 74.21875 271.035156 73.425781 C 272.222656 72.628906 273.445312 71.898438 274.707031 71.222656 C 275.96875 70.550781 277.257812 69.941406 278.578125 69.394531 C 279.898438 68.847656 281.242188 68.367188 282.609375 67.953125 C 283.980469 67.535156 285.363281 67.191406 286.765625 66.910156 C 288.167969 66.632812 289.578125 66.421875 291.003906 66.285156 C 292.425781 66.144531 293.851562 66.074219 295.28125 66.074219 C 296.710938 66.074219 298.136719 66.144531 299.558594 66.285156 C 300.980469 66.421875 302.390625 66.632812 303.792969 66.910156 C 305.195312 67.191406 306.582031 67.535156 307.949219 67.953125 C 309.316406 68.367188 310.660156 68.847656 311.980469 69.394531 C 313.300781 69.941406 314.59375 70.550781 315.851562 71.222656 C 317.113281 71.898438 318.335938 72.628906 319.527344 73.425781 C 320.714844 74.21875 321.863281 75.066406 322.964844 75.972656 C 324.070312 76.878906 325.128906 77.839844 326.140625 78.847656 C 327.148438 79.859375 328.109375 80.914062 329.015625 82.019531 C 329.921875 83.125 330.773438 84.269531 331.566406 85.457031 C 332.359375 86.644531 333.09375 87.867188 333.769531 89.128906 C 334.441406 90.386719 335.054688 91.679688 335.601562 93 C 336.148438 94.316406 336.628906 95.660156 337.042969 97.027344 C 337.457031 98.394531 337.804688 99.777344 338.082031 101.179688 C 338.363281 102.582031 338.570312 103.992188 338.710938 105.414062 C 338.851562 106.835938 338.921875 108.261719 338.921875 109.6875 Z M 338.921875 109.6875 " fill-opacity="1" fill-rule="nonzero"/><path fill="#475be8" d="M 295.28125 153.613281 C 271.058594 153.613281 251.34375 133.910156 251.34375 109.703125 C 251.34375 85.496094 271.058594 65.78125 295.28125 65.78125 C 319.5 65.78125 339.214844 85.480469 339.214844 109.6875 C 339.214844 133.894531 319.515625 153.613281 295.28125 153.613281 Z M 295.28125 66.367188 C 271.378906 66.367188 251.929688 85.804688 251.929688 109.6875 C 251.929688 133.574219 271.378906 153.011719 295.28125 153.011719 C 319.179688 153.011719 338.628906 133.574219 338.628906 109.6875 C 338.628906 85.804688 319.179688 66.367188 295.28125 66.367188 Z M 295.28125 66.367188 " fill-opacity="1" fill-rule="nonzero"/><path fill="#ffffff" d="M 329.59375 109.6875 C 329.59375 110.8125 329.539062 111.933594 329.425781 113.050781 C 329.316406 114.167969 329.152344 115.277344 328.933594 116.378906 C 328.714844 117.480469 328.441406 118.570312 328.113281 119.644531 C 327.789062 120.71875 327.410156 121.777344 326.980469 122.816406 C 326.550781 123.851562 326.070312 124.867188 325.539062 125.859375 C 325.011719 126.847656 324.433594 127.8125 323.808594 128.746094 C 323.183594 129.679688 322.515625 130.578125 321.804688 131.449219 C 321.089844 132.316406 320.335938 133.148438 319.542969 133.941406 C 318.746094 134.738281 317.917969 135.488281 317.046875 136.203125 C 316.179688 136.914062 315.277344 137.582031 314.34375 138.207031 C 313.410156 138.832031 312.445312 139.410156 311.453125 139.9375 C 310.464844 140.46875 309.449219 140.949219 308.410156 141.378906 C 307.371094 141.808594 306.316406 142.183594 305.238281 142.511719 C 304.164062 142.835938 303.074219 143.109375 301.972656 143.328125 C 300.871094 143.546875 299.761719 143.710938 298.644531 143.824219 C 297.523438 143.933594 296.402344 143.988281 295.28125 143.988281 C 294.15625 143.988281 293.035156 143.933594 291.917969 143.824219 C 290.796875 143.710938 289.6875 143.546875 288.585938 143.328125 C 287.484375 143.109375 286.394531 142.835938 285.320312 142.511719 C 284.242188 142.183594 283.1875 141.808594 282.148438 141.378906 C 281.109375 140.949219 280.097656 140.46875 279.105469 139.9375 C 278.113281 139.410156 277.152344 138.832031 276.21875 138.207031 C 275.28125 137.582031 274.382812 136.914062 273.511719 136.203125 C 272.644531 135.488281 271.8125 134.738281 271.015625 133.941406 C 270.222656 133.148438 269.46875 132.316406 268.757812 131.449219 C 268.042969 130.578125 267.375 129.679688 266.75 128.746094 C 266.125 127.8125 265.546875 126.847656 265.019531 125.859375 C 264.488281 124.867188 264.007812 123.851562 263.578125 122.816406 C 263.148438 121.777344 262.769531 120.71875 262.445312 119.644531 C 262.117188 118.570312 261.847656 117.480469 261.625 116.378906 C 261.40625 115.277344 261.242188 114.167969 261.132812 113.050781 C 261.023438 111.933594 260.96875 110.8125 260.96875 109.6875 C 260.96875 108.566406 261.023438 107.445312 261.132812 106.328125 C 261.242188 105.210938 261.40625 104.097656 261.625 102.996094 C 261.847656 101.894531 262.117188 100.808594 262.445312 99.734375 C 262.769531 98.65625 263.148438 97.601562 263.578125 96.5625 C 264.007812 95.527344 264.488281 94.511719 265.019531 93.519531 C 265.546875 92.53125 266.125 91.566406 266.75 90.632812 C 267.375 89.699219 268.042969 88.796875 268.757812 87.929688 C 269.46875 87.0625 270.222656 86.230469 271.015625 85.4375 C 271.8125 84.640625 272.644531 83.886719 273.511719 83.175781 C 274.382812 82.464844 275.28125 81.792969 276.21875 81.171875 C 277.152344 80.546875 278.113281 79.96875 279.105469 79.441406 C 280.097656 78.910156 281.109375 78.429688 282.148438 78 C 283.1875 77.570312 284.246094 77.191406 285.320312 76.867188 C 286.394531 76.539062 287.484375 76.269531 288.585938 76.050781 C 289.6875 75.828125 290.796875 75.664062 291.917969 75.554688 C 293.035156 75.445312 294.15625 75.390625 295.28125 75.390625 C 296.402344 75.390625 297.523438 75.445312 298.644531 75.554688 C 299.761719 75.664062 300.871094 75.828125 301.972656 76.050781 C 303.074219 76.269531 304.164062 76.539062 305.242188 76.867188 C 306.316406 77.191406 307.371094 77.570312 308.410156 78 C 309.449219 78.429688 310.464844 78.910156 311.453125 79.441406 C 312.445312 79.96875 313.410156 80.546875 314.34375 81.171875 C 315.277344 81.792969 316.179688 82.464844 317.046875 83.175781 C 317.917969 83.886719 318.746094 84.640625 319.542969 85.4375 C 320.335938 86.230469 321.089844 87.0625 321.804688 87.929688 C 322.515625 88.796875 323.183594 89.699219 323.808594 90.632812 C 324.433594 91.566406 325.011719 92.53125 325.539062 93.519531 C 326.070312 94.511719 326.550781 95.527344 326.980469 96.5625 C 327.410156 97.601562 327.789062 98.65625 328.113281 99.734375 C 328.441406 100.808594 328.714844 101.894531 328.933594 102.996094 C 329.152344 104.097656 329.316406 105.210938 329.425781 106.328125 C 329.539062 107.445312 329.59375 108.566406 329.59375 109.6875 Z M 329.59375 109.6875 " fill-opacity="1" fill-rule="nonzero"/><path fill="#475be8" d="M 295.28125 144.28125 C 276.207031 144.28125 260.671875 128.761719 260.671875 109.6875 C 260.671875 90.613281 276.191406 75.097656 295.28125 75.097656 C 314.367188 75.097656 329.886719 90.613281 329.886719 109.6875 C 329.886719 128.761719 314.367188 144.28125 295.28125 144.28125 Z M 295.28125 75.699219 C 276.527344 75.699219 261.261719 90.949219 261.261719 109.703125 C 261.261719 128.457031 276.527344 143.707031 295.28125 143.707031 C 314.035156 143.707031 329.296875 128.457031 329.296875 109.703125 C 329.296875 90.949219 314.046875 75.699219 295.28125 75.699219 Z M 295.28125 75.699219 " fill-opacity="1" fill-rule="nonzero"/><path fill="#475be8" d="M 312.628906 109.6875 C 312.628906 111.117188 312.558594 112.542969 312.417969 113.964844 C 312.28125 115.386719 312.070312 116.796875 311.792969 118.199219 C 311.511719 119.597656 311.164062 120.984375 310.75 122.351562 C 310.335938 123.71875 309.855469 125.058594 309.308594 126.378906 C 308.761719 127.699219 308.152344 128.988281 307.476562 130.25 C 306.804688 131.507812 306.070312 132.734375 305.273438 133.921875 C 304.480469 135.109375 303.628906 136.253906 302.722656 137.359375 C 301.816406 138.460938 300.859375 139.519531 299.847656 140.53125 C 298.835938 141.539062 297.777344 142.5 296.675781 143.40625 C 295.570312 144.3125 294.421875 145.160156 293.234375 145.953125 C 292.046875 146.746094 290.820312 147.480469 289.558594 148.15625 C 288.300781 148.828125 287.007812 149.4375 285.6875 149.984375 C 284.367188 150.53125 283.023438 151.011719 281.65625 151.425781 C 280.289062 151.839844 278.902344 152.1875 277.5 152.464844 C 276.101562 152.746094 274.6875 152.953125 273.265625 153.09375 C 271.84375 153.234375 270.417969 153.304688 268.988281 153.304688 C 267.558594 153.304688 266.132812 153.234375 264.710938 153.09375 C 263.289062 152.953125 261.875 152.746094 260.472656 152.464844 C 259.070312 152.1875 257.6875 151.839844 256.320312 151.425781 C 254.949219 151.011719 253.605469 150.53125 252.285156 149.984375 C 250.964844 149.4375 249.675781 148.828125 248.414062 148.15625 C 247.152344 147.480469 245.929688 146.746094 244.742188 145.953125 C 243.550781 145.160156 242.40625 144.3125 241.300781 143.40625 C 240.195312 142.5 239.136719 141.539062 238.128906 140.53125 C 237.117188 139.519531 236.160156 138.460938 235.25 137.359375 C 234.34375 136.253906 233.496094 135.109375 232.699219 133.921875 C 231.90625 132.734375 231.171875 131.507812 230.5 130.25 C 229.824219 128.988281 229.214844 127.699219 228.667969 126.378906 C 228.121094 125.058594 227.640625 123.71875 227.222656 122.351562 C 226.808594 120.984375 226.460938 119.597656 226.183594 118.199219 C 225.90625 116.796875 225.695312 115.386719 225.554688 113.964844 C 225.414062 112.542969 225.34375 111.117188 225.34375 109.6875 C 225.34375 108.261719 225.414062 106.835938 225.554688 105.414062 C 225.695312 103.992188 225.90625 102.582031 226.183594 101.179688 C 226.460938 99.777344 226.808594 98.394531 227.222656 97.027344 C 227.640625 95.660156 228.121094 94.316406 228.667969 93 C 229.214844 91.679688 229.824219 90.386719 230.5 89.128906 C 231.171875 87.867188 231.90625 86.644531 232.699219 85.457031 C 233.496094 84.269531 234.34375 83.125 235.25 82.019531 C 236.160156 80.914062 237.117188 79.859375 238.128906 78.847656 C 239.136719 77.839844 240.195312 76.878906 241.300781 75.972656 C 242.40625 75.066406 243.550781 74.21875 244.742188 73.425781 C 245.929688 72.628906 247.152344 71.898438 248.414062 71.222656 C 249.675781 70.550781 250.964844 69.941406 252.285156 69.394531 C 253.605469 68.847656 254.949219 68.367188 256.320312 67.953125 C 257.6875 67.535156 259.070312 67.191406 260.472656 66.910156 C 261.875 66.632812 263.289062 66.421875 264.710938 66.285156 C 266.132812 66.144531 267.558594 66.074219 268.988281 66.074219 C 270.417969 66.074219 271.84375 66.144531 273.265625 66.285156 C 274.6875 66.421875 276.101562 66.632812 277.5 66.910156 C 278.902344 67.191406 280.289062 67.535156 281.65625 67.953125 C 283.023438 68.367188 284.367188 68.847656 285.6875 69.394531 C 287.007812 69.941406 288.300781 70.550781 289.558594 71.222656 C 290.820312 71.898438 292.046875 72.628906 293.234375 73.425781 C 294.421875 74.21875 295.570312 75.066406 296.675781 75.972656 C 297.777344 76.878906 298.835938 77.839844 299.847656 78.847656 C 300.859375 79.859375 301.816406 80.914062 302.722656 82.019531 C 303.628906 83.125 304.480469 84.269531 305.273438 85.457031 C 306.070312 86.644531 306.804688 87.867188 307.476562 89.128906 C 308.152344 90.386719 308.761719 91.679688 309.308594 93 C 309.855469 94.316406 310.335938 95.660156 310.75 97.027344 C 311.164062 98.394531 311.511719 99.777344 311.792969 101.179688 C 312.070312 102.582031 312.28125 103.992188 312.417969 105.414062 C 312.558594 106.835938 312.628906 108.261719 312.628906 109.6875 Z M 312.628906 109.6875 " fill-opacity="1" fill-rule="nonzero"/><path fill="#ffffff" d="M 268.988281 144.28125 C 249.914062 144.28125 234.382812 128.761719 234.382812 109.6875 C 234.382812 90.613281 249.898438 75.097656 268.988281 75.097656 C 288.074219 75.097656 303.59375 90.628906 303.59375 109.6875 C 303.59375 128.75 288.074219 144.28125 268.988281 144.28125 Z M 268.988281 75.699219 C 250.234375 75.699219 234.96875 90.949219 234.96875 109.703125 C 234.96875 128.457031 250.234375 143.707031 268.988281 143.707031 C 287.742188 143.707031 303.003906 128.457031 303.003906 109.703125 C 303.003906 90.949219 287.742188 75.699219 268.988281 75.699219 Z M 268.988281 75.699219 " fill-opacity="1" fill-rule="nonzero"/><path fill="#ffffff" d="M 266.742188 136.785156 L 266.742188 130.113281 C 262.917969 130.046875 258.949219 128.855469 256.636719 127.210938 L 258.226562 122.789062 C 260.605469 124.367188 264.042969 125.621094 267.730469 125.621094 C 272.421875 125.621094 275.589844 122.921875 275.589844 119.152344 C 275.589844 115.515625 273.011719 113.285156 268.132812 111.292969 C 261.394531 108.644531 257.238281 105.613281 257.238281 99.878906 C 257.238281 94.398438 261.128906 90.242188 267.210938 89.25 L 267.210938 82.582031 L 271.300781 82.582031 L 271.300781 88.984375 C 275.257812 89.117188 277.96875 90.171875 279.882812 91.296875 L 278.222656 95.652344 C 276.832031 94.867188 274.132812 93.410156 269.910156 93.410156 C 264.832031 93.410156 262.90625 96.441406 262.90625 99.089844 C 262.90625 102.523438 265.351562 104.234375 271.085938 106.613281 C 277.890625 109.382812 281.324219 112.816406 281.324219 118.699219 C 281.324219 123.910156 277.6875 128.789062 270.898438 129.914062 L 270.898438 136.785156 Z M 266.742188 136.785156 " fill-opacity="1" fill-rule="nonzero"/><path fill="#ffffff" d="M 164.3125 234.28125 C 166.558594 237.6875 169.605469 240.496094 173.027344 242.6875 C 176.570312 244.972656 180.527344 246.617188 184.578125 247.792969 C 185.390625 248.035156 186.234375 248.25 187.050781 248.4375 C 190.925781 238.652344 194.066406 228.332031 194.066406 228.332031 C 197.648438 226.195312 198.289062 224.84375 198.289062 224.84375 C 201.804688 218.402344 197.78125 217.570312 197.78125 217.570312 C 199.199219 210.632812 193.519531 212.183594 193.519531 212.183594 C 194.507812 206.492188 188.933594 206.023438 188.933594 206.023438 C 194.910156 198.925781 196.527344 191.839844 192.890625 192.230469 C 190.082031 192.535156 177.464844 205.847656 171.839844 211.917969 C 170.058594 213.84375 168.5625 216.007812 167.402344 218.347656 L 161.839844 229.507812 C 162.496094 231.164062 163.324219 232.769531 164.3125 234.28125 Z M 164.3125 234.28125 " fill-opacity="1" fill-rule="nonzero"/><path fill="#000000" d="M 180.3125 216.757812 C 179.550781 216.757812 178.789062 216.703125 178.039062 216.609375 C 177.878906 216.582031 177.757812 216.4375 177.785156 216.273438 C 177.8125 216.113281 177.945312 215.996094 178.121094 216.019531 C 181.0625 216.410156 184.070312 216.007812 186.808594 214.886719 C 187.851562 214.457031 189.617188 213.496094 189.75 211.929688 C 189.84375 210.902344 189.121094 209.777344 188.011719 209.203125 C 186.902344 208.628906 185.605469 208.574219 184.46875 208.601562 C 180.875 208.667969 177.277344 209.550781 174.058594 211.140625 C 173.910156 211.210938 173.734375 211.15625 173.667969 211.007812 C 173.601562 210.863281 173.65625 210.6875 173.804688 210.621094 C 177.105469 208.992188 180.792969 208.09375 184.46875 208.015625 C 185.671875 207.988281 187.0625 208.054688 188.292969 208.683594 C 189.402344 209.257812 190.472656 210.5 190.335938 211.984375 C 190.175781 213.761719 188.453125 214.84375 187.035156 215.433594 C 184.898438 216.316406 182.613281 216.757812 180.3125 216.757812 Z M 180.3125 216.757812 " fill-opacity="1" fill-rule="nonzero"/><path fill="#000000" d="M 183.078125 224.761719 C 182.4375 224.761719 181.808594 224.484375 181.382812 224 C 180.886719 223.386719 180.875 222.570312 180.914062 222.007812 C 181.035156 219.84375 181.902344 217.773438 183.359375 216.15625 C 183.46875 216.035156 183.65625 216.019531 183.773438 216.128906 C 183.894531 216.234375 183.910156 216.421875 183.800781 216.542969 C 182.4375 218.054688 181.621094 220.003906 181.515625 222.035156 C 181.488281 222.503906 181.503906 223.171875 181.851562 223.628906 C 182.199219 224.015625 182.730469 224.214844 183.265625 224.160156 C 183.855469 224.09375 184.402344 223.921875 184.925781 223.640625 C 189.203125 221.488281 192.195312 217.585938 193.171875 212.90625 C 193.199219 212.746094 193.359375 212.640625 193.519531 212.679688 C 193.679688 212.707031 193.785156 212.867188 193.746094 213.027344 C 192.742188 217.878906 189.617188 221.929688 185.191406 224.148438 C 184.617188 224.46875 183.988281 224.667969 183.320312 224.738281 C 183.226562 224.761719 183.160156 224.761719 183.078125 224.761719 Z M 183.078125 224.761719 " fill-opacity="1" fill-rule="nonzero"/><path fill="#000000" d="M 188.761719 226.566406 C 188.558594 226.566406 188.359375 226.554688 188.160156 226.515625 C 187.355469 226.378906 186.582031 225.914062 186.101562 225.246094 C 185.710938 224.710938 185.550781 224.082031 185.660156 223.480469 C 185.6875 223.320312 185.832031 223.210938 185.992188 223.238281 C 186.152344 223.265625 186.261719 223.414062 186.234375 223.574219 C 186.140625 224.136719 186.367188 224.601562 186.582031 224.898438 C 186.96875 225.429688 187.597656 225.820312 188.253906 225.925781 C 189.269531 226.085938 190.40625 225.765625 191.726562 224.9375 C 194.292969 223.320312 196.257812 220.847656 197.261719 218 C 197.316406 217.851562 197.488281 217.773438 197.636719 217.824219 C 197.78125 217.878906 197.863281 218.054688 197.808594 218.199219 C 196.753906 221.179688 194.707031 223.761719 192.035156 225.445312 C 190.832031 226.195312 189.75 226.566406 188.761719 226.566406 Z M 188.761719 226.566406 " fill-opacity="1" fill-rule="nonzero"/><path fill="#000000" d="M 192.074219 229.015625 C 191.527344 229.015625 190.9375 228.894531 190.417969 228.480469 C 189.75 227.945312 189.480469 226.632812 189.871094 225.898438 C 189.949219 225.753906 190.125 225.699219 190.269531 225.777344 C 190.417969 225.859375 190.472656 226.03125 190.390625 226.179688 C 190.125 226.675781 190.335938 227.664062 190.777344 228.023438 C 191.367188 228.492188 192.101562 228.464844 192.742188 228.371094 C 194.800781 228.050781 199.734375 224.390625 199.507812 220.042969 C 199.441406 218.828125 198.890625 218.105469 197.875 217.90625 C 197.742188 217.878906 197.636719 217.757812 197.636719 217.613281 C 197.636719 217.34375 197.648438 217.078125 197.664062 216.796875 C 197.703125 215.660156 197.742188 214.496094 197.15625 213.496094 C 196.40625 212.507812 194.949219 211.8125 193.707031 212.453125 C 193.613281 212.507812 193.492188 212.492188 193.398438 212.425781 C 193.304688 212.359375 193.265625 212.25 193.277344 212.144531 C 193.53125 210.660156 193.238281 209.257812 192.421875 208.1875 C 191.632812 207.132812 190.390625 206.476562 188.933594 206.316406 C 188.828125 206.304688 188.734375 206.238281 188.695312 206.144531 C 188.652344 206.050781 188.667969 205.929688 188.734375 205.847656 C 190.5 203.550781 192.503906 200.785156 193.894531 197.707031 C 194.84375 194.863281 194.707031 193.152344 193.480469 192.441406 C 193.089844 192.253906 192.664062 192.46875 192.15625 192.710938 C 189.589844 194.285156 187.410156 196.371094 185.296875 198.378906 C 184.589844 199.058594 183.855469 199.753906 183.121094 200.421875 C 181.636719 202.011719 180.113281 203.5625 178.628906 205.0625 C 176.421875 207.292969 174.136719 209.617188 171.890625 212.171875 C 168.671875 216.035156 166.691406 220.378906 164.59375 224.992188 C 164.113281 226.046875 163.617188 227.128906 163.109375 228.183594 C 163.042969 228.332031 162.867188 228.398438 162.722656 228.320312 C 162.574219 228.25 162.507812 228.078125 162.589844 227.929688 C 163.097656 226.875 163.589844 225.792969 164.058594 224.738281 C 166.078125 220.296875 168.175781 215.714844 171.449219 211.785156 C 173.710938 209.203125 175.996094 206.878906 178.214844 204.632812 C 179.683594 203.136719 181.207031 201.597656 182.707031 199.996094 C 183.453125 199.3125 184.1875 198.617188 184.898438 197.9375 C 187.035156 195.90625 189.242188 193.792969 191.875 192.175781 C 191.886719 192.175781 191.886719 192.160156 191.902344 192.160156 C 192.464844 191.882812 193.105469 191.558594 193.757812 191.894531 C 196.003906 193.175781 194.828125 196.707031 194.441406 197.871094 C 194.441406 197.882812 194.429688 197.882812 194.429688 197.894531 C 193.078125 200.851562 191.207031 203.523438 189.496094 205.769531 C 190.898438 206.035156 192.089844 206.746094 192.890625 207.800781 C 193.691406 208.871094 194.054688 210.246094 193.921875 211.703125 C 195.324219 211.289062 196.820312 212.066406 197.621094 213.132812 C 197.621094 213.148438 197.636719 213.148438 197.636719 213.160156 C 198.332031 214.308594 198.277344 215.632812 198.238281 216.796875 C 198.222656 216.984375 198.222656 217.183594 198.222656 217.359375 C 199.359375 217.679688 200.015625 218.601562 200.09375 219.976562 C 200.347656 224.738281 195.109375 228.574219 192.835938 228.921875 C 192.597656 228.988281 192.34375 229.015625 192.074219 229.015625 Z M 192.074219 229.015625 " fill-opacity="1" fill-rule="nonzero"/><path fill="#000000" d="M 187.371094 246.335938 C 187.332031 246.335938 187.304688 246.335938 187.261719 246.308594 C 187.117188 246.257812 187.035156 246.082031 187.101562 245.921875 C 187.730469 244.320312 188.464844 242.582031 189.226562 240.738281 C 191.019531 236.445312 192.863281 232.007812 193.988281 228.277344 C 194.027344 228.117188 194.199219 228.039062 194.347656 228.078125 C 194.507812 228.132812 194.589844 228.292969 194.546875 228.4375 C 193.425781 232.183594 191.566406 236.644531 189.777344 240.949219 C 189.015625 242.792969 188.277344 244.53125 187.652344 246.136719 C 187.597656 246.269531 187.492188 246.335938 187.371094 246.335938 Z M 187.371094 246.335938 " fill-opacity="1" fill-rule="nonzero"/><g clip-path="url(#a29539be06)"><path fill="#475be8" d="M 45.523438 213.507812 C 58.410156 209.164062 79.835938 202.574219 105.324219 197.28125 C 114.921875 195.289062 124.789062 199.285156 130.308594 207.398438 L 154.382812 242.726562 L 162.695312 226.03125 C 162.695312 226.03125 169.726562 240.667969 190.566406 240.722656 C 190.566406 240.722656 183.5625 260.265625 175.40625 277.761719 C 169.621094 290.152344 154.140625 294.550781 142.804688 286.90625 C 134.4375 281.265625 125.496094 272.871094 119.492188 260.652344 L 107.035156 310.121094 L 25.339844 310.121094 C 11.867188 310.121094 2.574219 296.621094 7.375 284.03125 L 27.703125 230.683594 C 30.777344 222.570312 37.316406 216.273438 45.523438 213.507812 Z M 45.523438 213.507812 " fill-opacity="1" fill-rule="nonzero"/></g><path fill="#000000" d="M 56.722656 265.625 C 56.683594 265.625 56.65625 265.625 56.617188 265.597656 C 56.46875 265.53125 56.390625 265.371094 56.457031 265.210938 L 65.277344 243.210938 C 65.34375 243.0625 65.507812 242.980469 65.667969 243.050781 C 65.8125 243.117188 65.894531 243.277344 65.828125 243.4375 L 57.003906 265.4375 C 56.953125 265.546875 56.84375 265.625 56.722656 265.625 Z M 56.722656 265.625 " fill-opacity="1" fill-rule="nonzero"/><path fill="#000000" d="M 146.574219 257.257812 C 146.523438 257.257812 146.480469 257.246094 146.429688 257.21875 C 146.28125 257.136719 146.226562 256.964844 146.308594 256.816406 L 154.113281 242.566406 C 154.195312 242.421875 154.367188 242.367188 154.515625 242.449219 C 154.660156 242.527344 154.714844 242.703125 154.636719 242.847656 L 146.828125 257.097656 C 146.777344 257.203125 146.683594 257.257812 146.574219 257.257812 Z M 146.574219 257.257812 " fill-opacity="1" fill-rule="nonzero"/><path fill="#000000" d="M 155.503906 297.425781 L 85.957031 297.425781 C 83.242188 297.425781 81.386719 294.699219 82.386719 292.171875 L 105.792969 232.703125 C 106.367188 231.234375 107.785156 230.269531 109.363281 230.269531 L 178.910156 230.269531 C 181.621094 230.269531 183.480469 232.996094 182.476562 235.523438 L 159.074219 294.992188 C 158.5 296.449219 157.082031 297.425781 155.503906 297.425781 Z M 155.503906 297.425781 " fill-opacity="1" fill-rule="nonzero"/><path fill="#ffffff" d="M 105.152344 255.71875 C 105.152344 255.71875 109.976562 254.625 110.003906 253.339844 C 110.03125 252.042969 104.082031 249.839844 87.414062 251.9375 C 80.703125 252.78125 72.109375 256.644531 65.183594 260.386719 C 65.183594 260.464844 65.183594 260.53125 65.199219 260.613281 C 65.253906 261.960938 65.320312 263.3125 65.453125 264.648438 C 65.691406 267.082031 66.253906 269.421875 67.285156 271.652344 C 68.257812 273.765625 69.53125 275.742188 71.027344 277.535156 C 72.429688 279.21875 74.019531 280.730469 75.785156 282.039062 C 76.535156 282.585938 77.296875 283.121094 78.042969 283.683594 C 82.28125 280.222656 86.25 276.800781 89.550781 273.660156 C 89.550781 273.660156 108.210938 271.828125 108.210938 269.488281 C 108.210938 267.148438 99.683594 266.453125 99.683594 266.453125 C 99.683594 266.453125 114.027344 267.457031 114.039062 265.078125 C 114.054688 262.699219 102.933594 260.851562 102.933594 260.851562 C 102.933594 260.851562 113.894531 260.894531 114.574219 258.726562 C 115.214844 256.550781 105.152344 255.71875 105.152344 255.71875 Z M 105.152344 255.71875 " fill-opacity="1" fill-rule="nonzero"/><path fill="#000000" d="M 33.574219 280.808594 C 33.480469 280.808594 33.386719 280.769531 33.332031 280.691406 C 33.238281 280.554688 33.265625 280.367188 33.398438 280.273438 C 33.558594 280.167969 49.183594 268.832031 64.769531 260.464844 C 64.917969 260.386719 65.089844 260.4375 65.171875 260.585938 C 65.253906 260.734375 65.199219 260.90625 65.050781 260.988281 C 49.507812 269.328125 33.90625 280.636719 33.746094 280.742188 C 33.691406 280.78125 33.640625 280.808594 33.574219 280.808594 Z M 33.574219 280.808594 " fill-opacity="1" fill-rule="nonzero"/><g clip-path="url(#cbc4389557)"><path fill="#000000" d="M 31.3125 310.042969 C 31.167969 310.042969 31.035156 309.9375 31.019531 309.777344 C 31.007812 309.613281 31.113281 309.46875 31.273438 309.453125 C 40.722656 308.386719 49.773438 304.84375 57.417969 299.1875 C 65.199219 293.453125 72.070312 288.148438 77.832031 283.429688 C 77.949219 283.324219 78.136719 283.347656 78.246094 283.46875 C 78.351562 283.589844 78.324219 283.777344 78.203125 283.882812 C 72.429688 288.617188 65.546875 293.921875 57.765625 299.65625 C 50.027344 305.363281 40.882812 308.945312 31.328125 310.03125 C 31.339844 310.042969 31.328125 310.042969 31.3125 310.042969 Z M 31.3125 310.042969 " fill-opacity="1" fill-rule="nonzero"/></g><path fill="#000000" d="M 95.515625 261.28125 C 95.367188 261.28125 95.234375 261.175781 95.21875 261.027344 C 95.207031 260.867188 95.3125 260.71875 95.472656 260.707031 C 97.492188 260.464844 100.339844 260.265625 102.171875 260.359375 C 102.332031 260.371094 102.464844 260.503906 102.453125 260.667969 C 102.4375 260.828125 102.304688 260.960938 102.144531 260.945312 C 100.605469 260.878906 97.894531 261.015625 95.539062 261.292969 C 95.539062 261.28125 95.527344 261.28125 95.515625 261.28125 Z M 95.515625 261.28125 " fill-opacity="1" fill-rule="nonzero"/><path fill="#000000" d="M 94.445312 267.164062 C 94.296875 267.164062 94.164062 267.054688 94.152344 266.910156 C 94.136719 266.746094 94.246094 266.601562 94.40625 266.585938 C 96.210938 266.375 98.75 266.199219 100.394531 266.265625 C 100.554688 266.28125 100.6875 266.414062 100.671875 266.574219 C 100.660156 266.734375 100.527344 266.867188 100.367188 266.855469 C 98.988281 266.789062 96.570312 266.921875 94.472656 267.164062 C 94.457031 267.164062 94.445312 267.164062 94.445312 267.164062 Z M 94.445312 267.164062 " fill-opacity="1" fill-rule="nonzero"/><path fill="#000000" d="M 95.515625 256.28125 C 95.367188 256.28125 95.234375 256.175781 95.21875 256.015625 C 95.207031 255.855469 95.328125 255.707031 95.488281 255.695312 C 98.496094 255.386719 101.554688 255.265625 104.5625 255.332031 C 104.722656 255.332031 104.859375 255.464844 104.859375 255.625 C 104.859375 255.789062 104.722656 255.921875 104.5625 255.921875 C 101.570312 255.855469 98.535156 255.972656 95.554688 256.28125 C 95.527344 256.28125 95.527344 256.28125 95.515625 256.28125 Z M 95.515625 256.28125 " fill-opacity="1" fill-rule="nonzero"/><path fill="#ffffff" d="M 84.246094 176.523438 L 74.476562 204.644531 C 74.476562 204.644531 76.546875 209.324219 89.511719 212.398438 C 97.625 214.324219 101.15625 206.652344 95.742188 203.335938 L 99.03125 189.476562 Z M 84.246094 176.523438 " fill-opacity="1" fill-rule="nonzero"/><path fill="#000000" d="M 74.476562 204.941406 C 74.449219 204.941406 74.410156 204.941406 74.382812 204.925781 C 74.234375 204.875 74.140625 204.699219 74.195312 204.550781 L 83.964844 176.429688 C 83.992188 176.335938 84.074219 176.269531 84.164062 176.242188 C 84.257812 176.214844 84.367188 176.242188 84.433594 176.308594 L 99.203125 189.246094 C 99.285156 189.316406 99.324219 189.433594 99.296875 189.542969 L 96.957031 199.417969 C 96.917969 199.582031 96.757812 199.671875 96.609375 199.632812 C 96.449219 199.59375 96.355469 199.433594 96.394531 199.285156 L 98.695312 189.582031 L 84.378906 177.03125 L 74.753906 204.738281 C 74.703125 204.859375 74.59375 204.941406 74.476562 204.941406 Z M 74.476562 204.941406 " fill-opacity="1" fill-rule="nonzero"/><path fill="#000000" d="M 74.355469 178.355469 C 72.882812 175.894531 71.5625 173.195312 71.65625 170.332031 C 71.734375 167.472656 73.660156 164.492188 76.492188 164.105469 C 75.703125 160.816406 77.015625 157.113281 79.703125 155.054688 C 82.386719 152.996094 86.292969 152.675781 89.273438 154.28125 C 92.519531 150.539062 98.335938 149.507812 102.878906 151.488281 C 107.425781 153.476562 110.539062 158.144531 111.101562 163.0625 C 111.339844 165.175781 111.125 167.40625 110.085938 169.265625 C 108.613281 171.859375 105.6875 173.355469 102.746094 173.824219 C 101.074219 174.089844 99.164062 174.15625 98.027344 175.414062 C 97.320312 176.203125 97.078125 177.269531 96.742188 178.273438 C 95.554688 181.800781 92.828125 184.796875 89.417969 186.292969 C 86.640625 187.523438 81.839844 188.246094 79.085938 186.496094 C 78.015625 185.8125 77.816406 184.515625 77.296875 183.417969 C 76.453125 181.65625 75.355469 180.023438 74.355469 178.355469 Z M 74.355469 178.355469 " fill-opacity="1" fill-rule="nonzero"/><path fill="#ffffff" d="M 107.089844 180.253906 C 108.453125 184.917969 108.933594 190.25 106.382812 194.394531 C 104.164062 198.003906 99.710938 200.089844 95.515625 199.488281 C 91.316406 198.886719 87.628906 195.625 86.519531 191.546875 C 82.546875 191.507812 78.753906 188.6875 77.589844 184.902344 C 77.148438 183.472656 77.175781 181.667969 78.363281 180.785156 C 79.742188 179.769531 81.640625 180.574219 83.21875 181.226562 C 84.792969 181.882812 85.96875 183.058594 86.8125 181.574219 C 86.210938 177.820312 83.324219 171.429688 88.84375 169.546875 C 90.902344 168.851562 102.398438 166.859375 102.398438 166.859375 C 102.398438 166.859375 106.355469 177.726562 107.089844 180.253906 Z M 107.089844 180.253906 " fill-opacity="1" fill-rule="nonzero"/><path fill="#000000" d="M 96.957031 199.875 C 96.464844 199.875 95.96875 199.835938 95.472656 199.765625 C 91.25 199.164062 87.507812 195.90625 86.304688 191.828125 C 82.269531 191.695312 78.511719 188.847656 77.308594 184.96875 C 76.855469 183.472656 76.839844 181.535156 78.191406 180.53125 C 79.703125 179.421875 81.707031 180.265625 83.335938 180.945312 C 83.699219 181.09375 84.03125 181.28125 84.367188 181.441406 C 85.503906 182.03125 86.039062 182.269531 86.519531 181.507812 C 86.410156 180.851562 86.222656 180.105469 86.039062 179.328125 C 85.183594 175.761719 84.003906 170.882812 88.765625 169.265625 C 90.824219 168.570312 101.902344 166.644531 102.371094 166.5625 C 102.519531 166.539062 102.652344 166.617188 102.691406 166.75 C 102.730469 166.859375 106.648438 177.671875 107.382812 180.171875 C 109.109375 186.105469 108.867188 190.945312 106.648438 194.539062 C 104.617188 197.816406 100.792969 199.875 96.957031 199.875 Z M 79.941406 180.585938 C 79.433594 180.585938 78.964844 180.707031 78.550781 181.015625 C 77.441406 181.828125 77.496094 183.566406 77.882812 184.808594 C 79.03125 188.511719 82.667969 191.210938 86.546875 191.253906 C 86.679688 191.253906 86.785156 191.347656 86.824219 191.464844 C 87.910156 195.4375 91.503906 198.617188 95.582031 199.191406 C 99.65625 199.78125 104.003906 197.734375 106.152344 194.234375 C 108.28125 190.773438 108.507812 186.105469 106.824219 180.332031 C 106.152344 178.058594 102.8125 168.769531 102.238281 167.179688 C 100.566406 167.472656 90.808594 169.183594 88.964844 169.8125 C 84.714844 171.257812 85.730469 175.464844 86.625 179.183594 C 86.824219 180.023438 87.011719 180.8125 87.132812 181.523438 C 87.148438 181.589844 87.132812 181.65625 87.09375 181.707031 C 86.304688 183.113281 85.195312 182.523438 84.113281 181.964844 C 83.804688 181.800781 83.472656 181.628906 83.136719 181.480469 C 82.082031 181.054688 80.945312 180.585938 79.941406 180.585938 Z M 79.941406 180.585938 " fill-opacity="1" fill-rule="nonzero"/><path fill="#000000" d="M 84.953125 186.789062 C 84.875 186.789062 84.792969 186.75 84.726562 186.679688 C 83.859375 185.679688 82.496094 185.128906 81.171875 185.25 C 81.011719 185.265625 80.863281 185.144531 80.851562 184.984375 C 80.835938 184.824219 80.957031 184.675781 81.117188 184.664062 C 82.628906 184.53125 84.179688 185.15625 85.167969 186.292969 C 85.273438 186.414062 85.261719 186.601562 85.140625 186.707031 C 85.089844 186.761719 85.019531 186.789062 84.953125 186.789062 Z M 84.953125 186.789062 " fill-opacity="1" fill-rule="nonzero"/><path fill="#ffffff" d="M 102.613281 179.542969 C 103.054688 181.75 105.058594 183.21875 107.101562 182.820312 C 109.148438 182.417969 110.445312 180.292969 110.003906 178.074219 C 109.5625 175.867188 107.558594 174.398438 105.511719 174.796875 C 103.46875 175.210938 102.171875 177.339844 102.613281 179.542969 Z M 102.613281 179.542969 " fill-opacity="1" fill-rule="nonzero"/><path fill="#000000" d="M 106.421875 183.179688 C 104.496094 183.179688 102.746094 181.707031 102.316406 179.609375 C 101.851562 177.246094 103.253906 174.957031 105.445312 174.53125 C 107.636719 174.089844 109.804688 175.667969 110.285156 178.03125 C 110.511719 179.167969 110.3125 180.332031 109.722656 181.292969 C 109.136719 182.257812 108.226562 182.910156 107.15625 183.125 C 106.917969 183.152344 106.660156 183.179688 106.421875 183.179688 Z M 106.195312 175.039062 C 105.992188 175.039062 105.78125 175.066406 105.566406 175.105469 C 103.695312 175.480469 102.492188 177.445312 102.90625 179.503906 C 103.320312 181.546875 105.179688 182.910156 107.050781 182.539062 C 107.957031 182.363281 108.734375 181.800781 109.226562 180.972656 C 109.738281 180.144531 109.910156 179.128906 109.710938 178.140625 C 109.347656 176.308594 107.839844 175.039062 106.195312 175.039062 Z M 106.195312 175.039062 " fill-opacity="1" fill-rule="nonzero"/><path fill="#000000" d="M 95.621094 185.332031 C 93.695312 185.332031 91.945312 183.859375 91.519531 181.761719 C 91.050781 179.398438 92.453125 177.109375 94.644531 176.683594 C 96.835938 176.242188 99.003906 177.820312 99.484375 180.183594 C 99.953125 182.550781 98.546875 184.835938 96.355469 185.265625 C 96.117188 185.304688 95.863281 185.332031 95.621094 185.332031 Z M 95.394531 177.175781 C 95.195312 177.175781 94.980469 177.203125 94.765625 177.246094 C 92.894531 177.617188 91.691406 179.582031 92.105469 181.640625 C 92.519531 183.6875 94.378906 185.050781 96.25 184.675781 C 98.121094 184.300781 99.324219 182.335938 98.910156 180.277344 C 98.546875 178.460938 97.039062 177.175781 95.394531 177.175781 Z M 95.394531 177.175781 " fill-opacity="1" fill-rule="nonzero"/><path fill="#000000" d="M 99.203125 180.519531 C 99.148438 180.519531 99.097656 180.507812 99.054688 180.480469 C 98.921875 180.398438 98.871094 180.210938 98.949219 180.078125 C 99.472656 179.210938 100.113281 178.714844 100.835938 178.621094 C 101.917969 178.488281 102.785156 179.304688 102.824219 179.34375 C 102.945312 179.449219 102.945312 179.636719 102.824219 179.757812 C 102.71875 179.878906 102.53125 179.878906 102.410156 179.757812 C 102.398438 179.742188 101.703125 179.101562 100.902344 179.195312 C 100.367188 179.261719 99.871094 179.664062 99.457031 180.371094 C 99.390625 180.464844 99.296875 180.519531 99.203125 180.519531 Z M 99.203125 180.519531 " fill-opacity="1" fill-rule="nonzero"/><path fill="#000000" d="M 91.8125 181.988281 C 91.796875 181.988281 91.785156 181.988281 91.785156 181.988281 L 84.929688 181.253906 C 84.765625 181.242188 84.648438 181.09375 84.660156 180.933594 C 84.675781 180.773438 84.820312 180.652344 84.980469 180.667969 L 91.839844 181.402344 C 92 181.414062 92.117188 181.5625 92.105469 181.722656 C 92.09375 181.882812 91.957031 181.988281 91.8125 181.988281 Z M 91.8125 181.988281 " fill-opacity="1" fill-rule="nonzero"/><path fill="#000000" d="M 220.707031 110.785156 L 45.148438 110.785156 C 44.988281 110.785156 44.855469 110.652344 44.855469 110.492188 C 44.855469 110.332031 44.988281 110.195312 45.148438 110.195312 L 220.707031 110.195312 C 220.867188 110.195312 221 110.332031 221 110.492188 C 221 110.652344 220.867188 110.785156 220.707031 110.785156 Z M 220.707031 110.785156 " fill-opacity="1" fill-rule="nonzero"/><path fill="#000000" d="M 64.625 97.832031 L 12.027344 97.832031 C 11.867188 97.832031 11.730469 97.699219 11.730469 97.539062 C 11.730469 97.378906 11.867188 97.246094 12.027344 97.246094 L 64.503906 97.246094 L 89.941406 71.808594 C 90.0625 71.6875 90.246094 71.6875 90.355469 71.808594 C 90.460938 71.929688 90.476562 72.113281 90.355469 72.222656 L 64.824219 97.753906 C 64.785156 97.804688 64.703125 97.832031 64.625 97.832031 Z M 64.625 97.832031 " fill-opacity="1" fill-rule="nonzero"/><path fill="#000000" d="M 220.480469 101.457031 C 220.398438 101.457031 220.320312 101.429688 220.265625 101.363281 L 192.984375 72.300781 L 90.152344 72.300781 C 89.992188 72.300781 89.859375 72.167969 89.859375 72.007812 C 89.859375 71.847656 89.992188 71.714844 90.152344 71.714844 L 193.105469 71.714844 C 193.183594 71.714844 193.265625 71.753906 193.320312 71.808594 L 220.695312 100.960938 C 220.800781 101.082031 220.800781 101.269531 220.679688 101.375 C 220.613281 101.429688 220.546875 101.457031 220.480469 101.457031 Z M 220.480469 101.457031 " fill-opacity="1" fill-rule="nonzero"/><path fill="#ffffff" d="M 95.835938 70.285156 C 95.949219 70.660156 96.023438 71.039062 96.0625 71.429688 C 96.097656 71.816406 96.097656 72.203125 96.0625 72.589844 C 96.023438 72.980469 95.945312 73.359375 95.832031 73.734375 C 95.71875 74.105469 95.570312 74.464844 95.386719 74.808594 C 95.203125 75.152344 94.988281 75.472656 94.742188 75.773438 C 94.492188 76.074219 94.21875 76.347656 93.917969 76.597656 C 93.617188 76.84375 93.292969 77.058594 92.949219 77.242188 C 92.605469 77.425781 92.246094 77.574219 91.875 77.6875 C 91.5 77.800781 91.121094 77.875 90.734375 77.914062 C 90.34375 77.949219 89.957031 77.949219 89.570312 77.914062 C 89.183594 77.875 88.800781 77.796875 88.429688 77.683594 C 88.054688 77.570312 87.699219 77.421875 87.355469 77.238281 C 87.011719 77.054688 86.6875 76.839844 86.386719 76.59375 C 86.085938 76.34375 85.8125 76.070312 85.566406 75.769531 C 85.316406 75.46875 85.101562 75.144531 84.917969 74.800781 C 84.734375 74.457031 84.585938 74.097656 84.476562 73.726562 C 84.363281 73.351562 84.285156 72.972656 84.25 72.585938 C 84.210938 72.195312 84.210938 71.808594 84.25 71.421875 C 84.289062 71.035156 84.363281 70.652344 84.476562 70.28125 C 84.589844 69.90625 84.738281 69.550781 84.921875 69.207031 C 85.105469 68.863281 85.320312 68.539062 85.570312 68.238281 C 85.816406 67.9375 86.089844 67.664062 86.390625 67.417969 C 86.695312 67.167969 87.015625 66.953125 87.359375 66.769531 C 87.703125 66.585938 88.0625 66.4375 88.433594 66.328125 C 88.808594 66.214844 89.1875 66.136719 89.578125 66.101562 C 89.964844 66.0625 90.351562 66.0625 90.738281 66.101562 C 91.128906 66.140625 91.507812 66.214844 91.882812 66.328125 C 92.253906 66.441406 92.613281 66.589844 92.957031 66.773438 C 93.300781 66.957031 93.621094 67.171875 93.921875 67.421875 C 94.222656 67.667969 94.496094 67.941406 94.746094 68.242188 C 94.992188 68.546875 95.207031 68.867188 95.390625 69.210938 C 95.574219 69.554688 95.722656 69.914062 95.835938 70.285156 Z M 95.835938 70.285156 " fill-opacity="1" fill-rule="nonzero"/><path fill="#000000" d="M 90.152344 78.25 C 86.71875 78.25 83.925781 75.457031 83.925781 72.023438 C 83.925781 68.585938 86.71875 65.792969 90.152344 65.792969 C 93.589844 65.792969 96.382812 68.585938 96.382812 72.023438 C 96.382812 75.445312 93.589844 78.25 90.152344 78.25 Z M 90.152344 66.367188 C 87.039062 66.367188 84.511719 68.894531 84.511719 72.007812 C 84.511719 75.121094 87.039062 77.648438 90.152344 77.648438 C 93.269531 77.648438 95.796875 75.121094 95.796875 72.007812 C 95.796875 68.894531 93.269531 66.367188 90.152344 66.367188 Z M 90.152344 66.367188 " fill-opacity="1" fill-rule="nonzero"/><path fill="#ffffff" d="M 13.152344 91.707031 C 13.535156 91.78125 13.90625 91.890625 14.265625 92.039062 C 14.628906 92.1875 14.972656 92.367188 15.296875 92.582031 C 15.621094 92.796875 15.921875 93.039062 16.199219 93.3125 C 16.476562 93.589844 16.726562 93.886719 16.945312 94.207031 C 17.164062 94.53125 17.347656 94.871094 17.5 95.230469 C 17.648438 95.589844 17.765625 95.960938 17.84375 96.34375 C 17.921875 96.722656 17.960938 97.109375 17.964844 97.5 C 17.964844 97.890625 17.929688 98.277344 17.855469 98.660156 C 17.785156 99.042969 17.671875 99.414062 17.527344 99.773438 C 17.378906 100.132812 17.199219 100.476562 16.984375 100.804688 C 16.769531 101.128906 16.523438 101.429688 16.25 101.707031 C 15.976562 101.984375 15.679688 102.230469 15.355469 102.449219 C 15.035156 102.667969 14.691406 102.855469 14.332031 103.003906 C 13.976562 103.15625 13.605469 103.269531 13.222656 103.351562 C 12.839844 103.429688 12.457031 103.46875 12.066406 103.472656 C 11.675781 103.472656 11.289062 103.4375 10.90625 103.363281 C 10.523438 103.289062 10.152344 103.179688 9.792969 103.03125 C 9.429688 102.886719 9.085938 102.707031 8.761719 102.492188 C 8.4375 102.277344 8.136719 102.03125 7.859375 101.757812 C 7.582031 101.484375 7.332031 101.1875 7.113281 100.863281 C 6.898438 100.539062 6.710938 100.199219 6.558594 99.839844 C 6.410156 99.480469 6.292969 99.109375 6.214844 98.730469 C 6.136719 98.347656 6.097656 97.960938 6.09375 97.574219 C 6.09375 97.183594 6.128906 96.796875 6.203125 96.414062 C 6.273438 96.03125 6.386719 95.660156 6.53125 95.296875 C 6.679688 94.9375 6.859375 94.59375 7.074219 94.269531 C 7.289062 93.945312 7.535156 93.640625 7.808594 93.367188 C 8.082031 93.089844 8.378906 92.839844 8.703125 92.621094 C 9.023438 92.402344 9.367188 92.21875 9.726562 92.066406 C 10.082031 91.914062 10.453125 91.800781 10.835938 91.722656 C 11.21875 91.644531 11.601562 91.605469 11.992188 91.601562 C 12.382812 91.597656 12.769531 91.632812 13.152344 91.707031 Z M 13.152344 91.707031 " fill-opacity="1" fill-rule="nonzero"/><path fill="#000000" d="M 12.027344 103.769531 C 8.589844 103.769531 5.796875 100.972656 5.796875 97.539062 C 5.796875 94.101562 8.589844 91.308594 12.027344 91.308594 C 15.460938 91.308594 18.253906 94.101562 18.253906 97.539062 C 18.269531 100.972656 15.460938 103.769531 12.027344 103.769531 Z M 12.027344 91.898438 C 8.910156 91.898438 6.386719 94.425781 6.386719 97.539062 C 6.386719 100.652344 8.910156 103.179688 12.027344 103.179688 C 15.140625 103.179688 17.667969 100.652344 17.667969 97.539062 C 17.679688 94.425781 15.140625 91.898438 12.027344 91.898438 Z M 12.027344 91.898438 " fill-opacity="1" fill-rule="nonzero"/><path fill="#000000" d="M 205.441406 110.730469 C 205.363281 110.730469 205.28125 110.703125 205.226562 110.636719 L 187.183594 91.082031 L 119.507812 91.082031 C 119.347656 91.082031 119.214844 90.949219 119.214844 90.789062 C 119.214844 90.628906 119.347656 90.496094 119.507812 90.496094 L 187.304688 90.496094 C 187.382812 90.496094 187.464844 90.535156 187.515625 90.589844 L 205.644531 110.238281 C 205.75 110.355469 205.75 110.542969 205.628906 110.652344 C 205.589844 110.703125 205.523438 110.730469 205.441406 110.730469 Z M 205.441406 110.730469 " fill-opacity="1" fill-rule="nonzero"/><path fill="#ffffff" d="M 120.242188 84.886719 C 120.628906 84.933594 121.007812 85.019531 121.378906 85.140625 C 121.746094 85.265625 122.101562 85.421875 122.441406 85.613281 C 122.78125 85.804688 123.097656 86.027344 123.390625 86.28125 C 123.6875 86.539062 123.953125 86.816406 124.195312 87.125 C 124.433594 87.433594 124.640625 87.761719 124.816406 88.109375 C 124.992188 88.457031 125.132812 88.816406 125.238281 89.195312 C 125.339844 89.570312 125.40625 89.949219 125.433594 90.339844 C 125.464844 90.726562 125.453125 91.117188 125.40625 91.503906 C 125.359375 91.890625 125.273438 92.269531 125.152344 92.636719 C 125.03125 93.007812 124.875 93.363281 124.679688 93.703125 C 124.488281 94.039062 124.265625 94.359375 124.011719 94.652344 C 123.757812 94.949219 123.476562 95.214844 123.167969 95.457031 C 122.863281 95.695312 122.535156 95.902344 122.1875 96.078125 C 121.839844 96.253906 121.476562 96.394531 121.101562 96.496094 C 120.726562 96.601562 120.34375 96.667969 119.953125 96.695312 C 119.566406 96.726562 119.179688 96.714844 118.792969 96.667969 C 118.40625 96.621094 118.027344 96.535156 117.65625 96.414062 C 117.285156 96.292969 116.933594 96.132812 116.59375 95.941406 C 116.253906 95.75 115.9375 95.527344 115.640625 95.273438 C 115.347656 95.019531 115.078125 94.738281 114.839844 94.429688 C 114.597656 94.121094 114.390625 93.796875 114.214844 93.445312 C 114.039062 93.097656 113.902344 92.738281 113.796875 92.363281 C 113.691406 91.984375 113.625 91.605469 113.597656 91.214844 C 113.570312 90.828125 113.578125 90.4375 113.625 90.050781 C 113.675781 89.664062 113.757812 89.289062 113.882812 88.917969 C 114.003906 88.546875 114.160156 88.191406 114.351562 87.851562 C 114.542969 87.515625 114.769531 87.195312 115.023438 86.902344 C 115.277344 86.605469 115.558594 86.339844 115.863281 86.101562 C 116.171875 85.859375 116.5 85.652344 116.847656 85.476562 C 117.195312 85.300781 117.558594 85.160156 117.933594 85.058594 C 118.308594 84.953125 118.691406 84.886719 119.078125 84.859375 C 119.46875 84.832031 119.855469 84.839844 120.242188 84.886719 Z M 120.242188 84.886719 " fill-opacity="1" fill-rule="nonzero"/><path fill="#000000" d="M 119.519531 97.015625 C 116.085938 97.015625 113.292969 94.222656 113.292969 90.789062 C 113.292969 87.351562 116.085938 84.558594 119.519531 84.558594 C 122.957031 84.558594 125.75 87.351562 125.75 90.789062 C 125.75 94.210938 122.957031 97.015625 119.519531 97.015625 Z M 119.519531 85.132812 C 116.40625 85.132812 113.878906 87.660156 113.878906 90.773438 C 113.878906 93.890625 116.40625 96.414062 119.519531 96.414062 C 122.636719 96.414062 125.160156 93.890625 125.160156 90.773438 C 125.160156 87.660156 122.636719 85.132812 119.519531 85.132812 Z M 119.519531 85.132812 " fill-opacity="1" fill-rule="nonzero"/><path fill="#ffffff" d="M 45.875 104.609375 C 46.261719 104.65625 46.640625 104.742188 47.007812 104.863281 C 47.378906 104.988281 47.734375 105.144531 48.074219 105.335938 C 48.410156 105.527344 48.730469 105.75 49.023438 106.003906 C 49.320312 106.261719 49.585938 106.542969 49.828125 106.847656 C 50.066406 107.15625 50.273438 107.484375 50.449219 107.832031 C 50.625 108.179688 50.765625 108.539062 50.867188 108.917969 C 50.972656 109.292969 51.039062 109.675781 51.066406 110.0625 C 51.097656 110.453125 51.085938 110.839844 51.039062 111.226562 C 50.992188 111.613281 50.90625 111.992188 50.785156 112.359375 C 50.664062 112.730469 50.503906 113.085938 50.3125 113.425781 C 50.121094 113.765625 49.898438 114.082031 49.644531 114.375 C 49.390625 114.671875 49.109375 114.9375 48.800781 115.179688 C 48.492188 115.417969 48.167969 115.625 47.816406 115.800781 C 47.46875 115.976562 47.109375 116.117188 46.734375 116.21875 C 46.355469 116.324219 45.976562 116.390625 45.585938 116.417969 C 45.199219 116.449219 44.808594 116.4375 44.421875 116.390625 C 44.035156 116.34375 43.660156 116.257812 43.289062 116.136719 C 42.917969 116.015625 42.5625 115.855469 42.222656 115.664062 C 41.886719 115.472656 41.570312 115.25 41.273438 114.996094 C 40.976562 114.742188 40.710938 114.460938 40.472656 114.152344 C 40.230469 113.84375 40.023438 113.519531 39.847656 113.171875 C 39.671875 112.820312 39.535156 112.460938 39.429688 112.085938 C 39.324219 111.710938 39.257812 111.328125 39.230469 110.9375 C 39.203125 110.550781 39.210938 110.160156 39.257812 109.773438 C 39.304688 109.386719 39.390625 109.011719 39.511719 108.640625 C 39.636719 108.269531 39.792969 107.914062 39.984375 107.578125 C 40.175781 107.238281 40.398438 106.921875 40.652344 106.625 C 40.910156 106.328125 41.1875 106.0625 41.496094 105.824219 C 41.804688 105.582031 42.132812 105.375 42.480469 105.199219 C 42.828125 105.023438 43.1875 104.886719 43.566406 104.78125 C 43.941406 104.675781 44.324219 104.609375 44.710938 104.582031 C 45.097656 104.554688 45.488281 104.5625 45.875 104.609375 Z M 45.875 104.609375 " fill-opacity="1" fill-rule="nonzero"/><path fill="#000000" d="M 45.148438 116.734375 C 41.714844 116.734375 38.917969 113.941406 38.917969 110.503906 C 38.917969 107.070312 41.714844 104.277344 45.148438 104.277344 C 48.582031 104.277344 51.378906 107.070312 51.378906 110.503906 C 51.390625 113.925781 48.582031 116.734375 45.148438 116.734375 Z M 45.148438 104.851562 C 42.035156 104.851562 39.507812 107.375 39.507812 110.492188 C 39.507812 113.605469 42.035156 116.132812 45.148438 116.132812 C 48.261719 116.132812 50.789062 113.605469 50.789062 110.492188 C 50.800781 107.375 48.261719 104.851562 45.148438 104.851562 Z M 45.148438 104.851562 " fill-opacity="1" fill-rule="nonzero"/><path fill="#000000" d="M 78.339844 134.605469 L 25.6875 134.605469 C 25.527344 134.605469 25.390625 134.472656 25.390625 134.3125 C 25.390625 134.148438 25.527344 134.015625 25.6875 134.015625 L 78.21875 134.015625 L 101.714844 110.519531 C 101.835938 110.398438 102.023438 110.398438 102.128906 110.519531 C 102.25 110.636719 102.25 110.824219 102.128906 110.933594 L 78.539062 134.511719 C 78.484375 134.578125 78.40625 134.605469 78.339844 134.605469 Z M 78.339844 134.605469 " fill-opacity="1" fill-rule="nonzero"/><path fill="#ffffff" d="M 26.410156 128.648438 C 26.796875 128.695312 27.175781 128.78125 27.546875 128.902344 C 27.914062 129.027344 28.269531 129.183594 28.609375 129.375 C 28.949219 129.566406 29.265625 129.789062 29.558594 130.042969 C 29.855469 130.300781 30.121094 130.578125 30.363281 130.886719 C 30.601562 131.195312 30.808594 131.523438 30.984375 131.871094 C 31.160156 132.21875 31.300781 132.578125 31.40625 132.957031 C 31.507812 133.332031 31.574219 133.710938 31.605469 134.101562 C 31.632812 134.488281 31.621094 134.878906 31.574219 135.265625 C 31.527344 135.652344 31.441406 136.03125 31.320312 136.398438 C 31.199219 136.769531 31.042969 137.125 30.847656 137.464844 C 30.65625 137.800781 30.433594 138.121094 30.179688 138.414062 C 29.925781 138.710938 29.644531 138.976562 29.335938 139.21875 C 29.03125 139.457031 28.703125 139.664062 28.355469 139.839844 C 28.007812 140.015625 27.644531 140.15625 27.269531 140.257812 C 26.894531 140.363281 26.511719 140.429688 26.121094 140.457031 C 25.734375 140.488281 25.347656 140.476562 24.960938 140.429688 C 24.574219 140.382812 24.195312 140.296875 23.824219 140.175781 C 23.453125 140.050781 23.101562 139.894531 22.761719 139.703125 C 22.421875 139.511719 22.105469 139.289062 21.808594 139.035156 C 21.515625 138.78125 21.246094 138.5 21.007812 138.191406 C 20.765625 137.882812 20.558594 137.558594 20.382812 137.207031 C 20.210938 136.859375 20.070312 136.5 19.964844 136.125 C 19.863281 135.746094 19.796875 135.367188 19.765625 134.976562 C 19.738281 134.589844 19.746094 134.199219 19.792969 133.8125 C 19.84375 133.425781 19.925781 133.046875 20.050781 132.679688 C 20.171875 132.308594 20.328125 131.953125 20.519531 131.613281 C 20.710938 131.277344 20.9375 130.957031 21.191406 130.664062 C 21.445312 130.367188 21.726562 130.101562 22.03125 129.859375 C 22.339844 129.621094 22.667969 129.414062 23.015625 129.238281 C 23.363281 129.0625 23.726562 128.921875 24.101562 128.820312 C 24.476562 128.714844 24.859375 128.648438 25.246094 128.621094 C 25.636719 128.59375 26.023438 128.601562 26.410156 128.648438 Z M 26.410156 128.648438 " fill-opacity="1" fill-rule="nonzero"/><path fill="#000000" d="M 25.6875 140.765625 C 22.25 140.765625 19.457031 137.972656 19.457031 134.539062 C 19.457031 131.101562 22.25 128.308594 25.6875 128.308594 C 29.121094 128.308594 31.914062 131.101562 31.914062 134.539062 C 31.914062 137.972656 29.121094 140.765625 25.6875 140.765625 Z M 25.6875 128.898438 C 22.570312 128.898438 20.046875 131.421875 20.046875 134.539062 C 20.046875 137.652344 22.570312 140.179688 25.6875 140.179688 C 28.800781 140.179688 31.328125 137.652344 31.328125 134.539062 C 31.328125 131.421875 28.800781 128.898438 25.6875 128.898438 Z M 25.6875 128.898438 " fill-opacity="1" fill-rule="nonzero"/></svg>