<svg xmlns="http://www.w3.org/2000/svg" xmlns:xlink="http://www.w3.org/1999/xlink" width="500" zoomAndPan="magnify" viewBox="0 0 375 374.999991" height="500" preserveAspectRatio="xMidYMid meet" version="1.0"><path fill="#caddff" d="M 19.648438 121.820312 C 11.746094 139.285156 0.0507812 172.722656 4.75 214.304688 C 10.785156 267.660156 40.648438 309.722656 69.699219 333.359375 C 166.097656 411.792969 342.566406 361.125 365.933594 287.238281 C 370.171875 273.835938 368.980469 260.90625 367.515625 245 C 362.847656 194.40625 338.277344 179.367188 321.75 125.648438 C 306.710938 76.757812 321.539062 71.257812 307.476562 49.519531 C 276.96875 2.375 188.910156 -0.00390625 128.320312 22.601562 C 105.046875 31.285156 48.570312 57.914062 19.648438 121.820312 " fill-opacity="1" fill-rule="nonzero"/><path fill="#000000" d="M 335.226562 110.9375 C 334.03125 111.472656 333.488281 112.902344 334.019531 114.125 C 334.277344 114.722656 334.742188 115.175781 335.335938 115.40625 C 335.917969 115.632812 336.546875 115.617188 337.113281 115.359375 C 338.308594 114.824219 338.851562 113.394531 338.324219 112.171875 C 338.066406 111.574219 337.597656 111.121094 337.003906 110.890625 C 336.425781 110.667969 335.796875 110.679688 335.226562 110.9375 Z M 336.171875 116.886719 C 335.730469 116.886719 335.285156 116.804688 334.859375 116.640625 C 333.929688 116.277344 333.203125 115.574219 332.804688 114.652344 C 331.992188 112.765625 332.835938 110.558594 334.683594 109.726562 C 335.578125 109.328125 336.574219 109.300781 337.484375 109.65625 C 338.410156 110.015625 339.140625 110.722656 339.539062 111.644531 C 340.351562 113.53125 339.503906 115.738281 337.65625 116.566406 C 337.183594 116.78125 336.679688 116.886719 336.171875 116.886719 " fill-opacity="1" fill-rule="nonzero"/><path fill="#000000" d="M 329.285156 93.332031 C 329.234375 93.332031 329.179688 93.324219 329.128906 93.3125 C 328.773438 93.222656 328.558594 92.867188 328.644531 92.511719 L 329.457031 89.191406 C 329.546875 88.835938 329.898438 88.621094 330.257812 88.703125 C 330.613281 88.792969 330.828125 89.148438 330.742188 89.503906 L 329.925781 92.824219 C 329.851562 93.128906 329.582031 93.332031 329.285156 93.332031 " fill-opacity="1" fill-rule="nonzero"/><path fill="#000000" d="M 327.386719 101.066406 C 327.335938 101.066406 327.28125 101.0625 327.230469 101.050781 C 326.875 100.960938 326.660156 100.601562 326.742188 100.25 L 327.558594 96.929688 C 327.644531 96.570312 328.003906 96.355469 328.359375 96.441406 C 328.714844 96.53125 328.929688 96.890625 328.84375 97.242188 L 328.027344 100.566406 C 327.957031 100.867188 327.6875 101.066406 327.386719 101.066406 " fill-opacity="1" fill-rule="nonzero"/><path fill="#000000" d="M 326.535156 94.996094 C 326.484375 94.996094 326.429688 94.992188 326.378906 94.976562 L 323.058594 94.164062 C 322.703125 94.078125 322.484375 93.71875 322.574219 93.363281 C 322.660156 93.007812 323.019531 92.792969 323.371094 92.878906 L 326.691406 93.695312 C 327.046875 93.78125 327.265625 94.140625 327.175781 94.492188 C 327.105469 94.796875 326.832031 94.996094 326.535156 94.996094 " fill-opacity="1" fill-rule="nonzero"/><path fill="#000000" d="M 334.273438 96.894531 C 334.21875 96.894531 334.167969 96.886719 334.117188 96.875 L 330.792969 96.0625 C 330.441406 95.972656 330.222656 95.613281 330.3125 95.261719 C 330.394531 94.90625 330.753906 94.6875 331.109375 94.777344 L 334.429688 95.589844 C 334.785156 95.679688 335.003906 96.035156 334.914062 96.390625 C 334.839844 96.691406 334.574219 96.894531 334.273438 96.894531 " fill-opacity="1" fill-rule="nonzero"/><path fill="#000000" d="M 20.117188 150.019531 C 20.066406 150.019531 20.011719 150.015625 19.957031 150 C 19.605469 149.914062 19.386719 149.554688 19.472656 149.203125 L 20.289062 145.878906 C 20.375 145.527344 20.734375 145.308594 21.089844 145.394531 C 21.441406 145.480469 21.660156 145.839844 21.574219 146.195312 L 20.757812 149.515625 C 20.683594 149.816406 20.414062 150.019531 20.117188 150.019531 " fill-opacity="1" fill-rule="nonzero"/><path fill="#000000" d="M 18.21875 157.757812 C 18.167969 157.757812 18.113281 157.75 18.0625 157.738281 C 17.707031 157.652344 17.488281 157.292969 17.578125 156.9375 L 18.390625 153.617188 C 18.480469 153.261719 18.835938 153.046875 19.191406 153.132812 C 19.546875 153.21875 19.761719 153.578125 19.675781 153.933594 L 18.863281 157.253906 C 18.789062 157.554688 18.515625 157.757812 18.21875 157.757812 " fill-opacity="1" fill-rule="nonzero"/><path fill="#000000" d="M 17.367188 151.6875 C 17.316406 151.6875 17.261719 151.679688 17.210938 151.667969 L 13.886719 150.851562 C 13.535156 150.765625 13.316406 150.40625 13.402344 150.054688 C 13.492188 149.699219 13.847656 149.480469 14.203125 149.570312 L 17.523438 150.382812 C 17.878906 150.46875 18.097656 150.828125 18.007812 151.183594 C 17.9375 151.484375 17.664062 151.6875 17.367188 151.6875 " fill-opacity="1" fill-rule="nonzero"/><path fill="#000000" d="M 25.105469 153.582031 C 25.050781 153.582031 25 153.578125 24.945312 153.566406 L 21.625 152.75 C 21.269531 152.664062 21.054688 152.304688 21.140625 151.953125 C 21.226562 151.597656 21.585938 151.378906 21.941406 151.46875 L 25.261719 152.28125 C 25.617188 152.367188 25.832031 152.726562 25.746094 153.082031 C 25.671875 153.382812 25.402344 153.582031 25.105469 153.582031 " fill-opacity="1" fill-rule="nonzero"/><path fill="#99b9ff" d="M 306.492188 281.4375 L 299.425781 286.863281 C 298.234375 287.695312 40.359375 259.773438 40.359375 256.550781 L 36.511719 27.734375 L 43.519531 23.347656 C 43.519531 23.347656 46.46875 21.371094 48.199219 21.519531 L 304.886719 46.210938 C 307.714844 46.449219 309.769531 48.996094 309.769531 52.257812 L 309.769531 274.988281 C 309.769531 277.542969 308.503906 280.035156 306.492188 281.4375 " fill-opacity="1" fill-rule="nonzero"/><path fill="#ffffff" d="M 295.371094 287.445312 L 38.683594 262.753906 C 35.855469 262.511719 33.800781 259.96875 33.800781 256.703125 L 33.800781 34.214844 C 33.800781 29.980469 37.1875 26.367188 40.855469 26.679688 L 297.542969 51.371094 C 300.371094 51.613281 302.425781 54.15625 302.425781 57.417969 L 302.425781 279.910156 C 302.425781 284.144531 299.039062 287.757812 295.371094 287.445312 " fill-opacity="1" fill-rule="nonzero"/><path fill="#000000" d="M 33.242188 166.875 C 33.238281 166.875 33.238281 166.875 33.238281 166.875 C 32.871094 166.871094 32.578125 166.574219 32.578125 166.210938 L 33.140625 34.207031 C 33.140625 31.824219 34.171875 29.449219 35.902344 27.859375 C 37.359375 26.523438 39.140625 25.867188 40.914062 26.023438 L 114.410156 33.316406 C 114.773438 33.351562 115.039062 33.679688 115.003906 34.039062 C 114.96875 34.402344 114.644531 34.679688 114.28125 34.632812 L 40.792969 27.335938 C 39.402344 27.21875 37.976562 27.75 36.796875 28.832031 C 35.335938 30.175781 34.460938 32.1875 34.460938 34.210938 L 33.902344 166.214844 C 33.902344 166.582031 33.605469 166.875 33.242188 166.875 " fill-opacity="1" fill-rule="nonzero"/><path fill="#000000" d="M 150.871094 274.207031 C 150.847656 274.207031 150.824219 274.203125 150.804688 274.203125 L 124.339844 271.65625 C 123.976562 271.621094 123.710938 271.296875 123.742188 270.933594 C 123.777344 270.570312 124.105469 270.304688 124.464844 270.339844 L 150.929688 272.886719 C 151.292969 272.921875 151.5625 273.246094 151.523438 273.609375 C 151.492188 273.949219 151.203125 274.207031 150.871094 274.207031 " fill-opacity="1" fill-rule="nonzero"/><path fill="#000000" d="M 237.109375 282.582031 C 237.085938 282.582031 237.0625 282.578125 237.039062 282.578125 L 220.507812 280.816406 C 220.144531 280.773438 219.882812 280.449219 219.921875 280.085938 C 219.960938 279.722656 220.289062 279.460938 220.648438 279.5 L 237.175781 281.261719 C 237.539062 281.300781 237.804688 281.625 237.765625 281.988281 C 237.730469 282.328125 237.441406 282.582031 237.109375 282.582031 " fill-opacity="1" fill-rule="nonzero"/><path fill="#000000" d="M 302.425781 140.867188 C 302.0625 140.867188 301.765625 140.574219 301.765625 140.207031 L 301.765625 57.417969 C 301.765625 54.507812 299.964844 52.242188 297.488281 52.027344 L 220.953125 44.332031 C 220.589844 44.292969 220.324219 43.96875 220.363281 43.605469 C 220.398438 43.242188 220.722656 42.976562 221.085938 43.015625 L 297.609375 50.710938 C 300.777344 50.980469 303.085938 53.804688 303.085938 57.417969 L 303.085938 140.207031 C 303.085938 140.574219 302.792969 140.867188 302.425781 140.867188 " fill-opacity="1" fill-rule="nonzero"/><path fill="#caddff" d="M 61.667969 253.949219 L 46.996094 252.738281 C 45.503906 252.613281 44.421875 251.277344 44.421875 249.558594 L 44.421875 87.570312 C 44.421875 85.351562 46.195312 83.453125 48.121094 83.613281 L 62.796875 84.824219 C 64.285156 84.945312 65.367188 86.28125 65.367188 88 L 65.367188 249.992188 C 65.367188 252.210938 63.59375 254.109375 61.667969 253.949219 " fill-opacity="1" fill-rule="nonzero"/><path fill="#caddff" d="M 91.027344 255.042969 L 76.355469 253.828125 C 74.863281 253.707031 73.78125 252.371094 73.78125 250.652344 L 73.78125 114.96875 C 73.78125 112.75 75.554688 110.851562 77.480469 111.011719 L 92.15625 112.222656 C 93.644531 112.347656 94.730469 113.683594 94.730469 115.398438 L 94.730469 251.085938 C 94.730469 253.304688 92.957031 255.199219 91.027344 255.042969 " fill-opacity="1" fill-rule="nonzero"/><path fill="#caddff" d="M 120.390625 256.523438 L 105.714844 255.316406 C 104.222656 255.191406 103.140625 253.851562 103.140625 252.136719 L 103.140625 153.660156 C 103.140625 151.441406 104.914062 149.542969 106.839844 149.703125 L 121.515625 150.914062 C 123.003906 151.039062 124.089844 152.375 124.089844 154.09375 L 124.089844 252.570312 C 124.089844 254.789062 122.316406 256.683594 120.390625 256.523438 " fill-opacity="1" fill-rule="nonzero"/><path fill="#caddff" d="M 148.710938 258.796875 L 134.035156 257.585938 C 132.546875 257.464844 131.460938 256.125 131.460938 254.410156 L 131.460938 178.539062 C 131.460938 176.320312 133.234375 174.421875 135.160156 174.582031 L 149.835938 175.792969 C 151.324219 175.917969 152.410156 177.253906 152.410156 178.972656 L 152.410156 254.839844 C 152.410156 257.0625 150.636719 258.957031 148.710938 258.796875 " fill-opacity="1" fill-rule="nonzero"/><path fill="#99b9ff" d="M 176.339844 262.253906 L 161.664062 261.042969 C 160.175781 260.917969 159.089844 259.582031 159.089844 257.863281 L 159.089844 216.261719 C 159.089844 214.039062 160.863281 212.140625 162.792969 212.300781 L 177.464844 213.515625 C 178.953125 213.636719 180.035156 214.972656 180.035156 216.695312 L 180.035156 258.296875 C 180.035156 260.515625 178.265625 262.414062 176.339844 262.253906 " fill-opacity="1" fill-rule="nonzero"/><path fill="#99b9ff" d="M 203.964844 264.527344 L 189.289062 263.3125 C 187.800781 263.191406 186.71875 261.855469 186.71875 260.136719 L 186.71875 234.707031 C 186.71875 232.488281 188.492188 230.59375 190.417969 230.75 L 205.089844 231.960938 C 206.582031 232.085938 207.664062 233.421875 207.664062 235.140625 L 207.664062 260.570312 C 207.664062 262.789062 205.890625 264.683594 203.964844 264.527344 " fill-opacity="1" fill-rule="nonzero"/><path fill="#99b9ff" d="M 231.59375 267.585938 L 216.917969 266.375 C 215.425781 266.253906 214.34375 264.914062 214.34375 263.199219 L 214.34375 248.640625 C 214.34375 246.417969 216.121094 244.523438 218.042969 244.683594 L 232.71875 245.894531 C 234.210938 246.015625 235.292969 247.355469 235.292969 249.074219 L 235.292969 263.628906 C 235.292969 265.851562 233.519531 267.746094 231.59375 267.585938 " fill-opacity="1" fill-rule="nonzero"/><path fill="#99b9ff" d="M 258.875 270.253906 L 244.203125 269.042969 C 242.710938 268.917969 241.625 267.582031 241.625 265.863281 L 241.625 258.585938 C 241.625 256.367188 243.398438 254.46875 245.328125 254.625 L 260 255.839844 C 261.492188 255.960938 262.574219 257.300781 262.574219 259.019531 L 262.574219 266.296875 C 262.574219 268.515625 260.800781 270.414062 258.875 270.253906 " fill-opacity="1" fill-rule="nonzero"/><path fill="#99b9ff" d="M 287.152344 271.375 L 272.476562 270.164062 C 270.988281 270.042969 269.90625 268.703125 269.90625 266.984375 L 269.90625 262.339844 C 269.90625 260.121094 271.679688 258.226562 273.605469 258.382812 L 288.277344 259.597656 C 289.769531 259.71875 290.851562 261.058594 290.851562 262.773438 L 290.851562 267.417969 C 290.851562 269.636719 289.078125 271.535156 287.152344 271.375 " fill-opacity="1" fill-rule="nonzero"/><path fill="#475be8" d="M 263.089844 228.648438 L 246.070312 212.066406 C 245.238281 211.257812 243.902344 211.679688 243.605469 212.847656 L 237.949219 235.042969 C 237.648438 236.222656 238.613281 237.316406 239.714844 237.058594 L 262.316406 231.761719 C 263.648438 231.449219 264.101562 229.636719 263.089844 228.648438 " fill-opacity="1" fill-rule="nonzero"/><path fill="#475be8" d="M 242.761719 217.933594 L 240.289062 230.023438 C 240.289062 230.023438 149.523438 204.199219 131.285156 113.84375 C 131.203125 113.425781 131.550781 113.046875 131.972656 113.09375 L 141.097656 114.222656 C 141.726562 114.300781 142.261719 114.714844 142.496094 115.304688 C 164.003906 169.507812 195.585938 206.800781 242.761719 217.933594 " fill-opacity="1" fill-rule="nonzero"/><path fill="#475be8" d="M 233.734375 130.507812 C 237.375 130.515625 240.457031 125.125 240.46875 118.734375 C 240.484375 112.347656 237.417969 106.941406 233.78125 106.933594 C 230.144531 106.925781 227.0625 112.316406 227.050781 118.707031 C 227.035156 125.097656 230.097656 130.5 233.734375 130.507812 Z M 233.800781 98.632812 C 241.382812 98.652344 247.300781 107.488281 247.273438 118.75 C 247.253906 130.011719 241.296875 138.824219 233.71875 138.808594 C 226.136719 138.792969 220.21875 129.957031 220.242188 118.691406 C 220.265625 107.429688 226.222656 98.621094 233.800781 98.632812 " fill-opacity="1" fill-rule="nonzero"/><path fill="#475be8" d="M 272.324219 163.144531 C 275.960938 163.148438 279.042969 157.761719 279.058594 151.371094 C 279.070312 144.980469 276.007812 139.574219 272.371094 139.570312 C 268.734375 139.558594 265.652344 144.953125 265.636719 151.34375 C 265.625 157.734375 268.6875 163.132812 272.324219 163.144531 Z M 272.390625 131.269531 C 279.96875 131.285156 285.886719 140.121094 285.863281 151.386719 C 285.839844 162.648438 279.886719 171.457031 272.304688 171.441406 C 264.726562 171.425781 258.808594 162.589844 258.832031 151.328125 C 258.855469 140.0625 264.8125 131.253906 272.390625 131.269531 " fill-opacity="1" fill-rule="nonzero"/><path fill="#475be8" d="M 269.980469 101.039062 L 229.546875 166.125 C 228.140625 168.390625 229.765625 171.320312 232.433594 171.324219 L 232.445312 171.324219 C 233.625 171.328125 234.722656 170.71875 235.347656 169.71875 L 275.769531 104.628906 C 277.175781 102.363281 275.550781 99.433594 272.882812 99.429688 C 271.699219 99.425781 270.601562 100.035156 269.980469 101.039062 " fill-opacity="1" fill-rule="nonzero"/><path fill="#000000" d="M 126.332031 183.808594 L 21.144531 178.253906 C 16.824219 178.027344 13.261719 180.902344 13.1875 184.675781 L 10.273438 336.085938 C 10.203125 339.859375 13.644531 343.101562 17.96875 343.328125 L 117.734375 349.757812 C 122.054688 349.988281 131.039062 346.234375 131.113281 342.460938 L 134.027344 191.054688 C 134.097656 187.28125 130.652344 184.035156 126.332031 183.808594 " fill-opacity="1" fill-rule="nonzero"/><path fill="#99b9ff" d="M 117.851562 182.878906 L 15.203125 177.460938 C 10.988281 177.238281 7.507812 180.148438 7.4375 183.964844 L 4.492188 336.964844 C 4.417969 340.777344 7.777344 344.050781 11.992188 344.273438 L 114.640625 349.691406 C 118.855469 349.914062 122.335938 347 122.410156 343.1875 L 125.351562 190.1875 C 125.425781 186.375 122.066406 183.101562 117.851562 182.878906 " fill-opacity="1" fill-rule="nonzero"/><path fill="#000000" d="M 14.761719 178.113281 C 12.929688 178.113281 11.191406 178.761719 9.941406 179.925781 C 8.78125 181.007812 8.125 182.445312 8.097656 183.976562 L 5.152344 336.976562 C 5.085938 340.433594 8.171875 343.40625 12.027344 343.613281 L 114.675781 349.027344 C 116.652344 349.136719 118.558594 348.476562 119.902344 347.226562 C 121.0625 346.148438 121.71875 344.707031 121.746094 343.175781 L 124.691406 190.175781 C 124.757812 186.71875 121.671875 183.746094 117.816406 183.539062 L 15.167969 178.121094 C 15.03125 178.117188 14.894531 178.113281 14.761719 178.113281 Z M 115.082031 350.363281 C 114.925781 350.363281 114.765625 350.359375 114.605469 350.347656 L 11.960938 344.933594 C 7.398438 344.691406 3.75 341.113281 3.832031 336.953125 L 6.773438 183.953125 C 6.8125 182.058594 7.617188 180.285156 9.042969 178.957031 C 10.644531 177.464844 12.90625 176.679688 15.238281 176.800781 L 117.886719 182.21875 C 122.445312 182.460938 126.09375 186.042969 126.011719 190.203125 L 123.070312 343.199219 C 123.035156 345.09375 122.226562 346.867188 120.804688 348.195312 C 119.308594 349.585938 117.246094 350.363281 115.082031 350.363281 " fill-opacity="1" fill-rule="nonzero"/><path fill="#475be8" d="M 32.613281 282.910156 L 19.820312 282.234375 C 17.488281 282.113281 15.636719 280.136719 15.679688 277.820312 L 15.917969 265.5625 C 15.960938 263.25 17.886719 261.476562 20.214844 261.597656 L 33.011719 262.273438 C 35.339844 262.394531 37.191406 264.371094 37.148438 266.683594 L 36.914062 278.941406 C 36.867188 281.257812 34.941406 283.03125 32.613281 282.910156 " fill-opacity="1" fill-rule="nonzero"/><path fill="#475be8" d="M 32.097656 309.648438 L 19.304688 308.972656 C 16.972656 308.851562 15.121094 306.875 15.167969 304.5625 L 15.402344 292.300781 C 15.445312 289.988281 17.371094 288.214844 19.699219 288.335938 L 32.496094 289.011719 C 34.824219 289.132812 36.679688 291.109375 36.632812 293.421875 L 36.398438 305.679688 C 36.355469 307.996094 34.429688 309.773438 32.097656 309.648438 " fill-opacity="1" fill-rule="nonzero"/><path fill="#475be8" d="M 31.582031 336.609375 L 18.785156 335.9375 C 16.457031 335.8125 14.601562 333.835938 14.648438 331.523438 L 14.882812 319.265625 C 14.929688 316.953125 16.851562 315.175781 19.183594 315.296875 L 31.976562 315.972656 C 34.308594 316.097656 36.160156 318.070312 36.113281 320.386719 L 35.878906 332.644531 C 35.835938 334.957031 33.910156 336.734375 31.582031 336.609375 " fill-opacity="1" fill-rule="nonzero"/><path fill="#475be8" d="M 58.050781 284.253906 L 45.253906 283.578125 C 42.925781 283.453125 41.070312 281.480469 41.117188 279.164062 L 41.351562 266.90625 C 41.394531 264.59375 43.320312 262.816406 45.652344 262.9375 L 58.445312 263.613281 C 60.777344 263.738281 62.628906 265.710938 62.582031 268.027344 L 62.347656 280.285156 C 62.304688 282.601562 60.378906 284.375 58.050781 284.253906 " fill-opacity="1" fill-rule="nonzero"/><path fill="#475be8" d="M 57.535156 310.992188 L 44.738281 310.316406 C 42.410156 310.191406 40.558594 308.21875 40.601562 305.902344 L 40.835938 293.644531 C 40.882812 291.332031 42.804688 289.554688 45.136719 289.675781 L 57.929688 290.355469 C 60.261719 290.476562 62.113281 292.453125 62.070312 294.765625 L 61.832031 307.023438 C 61.789062 309.339844 59.863281 311.113281 57.535156 310.992188 " fill-opacity="1" fill-rule="nonzero"/><path fill="#475be8" d="M 57.015625 337.953125 L 44.21875 337.277344 C 41.890625 337.15625 40.039062 335.179688 40.082031 332.867188 L 40.320312 320.605469 C 40.363281 318.292969 42.289062 316.519531 44.617188 316.640625 L 57.414062 317.316406 C 59.742188 317.441406 61.59375 319.414062 61.550781 321.726562 L 61.316406 333.984375 C 61.269531 336.300781 59.34375 338.078125 57.015625 337.953125 " fill-opacity="1" fill-rule="nonzero"/><path fill="#475be8" d="M 83.484375 285.59375 L 70.6875 284.917969 C 68.359375 284.796875 66.507812 282.820312 66.550781 280.507812 L 66.789062 268.25 C 66.832031 265.9375 68.757812 264.160156 71.085938 264.28125 L 83.882812 264.957031 C 86.210938 265.082031 88.0625 267.054688 88.019531 269.371094 L 87.785156 281.628906 C 87.738281 283.941406 85.8125 285.71875 83.484375 285.59375 " fill-opacity="1" fill-rule="nonzero"/><path fill="#475be8" d="M 82.96875 312.335938 L 70.175781 311.660156 C 67.84375 311.535156 65.992188 309.558594 66.039062 307.246094 L 66.273438 294.988281 C 66.316406 292.671875 68.242188 290.898438 70.570312 291.023438 L 83.367188 291.695312 C 85.695312 291.820312 87.550781 293.792969 87.503906 296.109375 L 87.269531 308.367188 C 87.222656 310.679688 85.300781 312.457031 82.96875 312.335938 " fill-opacity="1" fill-rule="nonzero"/><path fill="#475be8" d="M 82.449219 339.296875 L 69.65625 338.621094 C 67.328125 338.496094 65.472656 336.523438 65.519531 334.207031 L 65.753906 321.953125 C 65.800781 319.636719 67.722656 317.859375 70.054688 317.980469 L 82.847656 318.660156 C 85.179688 318.78125 87.03125 320.757812 86.984375 323.070312 L 86.75 335.328125 C 86.707031 337.644531 84.78125 339.417969 82.449219 339.296875 " fill-opacity="1" fill-rule="nonzero"/><path fill="#475be8" d="M 108.785156 286.929688 L 95.992188 286.253906 C 93.660156 286.132812 91.808594 284.15625 91.851562 281.84375 L 92.089844 269.582031 C 92.132812 267.269531 94.058594 265.492188 96.386719 265.617188 L 109.183594 266.292969 C 111.511719 266.414062 113.367188 268.390625 113.320312 270.703125 L 113.085938 282.964844 C 113.039062 285.277344 111.117188 287.054688 108.785156 286.929688 " fill-opacity="1" fill-rule="nonzero"/><path fill="#475be8" d="M 33.351562 256.144531 L 20.558594 255.46875 C 18.226562 255.347656 16.375 253.371094 16.421875 251.054688 L 16.65625 238.796875 C 16.699219 236.484375 18.625 234.707031 20.953125 234.832031 L 33.75 235.507812 C 36.082031 235.628906 37.933594 237.605469 37.886719 239.917969 L 37.652344 252.175781 C 37.605469 254.492188 35.683594 256.269531 33.351562 256.144531 " fill-opacity="1" fill-rule="nonzero"/><path fill="#475be8" d="M 58.789062 257.488281 L 45.992188 256.8125 C 43.664062 256.6875 41.8125 254.714844 41.855469 252.398438 L 42.089844 240.140625 C 42.136719 237.828125 44.058594 236.050781 46.390625 236.171875 L 59.1875 236.851562 C 61.515625 236.972656 63.367188 238.949219 63.324219 241.261719 L 63.085938 253.519531 C 63.042969 255.835938 61.117188 257.609375 58.789062 257.488281 " fill-opacity="1" fill-rule="nonzero"/><path fill="#475be8" d="M 84.222656 258.832031 L 71.429688 258.152344 C 69.097656 258.03125 67.246094 256.054688 67.292969 253.742188 L 67.527344 241.484375 C 67.570312 239.167969 69.496094 237.394531 71.824219 237.515625 L 84.621094 238.191406 C 86.949219 238.316406 88.804688 240.289062 88.757812 242.605469 L 88.523438 254.863281 C 88.476562 257.175781 86.554688 258.953125 84.222656 258.832031 " fill-opacity="1" fill-rule="nonzero"/><path fill="#475be8" d="M 109.527344 260.164062 L 96.730469 259.488281 C 94.398438 259.367188 92.546875 257.390625 92.59375 255.078125 L 92.828125 242.820312 C 92.875 240.503906 94.796875 238.726562 97.128906 238.851562 L 109.921875 239.527344 C 112.253906 239.648438 114.105469 241.625 114.058594 243.941406 L 113.824219 256.199219 C 113.78125 258.511719 111.855469 260.289062 109.527344 260.164062 " fill-opacity="1" fill-rule="nonzero"/><path fill="#475be8" d="M 107.75 340.777344 L 94.953125 340.101562 C 92.625 339.980469 90.773438 338.003906 90.816406 335.691406 L 91.574219 296.324219 C 91.621094 294.007812 93.542969 292.234375 95.875 292.355469 L 108.667969 293.03125 C 111 293.152344 112.851562 295.128906 112.808594 297.445312 L 112.046875 336.8125 C 112.003906 339.125 110.078125 340.902344 107.75 340.777344 " fill-opacity="1" fill-rule="nonzero"/><path fill="#caddff" d="M 109.175781 228.742188 L 22.558594 224.167969 C 19.5625 224.011719 17.179688 221.46875 17.238281 218.496094 L 17.6875 195.066406 C 17.746094 192.09375 20.21875 189.8125 23.214844 189.96875 L 109.835938 194.539062 C 112.832031 194.699219 115.210938 197.238281 115.15625 200.210938 L 114.703125 223.640625 C 114.648438 226.613281 112.171875 228.898438 109.175781 228.742188 " fill-opacity="1" fill-rule="nonzero"/><path fill="#ffffff" d="M 67.585938 192.203125 L 96.40625 228.210938 L 82.363281 227.234375 L 53.660156 191.46875 L 67.585938 192.203125 " fill-opacity="1" fill-rule="nonzero"/><path fill="#ffffff" d="M 46.148438 191.070312 L 74.894531 226.972656 C 69.804688 226.964844 65.304688 226.332031 65.304688 226.332031 L 37.136719 190.59375 L 46.148438 191.070312 " fill-opacity="1" fill-rule="nonzero"/><path fill="#000000" d="M 22.921875 190.621094 C 21.742188 190.621094 20.636719 191.050781 19.785156 191.84375 C 18.882812 192.679688 18.371094 193.832031 18.347656 195.082031 L 17.898438 218.507812 C 17.847656 221.125 19.953125 223.367188 22.589844 223.507812 L 109.210938 228.078125 C 110.488281 228.152344 111.695312 227.714844 112.605469 226.867188 C 113.507812 226.027344 114.019531 224.875 114.042969 223.625 L 114.492188 200.199219 C 114.542969 197.582031 112.4375 195.339844 109.800781 195.203125 L 23.179688 190.628906 C 23.09375 190.625 23.007812 190.621094 22.921875 190.621094 Z M 109.472656 229.410156 C 109.363281 229.410156 109.253906 229.40625 109.140625 229.402344 L 22.523438 224.828125 C 19.179688 224.652344 16.511719 221.804688 16.574219 218.480469 L 17.027344 195.054688 C 17.058594 193.445312 17.714844 191.957031 18.882812 190.875 C 20.0625 189.777344 21.613281 189.222656 23.25 189.308594 L 109.867188 193.878906 C 113.210938 194.054688 115.878906 196.902344 115.816406 200.226562 L 115.363281 223.652344 C 115.332031 225.261719 114.675781 226.75 113.507812 227.835938 C 112.410156 228.855469 110.988281 229.410156 109.472656 229.410156 " fill-opacity="1" fill-rule="nonzero"/><path fill="#000000" d="M 146.867188 63.160156 C 146.867188 75.449219 136.90625 85.410156 124.617188 85.410156 C 112.328125 85.410156 102.367188 75.449219 102.367188 63.160156 C 102.367188 50.871094 112.328125 40.910156 124.617188 40.910156 C 136.90625 40.910156 146.867188 50.871094 146.867188 63.160156 " fill-opacity="1" fill-rule="nonzero"/><path fill="#99b9ff" d="M 147.15625 62.5 C 147.15625 74.421875 137.492188 84.085938 125.570312 84.085938 C 113.644531 84.085938 103.980469 74.421875 103.980469 62.5 C 103.980469 50.574219 113.644531 40.910156 125.570312 40.910156 C 137.492188 40.910156 147.15625 50.574219 147.15625 62.5 " fill-opacity="1" fill-rule="nonzero"/><path fill="#000000" d="M 125.570312 41.570312 C 114.03125 41.570312 104.644531 50.957031 104.644531 62.5 C 104.644531 74.035156 114.03125 83.425781 125.570312 83.425781 C 137.109375 83.425781 146.5 74.035156 146.5 62.5 C 146.5 50.957031 137.109375 41.570312 125.570312 41.570312 Z M 125.570312 84.746094 C 113.300781 84.746094 103.320312 74.765625 103.320312 62.5 C 103.320312 50.226562 113.300781 40.246094 125.570312 40.246094 C 137.839844 40.246094 147.820312 50.226562 147.820312 62.5 C 147.820312 74.765625 137.839844 84.746094 125.570312 84.746094 " fill-opacity="1" fill-rule="nonzero"/><path fill="#ffffff" d="M 143.6875 62.5 C 143.6875 72.503906 135.574219 80.617188 125.570312 80.617188 C 115.5625 80.617188 107.453125 72.503906 107.453125 62.5 C 107.453125 52.496094 115.5625 44.382812 125.570312 44.382812 C 135.574219 44.382812 143.6875 52.496094 143.6875 62.5 " fill-opacity="1" fill-rule="nonzero"/><path fill="#475be8" d="M 123.910156 75.292969 L 123.910156 72.3125 C 121.808594 72.21875 119.769531 71.652344 118.578125 70.964844 L 119.519531 67.292969 C 120.835938 68.015625 122.683594 68.675781 124.722656 68.675781 C 126.511719 68.675781 127.734375 67.984375 127.734375 66.730469 C 127.734375 65.539062 126.730469 64.789062 124.410156 64.003906 C 121.054688 62.875 118.765625 61.308594 118.765625 58.265625 C 118.765625 55.503906 120.710938 53.34375 124.066406 52.6875 L 124.066406 49.707031 L 127.136719 49.707031 L 127.136719 52.464844 C 129.238281 52.5625 130.648438 53 131.683594 53.5 L 130.773438 57.042969 C 129.960938 56.699219 128.515625 55.976562 126.257812 55.976562 C 124.222656 55.976562 123.5625 56.855469 123.5625 57.730469 C 123.5625 58.769531 124.660156 59.425781 127.324219 60.429688 C 131.058594 61.746094 132.5625 63.472656 132.5625 66.292969 C 132.5625 69.082031 130.585938 71.464844 126.980469 72.089844 L 126.980469 75.292969 L 123.910156 75.292969 " fill-opacity="1" fill-rule="nonzero"/><path fill="#000000" d="M 193.324219 106.382812 C 193.324219 116.515625 185.109375 124.730469 174.972656 124.730469 C 164.839844 124.730469 156.628906 116.515625 156.628906 106.382812 C 156.628906 96.246094 164.839844 88.03125 174.972656 88.03125 C 185.109375 88.03125 193.324219 96.246094 193.324219 106.382812 " fill-opacity="1" fill-rule="nonzero"/><path fill="#99b9ff" d="M 193.5625 105.835938 C 193.5625 115.667969 185.59375 123.636719 175.757812 123.636719 C 165.925781 123.636719 157.957031 115.667969 157.957031 105.835938 C 157.957031 96.003906 165.925781 88.03125 175.757812 88.03125 C 185.59375 88.03125 193.5625 96.003906 193.5625 105.835938 " fill-opacity="1" fill-rule="nonzero"/><path fill="#000000" d="M 175.761719 88.695312 C 166.304688 88.695312 158.617188 96.382812 158.617188 105.835938 C 158.617188 115.289062 166.304688 122.980469 175.761719 122.980469 C 185.210938 122.980469 192.898438 115.289062 192.898438 105.835938 C 192.898438 96.382812 185.210938 88.695312 175.761719 88.695312 Z M 175.761719 124.300781 C 165.578125 124.300781 157.292969 116.019531 157.292969 105.835938 C 157.292969 95.65625 165.578125 87.371094 175.761719 87.371094 C 185.941406 87.371094 194.222656 95.65625 194.222656 105.835938 C 194.222656 116.019531 185.941406 124.300781 175.761719 124.300781 " fill-opacity="1" fill-rule="nonzero"/><path fill="#ffffff" d="M 190.699219 105.835938 C 190.699219 114.089844 184.011719 120.777344 175.757812 120.777344 C 167.507812 120.777344 160.820312 114.089844 160.820312 105.835938 C 160.820312 97.585938 167.507812 90.894531 175.757812 90.894531 C 184.011719 90.894531 190.699219 97.585938 190.699219 105.835938 " fill-opacity="1" fill-rule="nonzero"/><path fill="#475be8" d="M 174.390625 116.386719 L 174.390625 113.929688 C 172.65625 113.851562 170.976562 113.386719 169.992188 112.816406 L 170.769531 109.792969 C 171.855469 110.386719 173.382812 110.929688 175.0625 110.929688 C 176.535156 110.929688 177.542969 110.359375 177.542969 109.328125 C 177.542969 108.34375 176.714844 107.722656 174.804688 107.078125 C 172.035156 106.144531 170.148438 104.855469 170.148438 102.34375 C 170.148438 100.070312 171.753906 98.289062 174.515625 97.742188 L 174.515625 95.289062 L 177.050781 95.289062 L 177.050781 97.5625 C 178.785156 97.640625 179.949219 98 180.800781 98.417969 L 180.050781 101.335938 C 179.378906 101.054688 178.1875 100.460938 176.328125 100.460938 C 174.644531 100.460938 174.105469 101.183594 174.105469 101.90625 C 174.105469 102.761719 175.011719 103.304688 177.207031 104.128906 C 180.285156 105.214844 181.527344 106.636719 181.527344 108.964844 C 181.527344 111.265625 179.898438 113.230469 176.921875 113.75 L 176.921875 116.386719 L 174.390625 116.386719 " fill-opacity="1" fill-rule="nonzero"/><path fill="#000000" d="M 206.890625 49.742188 C 206.890625 64.433594 194.980469 76.34375 180.289062 76.34375 C 165.597656 76.34375 153.6875 64.433594 153.6875 49.742188 C 153.6875 35.050781 165.597656 23.140625 180.289062 23.140625 C 194.980469 23.140625 206.890625 35.050781 206.890625 49.742188 " fill-opacity="1" fill-rule="nonzero"/><path fill="#99b9ff" d="M 207.238281 48.953125 C 207.238281 63.207031 195.683594 74.765625 181.425781 74.765625 C 167.167969 74.765625 155.613281 63.207031 155.613281 48.953125 C 155.613281 34.695312 167.167969 23.140625 181.425781 23.140625 C 195.683594 23.140625 207.238281 34.695312 207.238281 48.953125 " fill-opacity="1" fill-rule="nonzero"/><path fill="#000000" d="M 181.425781 23.800781 C 167.554688 23.800781 156.273438 35.085938 156.273438 48.953125 C 156.273438 62.820312 167.554688 74.105469 181.425781 74.105469 C 195.292969 74.105469 206.578125 62.820312 206.578125 48.953125 C 206.578125 35.085938 195.292969 23.800781 181.425781 23.800781 Z M 181.425781 75.429688 C 166.828125 75.429688 154.953125 63.550781 154.953125 48.953125 C 154.953125 34.355469 166.828125 22.480469 181.425781 22.480469 C 196.023438 22.480469 207.898438 34.355469 207.898438 48.953125 C 207.898438 63.550781 196.023438 75.429688 181.425781 75.429688 " fill-opacity="1" fill-rule="nonzero"/><path fill="#ffffff" d="M 203.089844 48.953125 C 203.089844 60.917969 193.390625 70.613281 181.425781 70.613281 C 169.460938 70.613281 159.761719 60.917969 159.761719 48.953125 C 159.761719 36.988281 169.460938 27.289062 181.425781 27.289062 C 193.390625 27.289062 203.089844 36.988281 203.089844 48.953125 " fill-opacity="1" fill-rule="nonzero"/><path fill="#475be8" d="M 179.4375 64.246094 L 179.4375 60.683594 C 176.925781 60.574219 174.488281 59.898438 173.066406 59.074219 L 174.191406 54.6875 C 175.765625 55.550781 177.976562 56.335938 180.414062 56.335938 C 182.550781 56.335938 184.011719 55.511719 184.011719 54.011719 C 184.011719 52.589844 182.8125 51.6875 180.039062 50.753906 C 176.027344 49.402344 173.292969 47.527344 173.292969 43.894531 C 173.292969 40.59375 175.613281 38.007812 179.625 37.21875 L 179.625 33.660156 L 183.296875 33.660156 L 183.296875 36.957031 C 185.8125 37.070312 187.5 37.59375 188.734375 38.195312 L 187.648438 42.429688 C 186.671875 42.019531 184.949219 41.15625 182.25 41.15625 C 179.8125 41.15625 179.027344 42.203125 179.027344 43.253906 C 179.027344 44.492188 180.335938 45.277344 183.523438 46.480469 C 187.984375 48.054688 189.785156 50.113281 189.785156 53.488281 C 189.785156 56.824219 187.421875 59.671875 183.113281 60.421875 L 183.113281 64.246094 L 179.4375 64.246094 " fill-opacity="1" fill-rule="nonzero"/><path fill="#475be8" d="M 263.167969 288.976562 C 269.96875 290.324219 274.660156 296.855469 273.648438 303.570312 C 272.636719 310.289062 266.304688 314.640625 259.5 313.296875 C 252.699219 311.949219 248.003906 305.414062 249.015625 298.703125 C 250.027344 291.988281 256.363281 287.632812 263.167969 288.976562 Z M 236.9375 293.878906 L 236.226562 298.601562 L 241.152344 300.746094 C 241.1875 301.878906 241.308594 303 241.53125 304.097656 L 237.167969 306.832031 L 238.941406 311.394531 L 244.167969 310.847656 C 244.753906 311.828125 245.425781 312.761719 246.167969 313.636719 L 243.871094 318.257812 L 247.660156 321.4375 L 251.773438 318.351562 C 252.753906 318.925781 253.789062 319.421875 254.867188 319.835938 L 255.257812 325.09375 L 260.042969 326.042969 L 261.949219 321.238281 C 263.085938 321.261719 264.207031 321.191406 265.300781 321.03125 L 268.269531 325.515625 L 272.769531 323.972656 L 271.957031 318.738281 C 272.914062 318.195312 273.820312 317.574219 274.660156 316.882812 L 279.421875 319.398438 L 282.433594 315.785156 L 279.125 311.53125 C 279.648438 310.582031 280.097656 309.574219 280.460938 308.519531 L 285.730469 308.394531 L 286.441406 303.671875 L 281.515625 301.527344 C 281.480469 300.394531 281.355469 299.273438 281.136719 298.175781 L 285.5 295.441406 L 283.722656 290.878906 L 278.503906 291.425781 C 277.910156 290.445312 277.238281 289.511719 276.496094 288.632812 L 278.792969 284.015625 L 275.003906 280.835938 L 270.890625 283.917969 C 269.914062 283.347656 268.878906 282.851562 267.800781 282.4375 L 267.410156 277.175781 L 262.625 276.230469 L 260.714844 281.035156 C 259.578125 281.011719 258.460938 281.078125 257.367188 281.242188 L 254.394531 276.757812 L 249.898438 278.300781 L 250.707031 283.535156 C 249.75 284.074219 248.847656 284.699219 248.003906 285.390625 L 243.242188 282.871094 L 240.234375 286.488281 L 243.542969 290.742188 C 243.015625 291.691406 242.566406 292.699219 242.207031 293.753906 L 236.9375 293.878906 " fill-opacity="1" fill-rule="nonzero"/><path fill="#000000" d="M 262.097656 291.367188 C 259.761719 291.367188 257.519531 292.0625 255.609375 293.402344 C 253.148438 295.136719 251.539062 297.753906 251.085938 300.773438 C 250.128906 307.132812 254.59375 313.34375 261.046875 314.617188 C 264.207031 315.242188 267.347656 314.601562 269.886719 312.816406 C 272.351562 311.082031 273.957031 308.464844 274.414062 305.445312 C 275.375 299.085938 270.90625 292.875 264.453125 291.597656 C 263.664062 291.441406 262.875 291.367188 262.097656 291.367188 Z M 263.40625 316.175781 C 262.539062 316.175781 261.664062 316.089844 260.789062 315.914062 C 253.65625 314.503906 248.714844 307.621094 249.777344 300.574219 C 250.289062 297.195312 252.089844 294.265625 254.847656 292.320312 C 257.691406 290.324219 261.191406 289.609375 264.710938 290.300781 C 271.84375 291.710938 276.785156 298.59375 275.722656 305.644531 C 275.210938 309.023438 273.410156 311.953125 270.648438 313.894531 C 268.515625 315.398438 266.007812 316.175781 263.40625 316.175781 Z M 257.296875 326.519531 L 261.046875 327.257812 L 262.753906 322.964844 C 262.855469 322.710938 263.097656 322.554688 263.382812 322.546875 C 264.480469 322.574219 265.570312 322.503906 266.621094 322.347656 C 266.871094 322.308594 267.125 322.421875 267.269531 322.636719 L 269.957031 326.695312 L 273.449219 325.5 L 272.722656 320.8125 C 272.683594 320.539062 272.8125 320.273438 273.050781 320.136719 C 273.96875 319.613281 274.84375 319.011719 275.660156 318.34375 C 275.867188 318.171875 276.15625 318.144531 276.390625 318.269531 L 280.675781 320.539062 L 283.003906 317.742188 L 280.019531 313.90625 C 279.855469 313.699219 279.835938 313.414062 279.960938 313.183594 C 280.46875 312.273438 280.902344 311.296875 281.253906 310.277344 C 281.339844 310.015625 281.585938 309.835938 281.863281 309.832031 L 286.574219 309.71875 L 287.128906 306.046875 L 282.667969 304.105469 C 282.433594 304.003906 282.277344 303.773438 282.269531 303.519531 C 282.238281 302.421875 282.113281 301.332031 281.90625 300.277344 C 281.851562 300.007812 281.972656 299.734375 282.203125 299.589844 L 286.101562 297.144531 L 284.707031 293.558594 L 279.988281 294.054688 C 279.730469 294.074219 279.484375 293.957031 279.351562 293.738281 C 278.78125 292.792969 278.125 291.878906 277.40625 291.03125 C 277.238281 290.832031 277.207031 290.546875 277.324219 290.3125 L 279.386719 286.160156 L 276.402344 283.648438 L 272.707031 286.421875 C 272.496094 286.582031 272.207031 286.597656 271.976562 286.460938 C 271.035156 285.910156 270.023438 285.425781 268.980469 285.027344 C 268.742188 284.933594 268.578125 284.714844 268.558594 284.457031 L 268.203125 279.699219 L 264.453125 278.957031 L 262.746094 283.25 C 262.644531 283.507812 262.386719 283.667969 262.121094 283.667969 C 261.015625 283.644531 259.929688 283.714844 258.882812 283.871094 C 258.621094 283.90625 258.375 283.796875 258.230469 283.582031 L 255.542969 279.523438 L 252.050781 280.71875 L 252.777344 285.40625 C 252.820312 285.675781 252.691406 285.945312 252.449219 286.082031 C 251.535156 286.601562 250.652344 287.203125 249.839844 287.875 C 249.632812 288.042969 249.347656 288.074219 249.109375 287.949219 L 244.824219 285.679688 L 242.5 288.476562 L 245.480469 292.308594 C 245.644531 292.515625 245.664062 292.804688 245.539062 293.035156 C 245.03125 293.945312 244.601562 294.921875 244.25 295.941406 C 244.15625 296.203125 243.914062 296.378906 243.636719 296.386719 L 238.925781 296.5 L 238.371094 300.171875 L 242.832031 302.113281 C 243.070312 302.214844 243.222656 302.441406 243.226562 302.699219 C 243.261719 303.792969 243.386719 304.886719 243.59375 305.9375 C 243.648438 306.207031 243.53125 306.480469 243.296875 306.628906 L 239.398438 309.074219 L 240.792969 312.65625 L 245.515625 312.164062 C 245.769531 312.140625 246.015625 312.261719 246.148438 312.480469 C 246.71875 313.425781 247.371094 314.335938 248.089844 315.183594 C 248.261719 315.386719 248.296875 315.667969 248.179688 315.90625 L 246.113281 320.058594 L 249.101562 322.566406 L 252.792969 319.796875 C 253.003906 319.636719 253.292969 319.617188 253.523438 319.753906 C 254.46875 320.308594 255.476562 320.789062 256.519531 321.191406 C 256.761719 321.28125 256.925781 321.503906 256.941406 321.757812 Z M 261.460938 328.675781 C 261.414062 328.675781 261.375 328.671875 261.332031 328.664062 L 256.546875 327.71875 C 256.253906 327.660156 256.035156 327.414062 256.015625 327.117188 L 255.65625 322.269531 C 254.820312 321.933594 254.011719 321.546875 253.238281 321.113281 L 249.476562 323.941406 C 249.230469 324.125 248.886719 324.113281 248.652344 323.917969 L 244.863281 320.734375 C 244.628906 320.539062 244.5625 320.210938 244.699219 319.9375 L 246.804688 315.703125 C 246.238281 315.007812 245.714844 314.277344 245.238281 313.523438 L 240.425781 314.027344 C 240.128906 314.050781 239.851562 313.886719 239.742188 313.605469 L 237.96875 309.042969 C 237.851562 308.75 237.964844 308.414062 238.234375 308.242188 L 242.214844 305.746094 C 242.066406 304.898438 241.964844 304.03125 241.925781 303.160156 L 237.378906 301.183594 C 237.105469 301.0625 236.945312 300.773438 236.988281 300.476562 L 237.699219 295.753906 C 237.746094 295.433594 238.015625 295.199219 238.335938 295.191406 L 243.152344 295.074219 C 243.445312 294.28125 243.789062 293.511719 244.171875 292.78125 L 241.128906 288.867188 C 240.9375 288.621094 240.941406 288.277344 241.140625 288.039062 L 244.152344 284.421875 C 244.351562 284.179688 244.691406 284.113281 244.96875 284.261719 L 249.347656 286.578125 C 250 286.0625 250.6875 285.589844 251.402344 285.164062 L 250.660156 280.375 C 250.613281 280.058594 250.796875 279.75 251.101562 279.648438 L 255.601562 278.105469 C 255.886719 278.007812 256.199219 278.113281 256.367188 278.367188 L 259.105469 282.503906 C 259.949219 282.398438 260.808594 282.34375 261.6875 282.34375 L 263.425781 277.957031 C 263.546875 277.660156 263.859375 277.488281 264.167969 277.554688 L 268.953125 278.5 C 269.246094 278.558594 269.464844 278.800781 269.484375 279.097656 L 269.84375 283.945312 C 270.675781 284.285156 271.488281 284.671875 272.261719 285.101562 L 276.023438 282.277344 C 276.273438 282.09375 276.613281 282.101562 276.847656 282.300781 L 280.636719 285.480469 C 280.867188 285.675781 280.9375 286.007812 280.800781 286.28125 L 278.699219 290.515625 C 279.261719 291.210938 279.785156 291.941406 280.261719 292.695312 L 285.070312 292.191406 C 285.371094 292.164062 285.648438 292.332031 285.757812 292.609375 L 287.53125 297.171875 C 287.648438 297.46875 287.535156 297.804688 287.265625 297.972656 L 283.285156 300.46875 C 283.433594 301.316406 283.53125 302.183594 283.578125 303.058594 L 288.121094 305.035156 C 288.398438 305.15625 288.554688 305.445312 288.515625 305.742188 L 287.800781 310.464844 C 287.753906 310.78125 287.484375 311.019531 287.164062 311.027344 L 282.347656 311.140625 C 282.050781 311.933594 281.710938 312.707031 281.328125 313.4375 L 284.371094 317.351562 C 284.5625 317.59375 284.558594 317.941406 284.355469 318.179688 L 281.347656 321.792969 C 281.148438 322.035156 280.808594 322.105469 280.53125 321.957031 L 276.15625 319.640625 C 275.503906 320.152344 274.8125 320.628906 274.097656 321.054688 L 274.839844 325.84375 C 274.886719 326.160156 274.703125 326.464844 274.398438 326.570312 L 269.902344 328.113281 C 269.617188 328.207031 269.304688 328.101562 269.136719 327.851562 L 266.394531 323.714844 C 265.550781 323.820312 264.6875 323.875 263.816406 323.875 L 262.070312 328.257812 C 261.972656 328.511719 261.726562 328.675781 261.460938 328.675781 " fill-opacity="1" fill-rule="nonzero"/><path fill="#475be8" d="M 190.539062 292.5625 C 202.179688 294.867188 210.207031 306.046875 208.476562 317.539062 C 206.746094 329.027344 195.902344 336.476562 184.261719 334.175781 C 172.621094 331.871094 164.589844 320.691406 166.324219 309.203125 C 168.054688 297.710938 178.894531 290.261719 190.539062 292.5625 Z M 145.652344 300.953125 L 144.433594 309.035156 L 152.863281 312.703125 C 152.921875 314.640625 153.136719 316.554688 153.511719 318.433594 L 146.046875 323.117188 L 149.085938 330.921875 L 158.023438 329.988281 C 159.035156 331.664062 160.183594 333.261719 161.453125 334.761719 L 157.523438 342.667969 L 164.003906 348.109375 L 171.039062 342.832031 C 172.71875 343.8125 174.488281 344.660156 176.335938 345.371094 L 177.003906 354.371094 L 185.191406 355.988281 L 188.457031 347.765625 C 190.402344 347.808594 192.320312 347.6875 194.1875 347.40625 L 199.269531 355.085938 L 206.96875 352.445312 L 205.582031 343.488281 C 207.21875 342.5625 208.765625 341.5 210.210938 340.308594 L 218.355469 344.625 L 223.503906 338.433594 L 217.84375 331.15625 C 218.746094 329.53125 219.507812 327.808594 220.128906 326.003906 L 229.144531 325.785156 L 230.363281 317.703125 L 221.933594 314.039062 C 221.878906 312.097656 221.660156 310.183594 221.289062 308.304688 L 228.75 303.625 L 225.714844 295.8125 L 216.777344 296.75 C 215.765625 295.070312 214.617188 293.476562 213.347656 291.976562 L 217.277344 284.070312 L 210.792969 278.628906 L 203.761719 283.910156 C 202.082031 282.925781 200.3125 282.078125 198.464844 281.371094 L 197.796875 272.371094 L 189.609375 270.75 L 186.34375 278.972656 C 184.398438 278.933594 182.480469 279.050781 180.613281 279.328125 L 175.53125 271.652344 L 167.832031 274.292969 L 169.21875 283.25 C 167.582031 284.175781 166.035156 285.238281 164.589844 286.429688 L 156.445312 282.117188 L 151.296875 288.304688 L 156.957031 295.582031 C 156.054688 297.207031 155.289062 298.929688 154.671875 300.734375 L 145.652344 300.953125 " fill-opacity="1" fill-rule="nonzero"/><path fill="#000000" d="M 188.707031 296.179688 C 184.617188 296.179688 180.683594 297.398438 177.339844 299.75 C 173.015625 302.789062 170.199219 307.378906 169.398438 312.675781 C 167.722656 323.800781 175.535156 334.671875 186.816406 336.898438 C 192.351562 337.996094 197.851562 336.871094 202.308594 333.738281 C 206.632812 330.699219 209.449219 326.109375 210.25 320.8125 C 211.925781 309.6875 204.113281 298.816406 192.832031 296.589844 C 191.449219 296.316406 190.070312 296.179688 188.707031 296.179688 Z M 190.945312 338.632812 C 189.496094 338.632812 188.027344 338.488281 186.558594 338.199219 C 174.59375 335.832031 166.3125 324.292969 168.09375 312.476562 C 168.945312 306.824219 171.957031 301.917969 176.578125 298.667969 C 181.332031 295.324219 187.195312 294.125 193.089844 295.289062 C 205.054688 297.65625 213.335938 309.195312 211.554688 321.011719 C 210.703125 326.664062 207.691406 331.570312 203.070312 334.816406 C 199.5 337.328125 195.304688 338.632812 190.945312 338.632812 Z M 180.050781 357.191406 L 187.203125 358.609375 L 190.265625 350.898438 C 190.367188 350.644531 190.613281 350.480469 190.882812 350.480469 C 190.886719 350.480469 190.890625 350.480469 190.894531 350.480469 C 192.800781 350.519531 194.695312 350.402344 196.515625 350.128906 C 196.769531 350.089844 197.023438 350.203125 197.164062 350.417969 L 201.960938 357.667969 L 208.65625 355.375 L 207.351562 346.964844 C 207.3125 346.695312 207.441406 346.425781 207.679688 346.289062 C 209.28125 345.382812 210.804688 344.335938 212.214844 343.175781 C 212.421875 343.003906 212.710938 342.976562 212.945312 343.101562 L 220.613281 347.164062 L 225.082031 341.792969 L 219.746094 334.9375 C 219.582031 334.726562 219.5625 334.441406 219.691406 334.210938 C 220.566406 332.628906 221.320312 330.929688 221.929688 329.164062 C 222.019531 328.902344 222.261719 328.722656 222.539062 328.71875 L 231 328.515625 L 232.058594 321.484375 L 224.09375 318.019531 C 223.859375 317.917969 223.707031 317.6875 223.699219 317.433594 C 223.640625 315.527344 223.429688 313.636719 223.0625 311.808594 C 223.007812 311.539062 223.128906 311.265625 223.359375 311.121094 L 230.363281 306.730469 L 227.703125 299.902344 L 219.269531 300.78125 C 219.011719 300.800781 218.769531 300.683594 218.632812 300.464844 C 217.644531 298.824219 216.511719 297.246094 215.269531 295.777344 C 215.097656 295.578125 215.0625 295.292969 215.179688 295.058594 L 218.878906 287.617188 L 213.195312 282.847656 L 206.582031 287.8125 C 206.367188 287.972656 206.082031 287.988281 205.851562 287.851562 C 204.214844 286.898438 202.464844 286.058594 200.65625 285.363281 C 200.414062 285.269531 200.25 285.046875 200.230469 284.792969 L 199.597656 276.296875 L 192.445312 274.878906 L 189.382812 282.589844 C 189.28125 282.84375 189.039062 283.007812 188.769531 283.007812 C 188.761719 283.007812 188.757812 283.007812 188.753906 283.007812 C 186.839844 282.964844 184.949219 283.085938 183.132812 283.359375 C 182.882812 283.398438 182.628906 283.285156 182.484375 283.070312 L 177.6875 275.820312 L 170.992188 278.113281 L 172.296875 286.519531 C 172.335938 286.792969 172.207031 287.0625 171.96875 287.199219 C 170.371094 288.101562 168.847656 289.152344 167.433594 290.3125 C 167.230469 290.484375 166.941406 290.511719 166.703125 290.386719 L 159.035156 286.324219 L 154.570312 291.695312 L 159.902344 298.550781 C 160.066406 298.761719 160.085938 299.046875 159.957031 299.277344 C 159.082031 300.859375 158.328125 302.558594 157.71875 304.324219 C 157.628906 304.585938 157.386719 304.765625 157.109375 304.769531 L 148.648438 304.972656 L 147.589844 312.003906 L 155.554688 315.46875 C 155.789062 315.570312 155.941406 315.800781 155.949219 316.054688 C 156.007812 317.957031 156.21875 319.851562 156.585938 321.679688 C 156.636719 321.949219 156.519531 322.222656 156.289062 322.367188 L 149.285156 326.757812 L 151.945312 333.589844 L 160.378906 332.707031 C 160.636719 332.683594 160.878906 332.804688 161.011719 333.019531 C 162.003906 334.664062 163.136719 336.238281 164.378906 337.710938 C 164.550781 337.910156 164.585938 338.195312 164.46875 338.433594 L 160.769531 345.871094 L 166.453125 350.640625 L 173.066406 345.675781 C 173.28125 345.515625 173.566406 345.5 173.796875 345.636719 C 175.433594 346.59375 177.183594 347.429688 178.996094 348.125 C 179.234375 348.21875 179.398438 348.441406 179.417969 348.695312 Z M 187.617188 360.023438 C 187.574219 360.023438 187.53125 360.019531 187.488281 360.011719 L 179.300781 358.394531 C 179.007812 358.335938 178.789062 358.089844 178.769531 357.792969 L 178.128906 349.207031 C 176.53125 348.574219 174.980469 347.832031 173.511719 346.996094 L 166.824219 352.015625 C 166.582031 352.199219 166.238281 352.191406 166.003906 351.992188 L 159.523438 346.546875 C 159.289062 346.351562 159.21875 346.023438 159.355469 345.75 L 163.09375 338.230469 C 162.003906 336.910156 160.996094 335.515625 160.101562 334.066406 L 151.578125 334.957031 C 151.285156 334.980469 151.003906 334.816406 150.894531 334.539062 L 147.855469 326.730469 C 147.738281 326.433594 147.851562 326.097656 148.121094 325.929688 L 155.199219 321.488281 C 154.898438 319.863281 154.714844 318.195312 154.644531 316.515625 L 146.59375 313.015625 C 146.320312 312.894531 146.160156 312.605469 146.203125 312.3125 L 147.421875 304.226562 C 147.472656 303.910156 147.738281 303.671875 148.0625 303.664062 L 156.625 303.460938 C 157.175781 301.917969 157.835938 300.425781 158.59375 299.019531 L 153.199219 292.085938 C 153.007812 291.839844 153.011719 291.496094 153.210938 291.257812 L 158.359375 285.066406 C 158.5625 284.828125 158.902344 284.757812 159.175781 284.90625 L 166.9375 289.015625 C 168.191406 288.007812 169.527344 287.089844 170.917969 286.277344 L 169.601562 277.769531 C 169.550781 277.453125 169.738281 277.144531 170.039062 277.042969 L 177.738281 274.402344 C 178.023438 274.304688 178.339844 274.414062 178.503906 274.664062 L 183.359375 281.992188 C 184.972656 281.769531 186.640625 281.664062 188.320312 281.679688 L 191.417969 273.878906 C 191.535156 273.582031 191.847656 273.414062 192.160156 273.476562 L 200.347656 275.09375 C 200.640625 275.152344 200.859375 275.398438 200.878906 275.695312 L 201.519531 284.28125 C 203.121094 284.914062 204.667969 285.65625 206.136719 286.492188 L 212.824219 281.472656 C 213.070312 281.289062 213.410156 281.300781 213.644531 281.496094 L 220.125 286.9375 C 220.363281 287.136719 220.429688 287.464844 220.292969 287.742188 L 216.554688 295.257812 C 217.648438 296.574219 218.648438 297.972656 219.546875 299.421875 L 228.070312 298.53125 C 228.367188 298.503906 228.644531 298.671875 228.753906 298.949219 L 231.792969 306.757812 C 231.910156 307.054688 231.796875 307.390625 231.527344 307.558594 L 224.449219 312 C 224.75 313.621094 224.9375 315.292969 225.003906 316.972656 L 233.054688 320.472656 C 233.328125 320.59375 233.488281 320.882812 233.445312 321.179688 L 232.226562 329.261719 C 232.179688 329.578125 231.910156 329.816406 231.585938 329.824219 L 223.027344 330.027344 C 222.472656 331.570312 221.808594 333.0625 221.054688 334.46875 L 226.449219 341.402344 C 226.640625 341.644531 226.636719 341.992188 226.4375 342.230469 L 221.289062 348.421875 C 221.089844 348.660156 220.75 348.730469 220.472656 348.582031 L 212.710938 344.472656 C 211.460938 345.476562 210.125 346.398438 208.730469 347.210938 L 210.046875 355.71875 C 210.097656 356.035156 209.910156 356.34375 209.609375 356.445312 L 201.910156 359.085938 C 201.625 359.183594 201.308594 359.078125 201.144531 358.824219 L 196.289062 351.496094 C 194.675781 351.71875 193.007812 351.824219 191.328125 351.808594 L 188.230469 359.605469 C 188.128906 359.863281 187.882812 360.023438 187.617188 360.023438 " fill-opacity="1" fill-rule="nonzero"/><path fill="#000000" d="M 310.660156 143.476562 C 314.558594 138.917969 320.332031 137.9375 324.664062 139.199219 C 330.144531 140.796875 332.890625 145.917969 334.824219 149.53125 C 338.25 155.917969 336.574219 158.242188 339.265625 161.953125 C 344.042969 168.515625 355.710938 164.105469 361.359375 169.136719 C 374.9375 181.230469 367.421875 201.359375 355.304688 210.894531 C 347.222656 217.257812 336.28125 213.652344 333.304688 212.667969 C 324.265625 209.691406 309.296875 203.839844 307.90625 189.714844 C 306.96875 180.214844 315.96875 172.554688 311.183594 164.65625 C 309.964844 162.640625 308.953125 162.097656 308.050781 159.582031 C 306.589844 155.492188 306.285156 148.597656 310.660156 143.476562 " fill-opacity="1" fill-rule="nonzero"/><path fill="#000000" d="M 326.238281 144.613281 C 324.003906 142.804688 325.417969 137.464844 326.84375 134.585938 C 327.378906 133.507812 329.773438 128.679688 332.921875 128.867188 C 336.15625 129.058594 339.253906 134.488281 338.097656 138.789062 C 336.65625 144.164062 328.851562 146.734375 326.238281 144.613281 " fill-opacity="1" fill-rule="nonzero"/><path fill="#475be8" d="M 341.300781 177.382812 C 334.574219 175.1875 324.316406 173.613281 312.058594 177.515625 C 307.589844 178.941406 304.382812 182.875 303.832031 187.53125 L 293.847656 245.023438 C 293.355469 249.203125 298.941406 253.265625 302.875 254.757812 C 306.984375 256.316406 313.199219 257.789062 322 257.789062 C 331.433594 257.789062 342.828125 257.734375 346.65625 256.058594 C 346.769531 256.011719 346.882812 255.957031 347 255.902344 C 351.925781 253.609375 354.820312 248.414062 354.339844 243.003906 L 352.304688 234.550781 C 350.0625 225.234375 349.023438 215.664062 349.210938 206.082031 L 349.539062 189.347656 C 349.789062 183.960938 346.429688 179.054688 341.300781 177.382812 " fill-opacity="1" fill-rule="nonzero"/><path fill="#475be8" d="M 294.152344 202.085938 C 294.152344 202.085938 302.121094 180.011719 311.058594 177.886719 L 306.515625 209.171875 L 294.152344 202.085938 " fill-opacity="1" fill-rule="nonzero"/><path fill="#475be8" d="M 361.089844 214.96875 C 364.503906 212.265625 365.941406 207.765625 364.726562 203.585938 C 363.632812 199.824219 362.25 195.292969 361.050781 192.019531 C 356.933594 180.8125 348.40625 178.304688 345.089844 177.511719 C 344.5625 177.386719 338.65625 176.605469 338.65625 176.605469 L 342.210938 210.894531 L 357.402344 217.117188 L 361.089844 214.96875 " fill-opacity="1" fill-rule="nonzero"/><path fill="#000000" d="M 350.316406 242.320312 C 350.078125 242.320312 349.851562 242.195312 349.730469 241.96875 C 342.972656 229.140625 322.363281 228.628906 313.4375 230.390625 C 307.785156 231.503906 301.917969 235.28125 301.859375 235.320312 C 301.554688 235.519531 301.144531 235.433594 300.945312 235.125 C 300.746094 234.820312 300.832031 234.410156 301.136719 234.210938 C 301.390625 234.050781 307.28125 230.257812 313.183594 229.089844 C 317.378906 228.265625 324.914062 227.828125 332.347656 229.332031 C 341.296875 231.140625 347.710938 235.296875 350.898438 241.351562 C 351.070312 241.675781 350.945312 242.074219 350.625 242.246094 C 350.527344 242.296875 350.421875 242.320312 350.316406 242.320312 " fill-opacity="1" fill-rule="nonzero"/><path fill="#99b9ff" d="M 325.71875 220.121094 L 286.578125 220.0625 C 285.585938 220.058594 284.722656 219.382812 284.484375 218.417969 L 277.84375 190.800781 C 277.507812 189.4375 278.539062 188.125 279.941406 188.125 L 319.085938 188.1875 C 320.074219 188.1875 320.941406 188.867188 321.179688 189.828125 L 327.816406 217.445312 C 328.152344 218.808594 327.121094 220.125 325.71875 220.121094 " fill-opacity="1" fill-rule="nonzero"/><path fill="#000000" d="M 279.9375 188.789062 C 279.476562 188.789062 279.046875 188.996094 278.761719 189.359375 C 278.476562 189.726562 278.375 190.191406 278.484375 190.644531 L 285.128906 218.265625 C 285.292969 218.929688 285.890625 219.398438 286.578125 219.398438 L 325.722656 219.460938 C 326.183594 219.460938 326.613281 219.25 326.902344 218.886719 C 327.1875 218.523438 327.289062 218.054688 327.175781 217.605469 L 320.535156 189.980469 C 320.367188 189.316406 319.773438 188.851562 319.082031 188.847656 L 279.941406 188.789062 C 279.9375 188.789062 279.9375 188.789062 279.9375 188.789062 Z M 325.722656 220.78125 C 325.722656 220.78125 325.722656 220.78125 325.71875 220.78125 L 286.578125 220.722656 C 285.277344 220.71875 284.15625 219.839844 283.84375 218.578125 L 277.199219 190.953125 C 276.992188 190.113281 277.183594 189.230469 277.722656 188.542969 C 278.257812 187.859375 279.070312 187.464844 279.9375 187.464844 C 279.9375 187.464844 279.941406 187.464844 279.945312 187.464844 L 319.085938 187.527344 C 320.382812 187.527344 321.507812 188.40625 321.820312 189.671875 L 328.460938 217.292969 C 328.671875 218.136719 328.480469 219.015625 327.941406 219.703125 C 327.402344 220.390625 326.59375 220.78125 325.722656 220.78125 " fill-opacity="1" fill-rule="nonzero"/><path fill="#ffffff" d="M 299.394531 204.648438 C 299.78125 206.316406 301.355469 207.371094 302.910156 207.007812 C 304.460938 206.644531 305.402344 204.996094 305.011719 203.332031 C 304.621094 201.664062 303.046875 200.605469 301.496094 200.96875 C 299.945312 201.332031 299.003906 202.980469 299.394531 204.648438 " fill-opacity="1" fill-rule="nonzero"/><path fill="#ffffff" d="M 280.136719 201.316406 L 280.632812 203.300781 C 280.84375 204.136719 281.765625 204.574219 282.550781 204.203125 L 289.171875 201.0625 C 290.046875 200.644531 291.101562 201.085938 291.40625 202.011719 C 292.027344 203.898438 291.503906 207.246094 283.074219 210.664062 C 277.925781 212.753906 277.738281 207.097656 278.582031 203.652344 C 278.953125 202.117188 280.136719 201.316406 280.136719 201.316406 " fill-opacity="1" fill-rule="nonzero"/><path fill="#000000" d="M 279.785156 202.613281 C 279.558594 202.921875 279.34375 203.320312 279.222656 203.800781 C 278.660156 206.132812 278.695312 209.027344 279.867188 210.039062 C 280.5 210.585938 281.496094 210.589844 282.828125 210.050781 C 288.824219 207.621094 291.644531 204.835938 290.78125 202.214844 C 290.695312 201.957031 290.511719 201.753906 290.253906 201.644531 C 290 201.535156 289.707031 201.539062 289.457031 201.660156 L 282.835938 204.800781 C 282.28125 205.0625 281.648438 205.0625 281.097656 204.800781 C 280.546875 204.539062 280.144531 204.050781 279.996094 203.457031 Z M 281.082031 211.777344 C 280.269531 211.777344 279.574219 211.53125 279.003906 211.039062 C 277.234375 209.511719 277.324219 206.015625 277.941406 203.488281 C 278.367188 201.734375 279.710938 200.804688 279.769531 200.765625 C 279.945312 200.644531 280.175781 200.617188 280.375 200.695312 C 280.574219 200.773438 280.726562 200.941406 280.777344 201.152344 L 281.277344 203.136719 C 281.328125 203.34375 281.46875 203.515625 281.664062 203.605469 C 281.855469 203.699219 282.074219 203.695312 282.269531 203.605469 L 288.890625 200.464844 C 289.484375 200.183594 290.171875 200.167969 290.777344 200.429688 C 291.375 200.683594 291.832031 201.1875 292.039062 201.800781 C 292.824219 204.195312 291.953125 207.777344 283.324219 211.277344 C 282.5 211.609375 281.75 211.777344 281.082031 211.777344 " fill-opacity="1" fill-rule="nonzero"/><path fill="#ffffff" d="M 337.285156 192.847656 C 337.285156 192.847656 354.867188 202.75 358.488281 205.859375 C 362.117188 208.96875 366.046875 211.324219 360.921875 218.097656 C 356.5625 223.855469 348.886719 218.707031 335.363281 199.308594 C 334.726562 198.398438 333.691406 197.832031 332.609375 197.589844 C 331.253906 197.289062 329.285156 196.214844 328.375 192.65625 C 328.375 192.65625 321.960938 193.566406 321.398438 190.441406 L 331.027344 188.90625 C 332.320312 188.675781 333.636719 189.105469 334.554688 190.042969 L 337.285156 192.847656 " fill-opacity="1" fill-rule="nonzero"/><path fill="#000000" d="M 328.375 191.996094 C 328.675781 191.996094 328.941406 192.195312 329.019531 192.492188 C 329.820312 195.664062 331.492188 196.664062 332.753906 196.945312 C 334.105469 197.25 335.222656 197.953125 335.902344 198.929688 C 345.566406 212.792969 352.414062 219.574219 356.828125 219.660156 C 358.210938 219.691406 359.375 219.046875 360.390625 217.699219 C 364.742188 211.953125 362.292969 209.90625 358.90625 207.078125 C 358.621094 206.84375 358.339844 206.605469 358.054688 206.363281 C 354.523438 203.332031 337.132812 193.523438 336.957031 193.425781 C 336.902344 193.390625 336.855469 193.355469 336.808594 193.3125 L 334.078125 190.503906 C 333.316406 189.722656 332.21875 189.367188 331.140625 189.558594 L 322.328125 190.960938 C 323.578125 192.605469 328.230469 192.007812 328.28125 192 C 328.3125 191.996094 328.34375 191.996094 328.375 191.996094 Z M 356.910156 220.984375 C 356.875 220.984375 356.839844 220.984375 356.800781 220.980469 C 351.863281 220.886719 344.878906 214.117188 334.820312 199.683594 C 334.324219 198.984375 333.488281 198.46875 332.460938 198.238281 C 331.199219 197.957031 328.984375 196.945312 327.890625 193.375 C 326.183594 193.527344 321.308594 193.679688 320.746094 190.558594 C 320.714844 190.382812 320.753906 190.203125 320.855469 190.058594 C 320.960938 189.914062 321.117188 189.816406 321.292969 189.789062 L 330.921875 188.253906 C 332.421875 187.988281 333.960938 188.484375 335.023438 189.582031 L 337.691406 192.320312 C 339.160156 193.148438 355.375 202.320312 358.917969 205.359375 C 359.195312 205.597656 359.472656 205.832031 359.75 206.0625 C 363.09375 208.855469 366.558594 211.746094 361.445312 218.5 C 360.195312 220.148438 358.671875 220.984375 356.910156 220.984375 " fill-opacity="1" fill-rule="nonzero"/><path fill="#ffffff" d="M 319.246094 166.800781 C 318.300781 167.273438 317.160156 167.078125 316.414062 166.328125 C 315.566406 165.480469 314.886719 164.578125 314.332031 163.667969 L 313.257812 163.6875 C 312.914062 163.695312 312.628906 163.425781 312.613281 163.082031 L 312.429688 158.886719 C 311.601562 157.539062 311.269531 156.398438 311.195312 155.476562 C 311.0625 153.921875 312.453125 151.121094 313.859375 150.433594 C 315.765625 149.503906 319.203125 149 320.996094 151.703125 C 321.769531 152.859375 323.019531 153.691406 323.78125 153.558594 C 324.496094 153.429688 324.785156 152.820312 325.136719 152.1875 C 325.796875 151.007812 327.421875 149.902344 328.992188 151.765625 C 330.578125 153.652344 329.476562 155.382812 328.492188 156.835938 C 328.09375 157.417969 328.523438 159.042969 328.6875 159.726562 L 331.007812 169.621094 C 331.605469 172.167969 333.425781 174.25 335.863281 175.183594 L 338.351562 176.136719 C 338.351562 176.136719 335.605469 184.464844 324.609375 184.230469 C 316.214844 184.050781 316.859375 177.164062 316.859375 177.164062 L 317.960938 176.679688 C 320.847656 175.40625 322.425781 172.265625 321.730469 169.191406 L 320.992188 165.925781 L 319.246094 166.800781 " fill-opacity="1" fill-rule="nonzero"/><path fill="#000000" d="M 319.246094 166.800781 L 319.253906 166.800781 Z M 317.507812 177.601562 C 317.527344 178.347656 317.707031 180.078125 318.945312 181.460938 C 320.152344 182.804688 322.0625 183.515625 324.621094 183.570312 C 324.769531 183.574219 324.914062 183.574219 325.058594 183.574219 C 333.4375 183.574219 336.636719 178.292969 337.476562 176.511719 L 335.625 175.800781 C 332.980469 174.785156 331.011719 172.535156 330.367188 169.773438 L 328.003906 159.71875 C 327.703125 158.46875 327.453125 157.183594 327.945312 156.460938 C 329.027344 154.871094 329.699219 153.632812 328.484375 152.191406 C 328.023438 151.644531 327.554688 151.386719 327.101562 151.4375 C 326.488281 151.492188 325.972656 152.050781 325.714844 152.507812 L 325.652344 152.628906 C 325.304688 153.257812 324.875 154.035156 323.894531 154.207031 C 322.71875 154.414062 321.242188 153.261719 320.449219 152.066406 C 318.8125 149.609375 315.613281 150.3125 314.148438 151.027344 C 313.046875 151.5625 311.738281 154.070312 311.851562 155.425781 C 311.929688 156.390625 312.3125 157.4375 312.992188 158.542969 C 313.046875 158.636719 313.082031 158.746094 313.089844 158.855469 L 313.273438 163.054688 L 314.316406 163.003906 C 314.550781 162.996094 314.773438 163.121094 314.894531 163.324219 C 315.460938 164.25 316.128906 165.105469 316.878906 165.859375 C 317.429688 166.414062 318.261719 166.550781 318.953125 166.207031 L 320.691406 165.335938 C 320.875 165.242188 321.085938 165.238281 321.273438 165.328125 C 321.457031 165.414062 321.589844 165.582031 321.636719 165.78125 L 322.375 169.046875 C 323.136719 172.421875 321.394531 175.886719 318.226562 177.285156 Z M 325.058594 184.898438 C 324.902344 184.898438 324.75 184.894531 324.59375 184.890625 C 321.644531 184.828125 319.410156 183.96875 317.949219 182.332031 C 315.949219 180.082031 316.191406 177.222656 316.199219 177.105469 C 316.222656 176.867188 316.371094 176.660156 316.589844 176.558594 L 317.695312 176.074219 C 320.285156 174.929688 321.710938 172.097656 321.085938 169.339844 L 320.53125 166.894531 L 319.542969 167.390625 C 318.34375 167.992188 316.894531 167.753906 315.941406 166.792969 C 315.207031 166.050781 314.542969 165.226562 313.972656 164.335938 L 313.269531 164.347656 C 313.261719 164.347656 313.253906 164.347656 313.242188 164.347656 C 312.558594 164.347656 311.984375 163.800781 311.953125 163.109375 L 311.777344 159.085938 C 311.042969 157.855469 310.625 156.660156 310.53125 155.535156 C 310.390625 153.804688 311.863281 150.671875 313.570312 149.839844 C 316.109375 148.597656 319.6875 148.539062 321.546875 151.335938 C 322.242188 152.382812 323.292969 152.976562 323.664062 152.90625 C 323.992188 152.847656 324.15625 152.597656 324.492188 151.988281 L 324.5625 151.867188 C 324.988281 151.09375 325.851562 150.226562 326.976562 150.117188 C 327.601562 150.058594 328.554688 150.21875 329.5 151.339844 C 331.449219 153.664062 329.941406 155.878906 329.039062 157.207031 C 328.953125 157.359375 328.921875 157.867188 329.292969 159.410156 L 329.328125 159.578125 L 331.652344 169.472656 C 332.199219 171.804688 333.863281 173.707031 336.101562 174.566406 L 338.585938 175.519531 C 338.914062 175.644531 339.089844 176.007812 338.980469 176.34375 C 338.949219 176.433594 336.027344 184.898438 325.058594 184.898438 " fill-opacity="1" fill-rule="nonzero"/><path fill="#ffffff" d="M 319.824219 339.269531 L 325.648438 356.664062 C 325.648438 356.664062 319.300781 356.121094 318.695312 356.242188 C 318.089844 356.359375 310.660156 340.378906 310.660156 340.378906 L 319.824219 339.269531 " fill-opacity="1" fill-rule="nonzero"/><path fill="#000000" d="M 318.609375 355.585938 C 318.59375 355.585938 318.582031 355.589844 318.566406 355.59375 C 318.582031 355.589844 318.59375 355.585938 318.609375 355.585938 Z M 319.035156 355.566406 C 320.175781 355.566406 322.863281 355.769531 324.703125 355.921875 L 319.363281 339.992188 L 311.644531 340.925781 C 314.683594 347.433594 318.066406 354.351562 318.941406 355.570312 C 318.96875 355.566406 319 355.566406 319.035156 355.566406 Z M 325.652344 357.324219 C 325.628906 357.324219 325.613281 357.324219 325.589844 357.324219 C 322.59375 357.066406 319.238281 356.835938 318.808594 356.890625 C 318.179688 357.011719 317.941406 357.058594 313.851562 348.644531 C 311.941406 344.703125 310.078125 340.699219 310.058594 340.65625 C 309.972656 340.464844 309.976562 340.242188 310.082031 340.058594 C 310.183594 339.875 310.371094 339.75 310.578125 339.722656 L 319.738281 338.617188 C 320.054688 338.582031 320.347656 338.765625 320.445312 339.0625 L 326.277344 356.453125 C 326.34375 356.664062 326.304688 356.898438 326.167969 357.070312 C 326.042969 357.230469 325.851562 357.324219 325.652344 357.324219 " fill-opacity="1" fill-rule="nonzero"/><path fill="#475be8" d="M 324.3125 352.84375 C 324.3125 352.84375 315.546875 349.25 313.925781 353.757812 C 311.867188 359.496094 308.640625 368.246094 308.640625 368.246094 C 308.09375 369.773438 309.144531 371.394531 310.761719 371.523438 C 313.964844 371.785156 318.742188 371.992188 320.964844 371.210938 C 324.484375 369.976562 330.3125 358.855469 330.3125 358.855469 L 328.511719 349.390625 C 328.511719 349.390625 325.335938 348.941406 324.3125 352.84375 " fill-opacity="1" fill-rule="nonzero"/><path fill="#ffffff" d="M 308.882812 367.589844 C 308.730469 368.007812 308.644531 368.246094 308.644531 368.246094 C 308.09375 369.773438 309.144531 371.394531 310.761719 371.523438 C 313.964844 371.785156 318.742188 371.992188 320.96875 371.210938 C 322.109375 370.8125 323.5 369.359375 324.851562 367.589844 L 308.882812 367.589844 " fill-opacity="1" fill-rule="nonzero"/><path fill="#000000" d="M 318.082031 352.140625 C 317.292969 352.140625 316.542969 352.246094 315.917969 352.523438 C 315.242188 352.828125 314.796875 353.304688 314.550781 353.984375 C 312.511719 359.65625 309.296875 368.386719 309.265625 368.476562 C 309.074219 369 309.140625 369.574219 309.449219 370.046875 C 309.753906 370.523438 310.25 370.820312 310.8125 370.867188 C 315.609375 371.25 319.136719 371.152344 320.75 370.585938 C 323.371094 369.667969 327.9375 361.921875 329.621094 358.75 L 327.964844 350.039062 C 327.167969 350.09375 325.605469 350.53125 324.957031 353.007812 C 324.910156 353.191406 324.78125 353.347656 324.609375 353.433594 C 324.441406 353.519531 324.242188 353.527344 324.066406 353.453125 C 324.027344 353.4375 320.816406 352.140625 318.082031 352.140625 Z M 315.917969 372.417969 C 314.164062 372.417969 312.316406 372.3125 310.707031 372.183594 C 309.730469 372.105469 308.867188 371.589844 308.335938 370.765625 C 307.804688 369.945312 307.691406 368.945312 308.019531 368.023438 C 308.054688 367.929688 311.269531 359.203125 313.308594 353.535156 C 313.671875 352.511719 314.371094 351.765625 315.386719 351.316406 C 318.058594 350.128906 322.261719 351.398438 323.894531 351.976562 C 324.972656 349.0625 327.394531 348.566406 328.605469 348.734375 C 328.890625 348.777344 329.113281 348.988281 329.164062 349.269531 L 330.960938 358.730469 C 330.992188 358.878906 330.96875 359.03125 330.898438 359.160156 C 330.289062 360.324219 324.84375 370.554688 321.1875 371.832031 C 319.945312 372.269531 318 372.417969 315.917969 372.417969 " fill-opacity="1" fill-rule="nonzero"/><path fill="#ffffff" d="M 336.347656 343.546875 L 334.367188 361.039062 L 326.402344 358.855469 L 327.015625 343.09375 L 336.347656 343.546875 " fill-opacity="1" fill-rule="nonzero"/><path fill="#000000" d="M 327.082031 358.355469 L 333.800781 360.199219 L 335.613281 344.171875 L 327.652344 343.785156 Z M 334.371094 361.699219 C 334.308594 361.699219 334.25 361.691406 334.195312 361.675781 L 326.226562 359.492188 C 325.933594 359.410156 325.730469 359.136719 325.742188 358.828125 L 326.355469 343.066406 C 326.363281 342.890625 326.4375 342.722656 326.570312 342.605469 C 326.699219 342.484375 326.878906 342.425781 327.050781 342.433594 L 336.382812 342.886719 C 336.566406 342.894531 336.734375 342.976562 336.851562 343.117188 C 336.972656 343.253906 337.027344 343.4375 337.007812 343.617188 L 335.027344 361.113281 C 335.003906 361.304688 334.898438 361.480469 334.738281 361.585938 C 334.628906 361.664062 334.5 361.699219 334.371094 361.699219 " fill-opacity="1" fill-rule="nonzero"/><path fill="#475be8" d="M 335.121094 373.929688 L 322.515625 373.929688 C 320.808594 373.929688 319.5 372.414062 319.75 370.726562 C 320.167969 367.878906 321.542969 363.15625 325.652344 356.664062 C 326.097656 355.957031 326.882812 355.523438 327.722656 355.523438 L 331.558594 355.523438 C 332.21875 355.523438 332.769531 356.023438 332.84375 356.679688 L 333.128906 359.445312 L 334.292969 358.253906 C 334.75 357.785156 335.542969 357.964844 335.742188 358.585938 C 336.480469 360.824219 337.816406 365.613281 337.917969 371.082031 C 337.949219 372.644531 336.683594 373.929688 335.121094 373.929688 " fill-opacity="1" fill-rule="nonzero"/><path fill="#ffffff" d="M 322.515625 373.929688 L 335.121094 373.929688 C 336.683594 373.929688 337.949219 372.644531 337.917969 371.082031 C 337.910156 370.691406 337.894531 370.308594 337.878906 369.925781 L 319.886719 369.925781 C 319.832031 370.207031 319.789062 370.476562 319.75 370.726562 C 319.5 372.414062 320.808594 373.929688 322.515625 373.929688 " fill-opacity="1" fill-rule="nonzero"/><path fill="#000000" d="M 327.71875 356.183594 C 327.109375 356.183594 326.535156 356.503906 326.210938 357.015625 C 322.148438 363.433594 320.808594 368.066406 320.402344 370.824219 C 320.308594 371.4375 320.488281 372.058594 320.894531 372.527344 C 321.300781 373 321.890625 373.269531 322.511719 373.269531 L 335.117188 373.269531 C 335.695312 373.269531 336.234375 373.039062 336.644531 372.628906 C 337.050781 372.21875 337.261719 371.671875 337.253906 371.09375 C 337.15625 365.765625 335.871094 361.101562 335.113281 358.792969 C 335.082031 358.695312 335.007812 358.667969 334.960938 358.65625 C 334.921875 358.644531 334.835938 358.640625 334.761719 358.714844 L 333.601562 359.910156 C 333.425781 360.09375 333.152344 360.15625 332.910156 360.070312 C 332.671875 359.988281 332.496094 359.769531 332.472656 359.515625 L 332.179688 356.75 C 332.148438 356.429688 331.875 356.183594 331.554688 356.183594 Z M 335.117188 374.589844 L 322.511719 374.589844 C 321.503906 374.589844 320.550781 374.152344 319.894531 373.390625 C 319.238281 372.632812 318.945312 371.625 319.09375 370.628906 C 319.519531 367.746094 320.90625 362.921875 325.089844 356.308594 C 325.664062 355.402344 326.648438 354.863281 327.71875 354.863281 L 331.554688 354.863281 C 332.558594 354.863281 333.390625 355.613281 333.5 356.613281 L 333.640625 357.972656 L 333.8125 357.792969 C 334.195312 357.40625 334.734375 357.246094 335.261719 357.367188 C 335.789062 357.488281 336.203125 357.867188 336.371094 358.382812 C 337.152344 360.757812 338.472656 365.566406 338.578125 371.070312 C 338.59375 372.003906 338.242188 372.886719 337.585938 373.554688 C 336.929688 374.222656 336.054688 374.589844 335.117188 374.589844 " fill-opacity="1" fill-rule="nonzero"/><path fill="#000000" d="M 306.425781 238.480469 C 306.757812 237.671875 307.425781 237.054688 308.257812 236.792969 C 312.867188 235.347656 328.9375 231.535156 345.484375 242.148438 C 346.261719 242.648438 346.761719 243.484375 346.828125 244.410156 C 347.425781 252.820312 349.65625 296.769531 335.753906 348.808594 L 326.386719 348.140625 L 324.480469 259.164062 C 324.480469 259.164062 310.605469 291.785156 321.886719 343.695312 L 312.144531 345.492188 C 312.144531 345.492188 297.890625 326.75 295.335938 298.105469 C 293.078125 272.769531 303.902344 244.636719 306.425781 238.480469 " fill-opacity="1" fill-rule="nonzero"/><path fill="#caddff" d="M 323.664062 267.984375 C 323.65625 267.984375 323.652344 267.984375 323.644531 267.984375 C 323.28125 267.972656 322.992188 267.667969 323.003906 267.304688 L 323.253906 258.851562 C 323.296875 257.394531 322.613281 256.03125 321.421875 255.191406 L 317.777344 252.628906 C 317.476562 252.417969 317.40625 252.003906 317.617188 251.707031 C 317.824219 251.40625 318.238281 251.335938 318.535156 251.546875 L 322.183594 254.113281 C 323.738281 255.203125 324.632812 256.988281 324.574219 258.890625 L 324.324219 267.339844 C 324.316406 267.699219 324.019531 267.984375 323.664062 267.984375 " fill-opacity="1" fill-rule="nonzero"/></svg>